<mxfile host="app.diagrams.net" modified="2023-12-31T13:14:09.811Z" agent="Mozilla/5.0 (Windows NT 10.0; Win64; x64) AppleWebKit/537.36 (KHTML, like Gecko) Chrome/120.0.0.0 Safari/537.36" etag="1P0tXECFhXo30MMexB6r" version="22.1.16" type="device">
  <diagram name="Page-1" id="2RxOrBFUTFGYfeXqsohs">
    <mxGraphModel dx="1434" dy="772" grid="1" gridSize="10" guides="1" tooltips="1" connect="1" arrows="1" fold="1" page="1" pageScale="1" pageWidth="850" pageHeight="1100" math="0" shadow="0">
      <root>
        <mxCell id="0" />
        <mxCell id="1" parent="0" />
        <mxCell id="urm6XVVK9icJE2-JLo95-1" value="" style="shape=image;verticalLabelPosition=bottom;labelBackgroundColor=default;verticalAlign=top;aspect=fixed;imageAspect=0;image=data:image/png,iVBORw0KGgoAAAANSUhEUgAAAdgAAAI+CAYAAAAfLBubAAABhWlDQ1BJQ0MgcHJvZmlsZQAAKJF9kT1Iw1AUhU9TpSIVBzuICGaoTnbRIoJLqWIRLJS2QqsOJi/9gyYNSYqLo+BacPBnserg4qyrg6sgCP6AuLo4KbpIifclhRYxPri8j/PeOdx3HyA0q0w1e2KAqllGOhEXc/lVMfCKIMaoopiTmKknM4tZeK6ve/j4fhfhWd73/lwDSsFkgE8kjjHdsIg3iGc2LZ3zPnGIlSWF+Jx40qAGiR+5Lrv8xrnksMAzQ0Y2PU8cIhZLXSx3MSsbKnGUOKyoGuULOZcVzluc1WqdtfvkLwwWtJUM16lGkcASkkhBhIw6KqjCQoR2jRQTaTqPe/hHHH+KXDK5KmDkWEANKiTHD/4Hv2drFqen3KRgHOh9se2PcSCwC7Qatv19bNutE8D/DFxpHX+tCcx+kt7oaOEjYHAbuLjuaPIecLkDDD/pkiE5kp9KKBaB9zP6pjwwdAv0r7lza5/j9AHI0qyWb4CDQ2CiRNnrHu/u657bv3fa8/sBWgRzAxb7u+8AAAAGYktHRAAZAHYA0qwS6ZYAAAAJcEhZcwAALiMAAC4jAXilP3YAAAAHdElNRQfnDB8NCBdJzbfOAAAAGXRFWHRDb21tZW50AENyZWF0ZWQgd2l0aCBHSU1QV4EOFwAAIABJREFUeNrsnXecVPW5/99TztSdnbq9sgtLXYqACCqCa64aaWokelNAvZEkRokx7V41DU25scQe9GokMdGfXdQoBsSCIgLSlbqF7WV22k5vvz/O7rC77C67NFnzfb9evJidOefMme+Zmc98nu/zPF9FMplMIhAIBALBEKipqSEW1wGg1aj5bN9exo8uIi8/v8d29XV1BDp8ZGfbAVCq1EibPoIDnxNf8l1ikSC7P/kQe1bel26MlOJtIhAIBILjQatRk2E14mvej13bAbqekhKPB6ivr8NuT++5YyTY40+NwYCzuR5ncz3hoJd4LP6lGB+1eIsIBAKB4Hiw2008+Zt5FE+agbuuhkjgcgKFYzCkmUiGO2hoc1NYYEeSpJ47Fo0gajOnHF7ZhCkA+AMeXI1tuJ1NKeE16NNRqVVCYAUCgUDwb0QyjN/bRtnk/8RwnokMu4WODg8Brw+AkSUFR4srEB8xus/wqdFgxlhqJr+0lGg0StW+3cSiflTqdCGwAoFAIPg3QqFl/nUP8/aq5SiNOi6/7h5MJnufotodlauZZCBCLDu7320kSSISCGAaxnOzYg5WIBAIBMdFNBQhr6ScRTc+yeSzr2XdP1agVEnH3vHjj0lu2TDwsaPRYT8+wsEKBAKB4LgIh1y8/ffbUOYUEqjZT2FZxUk7ttPpRWMwCIEVCAQCwb8faZYszp7337Qd3suIuUuwWXMIhwMn5djetsMY9OnDenyEwAoEAoHguGhodOFNalCZczAazIMX16ISlMBAxTiRQACTySoEViAQCAT/niT9oSHvEx9X3nmj73lWf8DzpRgbkeQkEAgEguOm3ePGpB5aQ0BlfS0qV3O/j3tbXcN+/lUIrEAgEAhOGLXRMjTXu2UDfPxxv487m+uH/fyrEFiBQCAQnBB+bzum9JM/2zhcuzcJgRUIBALBSSEa8aORTl441x/w4I7E8flchIPe4e3sxdtDIBAIBCfCsTo39SY+ohilOq3Px4wGMzNmzCTg9eFqrcPZXM+uqmb0KgV2m4WCXDvaYRI+FgIrEAgEgtOGUiXBxJlyiU4/WcSSJGG22zDbbYSCYbyJPYwsm4I73EFDzQE8NZWEfR4c2XYsGhUag+GMLOkRAisQCASC48Id7sBstgx5P2V9LQqDhkS67ZjbtjXUYXcUAGDRpmEpm5J6zNXeRuWhXZR2LneXlm46yt0a0tJR64+ez/V5Y+glReqxWDBOoMN71H7eVhcA6RnWo7YRAisQCASCU0LSH0IhmYa+35YNKMxWOP/YrRUPt3oYWVbS52NWm4NS43Ti3lZGlo/j8KHP6Giux2LPTiVJGdJNvPHq6wTjR0qJLBYLl158IU1NTtavXQfA+dMmYc1x4G11YUhLJxhNUlXdwpRxhag0etauXcvkMSUotCaSYd/gfkiIt4hAIBAIjodE3IclbejZvkqzFTLzBrUwQCA4cNN/izaN+oZWdHotZROmMGLCBNzOJpzN9cRjceKxBOecN5u5F1zA3AsuoKioGLfbjVqj55lnnmXOOWfx1Yvm8Pzqt4gF4yi0JrQGI+vfey/12h7/v8epqq7CHUqglxSDf53iLSIQCASC48HdEcdqNg9pH5VCQcLjgs0fovpsF1q/F7VGj1KlRqmSg6pdtwe7oo4x3UZTk1O+bTAz4exzKSgdi9vZRFPNPvSSAos5jdy8LPZ/tpu5F1yAs7EerUGHNTMHgOnTy9n1+e6UgDY1NDJ2tOycr1i4iBHFI4b+Q0K8RQQCgUBwPCSjviE5ui7iI4pJWMwo1ryK4qnHUVXtQ6mSkLzt6NVqJLUG6XAlAa+PiZPORqsZeDazdMRItu3Ywef7KlP3me02Js68gOyi0WS+/RqKD9+joV7uHmXPyEBrMBIOhFBp9FgzMzm4vxqfP4bWYOTTHXsYM26sXDLk6cBuP76sZTEHKxAIBILjIhCMYkgf2hxsPJlEmjQLJs0iCdDeRDTdJru91S+TbG8DmwNGjSUTCE2dA0BXalE4EuvzuFOnz8XV3saba97h0osvRKlSk4jH0Om1JCxm0i0WnvnnG8w49zyaqw/gyM3nkq9eyt9XPYXWmIYl3YTJqMaQZmT/Z7u5fOE8fN4YybCPgFdxXOMjBFYgEAgEx0U04h9yDSwAlXvBYiGabiNhTE+FUpXfup54YxOKnZ+CxQabP0S/6QPiJaVkTDsPj6UIjRYi4VCfYmu1OZBqjSlx1T6zSt7umiUEDh7C5fExddpEPO0uAl4f45NeJn99EWFjOs/8v5cYOXI8gQ4/gWgUa2YmtLQQCB//+AiBFQgEAsHp5f31MGoszJgFQCIeIxGPEQO0+YUkAUVNJa7p52ElibKmkkBHFCxg2bEePG5cRaVo8/JJqm09BNegl0jEjwivor0N7ZZPeNPZwTmz/4NQIIRWpyddr8fpcsHn+9npriXs7yA3L4u3137I5ElT6Ni3DwlAOv6WjUJgBQKBQHBcmIwnX0LC4QDK7Gzc+nRCEQmFKQ2KJqUeD9gL0LU2YFvzCgD+r/4n5I9EEWtHp9czYcIEtOveljdecDnJ1S/D2DGYdx3k/JkTiUWCssP1tFMX8nLI6cXimMCyyyah0ijJNsaYarOjWPMKntHlxEeU4nO7KM2zYlAnaW6sIRKQ1709eLgldV7jxhQf1exCCKxAIBAIjov+2h2eKIl4jKbqPVhyJ+PzdaTu12rURDLyiWXnwRwwdbQQS8sEwPzKsyja20jaHCQsZpQaA3z8MdFvXo9SJTF7dhaJzs5RSpUEq1+mPDOHcjUoZ4wlHIsQjcHU8eXyXLDNQfrYMRhHjE6JMkA4FAQgHkvQ5N/OxEln42pv47PtGxg3hh4iK7KIBQKB4AykoaGBlStXEgwGj7ltMBhk5cqVNDQ0nNZztFotx7fjqLEki0oG3ORwa4SD+7f1dLeRGOFIDE8wjicYp1WfRSiuQBkL4l10rexmi4pRuj2g1+Iyy52iYpEgsUgwFTpOxKNyiLqlEcXeXUSVUipMHU23wYLL5X81VZ0ZzurU45IkIUkSVYfrMXZ2orLaHMy6cBFxycz2vZVs2rwNZ3M9imQymRRvZYFAIDiz+POf/0xlZSW5ubksW7YMvV5/THEtKSnhu9/97mk5v5qaGgJtDeSXlg5pP7VG382pRnvMl/amqclJVX07pSNGDurYZr0KjU4ni2oihLO1lW07dmA2Wxg/qhiz3YZSpUbat5dorAOpoEQW1E7XLLtb+XHFmlcBSNoceBZdzfr3P0TSGAE5uauktByrzdHvuThbq4TACgQCwZlId+HsT2QHs82pFNhNH2/EZFRjz8insMCO0XDsphNqjR5V1T7CeYUpZzgQb655h6nT5w76vLrXzHbPMj5UdRB3Wy2Tx5RQfHA/6LVQUw2z5xItLDnqPHQP30NyTDmccw4toRhhxdAXExACKxAIBMNQZL9Ice0S2FhchzvcgbOhCb+3nWjEj9lsoaS4CLs9vc8SHrVGj/q+O4lUVMD4acd0sNt27BiSwB4LkykNS80OFGteJTnjfKoz5DlcR25e6nzVGj2JeBTpcCWJnZ/SIRkInXNpvzW4QmAFAoHgSyKywBcqrt0Ftjeu9jbaPW7cbbVIGiN5uRnkOiyY7bYeApu8eCHR0WOO6WD9AQ/vf7D1mCHZwZJhNaLb+i4c+JzQ1d/D6w/T1NSEs6021fc4LzeDIlUS6+YN0NlKMXThIkIxRaokqLdDFgIrEAgEXwKRBb5QcR1IYHvjbK3C5XLj8bhTc6FZz/5l0ALbxef7KqlvaGXipLNP3MG+8AiMGkto6hxaXf4+t9Nq1FjrtiJt24GivQ04Mh+bVNtQxuTks4Raf5ToajVqwpGYEFiBQCAYbiILfKHiOhSB7Y47LJfc5NfvoyVNQ1CRhtVs7jec3Jeb3bhpL8Z026ATn3qLpk6VxPzkH0ksXkKrPqtfF6rVqEk3agHQBZqgsQXc7XjHn0NCrcfywiOpsiAyc/DOuoSEWo9OLUuqz+8WdbACgUAgOD1YtHLdbEfJVAxAuL2Nqvp2tu3Y0Wc4uTdGg5mL5s7A42xn845PjktoE2o9nut+QkKtJ9ytxrY34UgML6BTJYkoLYSyrZANOrmDMt5F16JuqsfgrAWPO7Wf/pEV8v7TJwsHKxAIBMPJvQ63EPFQ6B1Otlot5OXlk56m6XN7j7OdzTsPYNBLjCybcszjm0xpKGLtKNATiiuGnLTUl8vtQqOVx8LsriHmrAPEHKxAIBAMK3E905OcThZDyU72ONvZ9flufP4YFkdBn652KOHhE8GsVxGOhzC2OoXACgQCwXAS1zOtTOd0cazs5O5iu+dAdcoFO4pGYdGmydnDh3aiWPMqwe/f0W9y08ng4P5tnHfu2UJgBQKBYLiJ61C2+bIIbG/6Cif3bnYRCoapOlwPgNVspmDbByg1BkIXLsLrD58SBwuwc8cnXDR3hhBYgUAgOBMZDq0Sv0iB7U5f4eQRObZU8wi1Ro/q3bfkjTV6Dlnt+JPpJ6Wuti+XbUlTMXZ0iRBYgUAgOBNpaGhg9erVLFmy5JiuNBgMsmrVKhYsWJBKgjodAtvc1Ig9Y8QZN3a9w8nTJ44is+qgnO2r1xI9v4KG+mYqq2vweNxYHAXYzBYURl0q03mobrq+oZXxJVkotKbUPLEQWIFAIBAct8DWN7QSjfhTInWyXeHJIq29EuvmDbT8x3yC0SSmdHUqnBwKhnF7OnB5PLhcbhKxDkJRbWpfY7oNm9mCOU2JUnN0CdHWzeu59OILj7pfCKxAIBAIjktgbWbZWUejUZxOb8oRShojxnQb9tzs43KEp5oux9lXOLkv/AEP3lYX7lACl8vd4zFHmoK4ZGbs6BIhsAKBQCA4uQLbG29HhPr6uqOSkIZDODkvNwOr2Ux2tv2Ejy0EViAQCAQnVWB743G209Dmpr6hFYNeojDDjC0JHbaSM1JwnW21eDzuIS/FJwRWIBAIBKdVYLsTjUaJRAOoP9pEZcFIXC43Csl0RoaT3eEO4t7Wo8LJ1swcdHqtEFiBQCAQnDkCC/KSdV10eNxUHa4fduFkgNI8K+mOwn7DyUJgBQKBQPCFCWwiHu2xZF33cPKZnp3cVzi5q7uUWqMXAisQCASC0y+wynrZBcays/tdE3Y4ZScnIu24PB7qG1oB5JpYIbACgUAgOJ0Cq1Spkd7+J4lIgOTCa4hFgoPaLxQM09ZQx+FWzxkfTk5E2oXACgQCgeD0C6y6qQmFx018XPlRAqtUycvA9edsuzjTw8lCYAUCgUBw+h2sWoNKoyQeSRDvJkPK+loUkQDxEaOPuMF49JiC2xVOrqpvT9W0ftHhZLV4mwgEAoHgdKFUqVGqJDT6NCIvPg1FJSRGj0GpkkjEo6ifW0XS5iBRWIJSJRGLBNFu+YRkUQmJvIKU4PYWW0mSyM62d2b0jjoSTq45wKEvKJwsHKxAIBAITrmD7RJWZX0tCoMGVXYuid//mnhJKcpF/5lysR51B9GID0XCT1JpRJHwk/n3tQDEl3w3JbCSt524NWtQ7haODiebzRbsjoJTGk4WAisQCASCUyawXcIKoPpsF4o1rxKpqEA7YRqJvXtRrHmVlmuvosORToAQ8VAryoi8GLoOLXFJg0ZpwJjUkFQaAciq8aJ45XmSY8qJX7qwx/P15W57c7rCyUJgBQKBQHDSBVapUpOIx9DWH07NpybiUcKhICqzniBh9GjRvvgCAA1XXEp7eH9KXPtCkkwpsVU2h0gaJVSOPMyxNBI7N6KqqkYx7bweoeTBuNve2cldPYlPNJws5mAFAoFAcFLo7lYT8Si6h+8haXPQVpROVNITVQdBC1IyAUCAGFxxKVJUziJO+nXUdnZJKsix9eE8fUTx4Qd01k53Gz5MLKlBaTehqTOQHgkA8OBPLgDgh99/rIfA9yW2Or2W/NJS8kvlv7vCyTt3fHJC4WThYAUCgUBwQg62+/xqJMOB3xAnGvGhanSSyNLhV0SIJAIEDOlkJDLJfelNnBecRYcjXXamST26w3V405TUuKoIxUPoVDoyMg2DPp/u7hbgH/99PeEODz8v+xrJRVf1ENmuhKrBuNsTCScLgRUIBALBcQmsw2Y6Mr/60XsoNn1ApKIC17gMAFxJN9Go74jgpBeT2RYh8y/P03LtVbQbfYQVCUy6AkY88SoJi5ldc8bT0HYAgEy7Ca1GGvK5hSNROqqdGJUKbEUTMZqssghrTNj/+CeSNgfha5YM2LKxP0LBMK6WRqoa21Ph5IKCkj7drRBYgUAgEByXwGZmHAnjtrv3ofBHSWTpjhLWLozpY5CSerTOZjpMcfzh5pT7tLfoyHjuFaovnE51ejqBRMOQXWwXm/78fxza+C8ASmd+hfNuuiXlbhUdcSyH22mfUIxDmUMsEkR68xXiI4pRTpyZEtvBuFuQw8nBaBLr7q3UZGeQ1OUDYLU5UIq3iUAgEAiOB/V9d9KWaMQZO0iHKY7b6qUlUtunuIIcCgYI27OIJAKp+6NRH74iO57R5RRtr8Jik7OFQ/EQ4Uh0yOeVPWVUj9vRqA9/uJmWSC0ejZPKsRKBpAtn7CAeZT0dkgFVVXU3NxtDOlwpd5zS6FOdpfrCbLeRnW3HvG8X5ToT5jQlzrZatm5eL5KcBAKBQHB8RCoqUCT8eCMthAgPuK0kmeT/OxOaeotwJFiPd/4FhJ3N2BR64rocmkONeN1RMjKHFibOnjILleaJ1O3uhAhDNJxKlpIkE5qLRxFKaiB2kKTSiKrVie6VV1CVlJJceI08v6ySugnwEYerVKlhzxb5NY0eQ3Y8llq+TgisQCAQCI6LuvFm/OHaQW2rURowvbcBk9NH22XTj3o8GvURVTaAPRedsxlLTIFHpet0sdKQ5mK1Ggnr2eembg9Ej8zkrrrbbAOJm64GIJloRNKYsL2/NTXH3BVKVqokUGhRqdNIzji/M3nqSFhZCKxAIBAIjouuOdTBqZ4Vk9OHz27Cr4j0ezyj1kr6R3vJaG3Et2gWDW0HaHH60Kl0pFsGJ7QJjRGrrXDIr6dPd5uMYAz5aT6njCyLDSknk3jX8+zciNqeT+LAbpSjJhCLBFFr9CmHKwRWIBAIBKcUHVqkpJ6GKy4FIO77rN9tI8F6wrPGoPjLLop3HSY+Qg4Vh+IhQs6QfLxjiK0y4icW6zjh8+7tbgMTRyAltRgUHXJzizGTURw8iMLtQbHmVXRrkFs/LrwGEFnEAoFAIDgOampqcBp3DGpbSTJh1I2Ub0eDtIb2Dri9UZuFbWMlls3b2X7dAtpdtYTiof4FfAju9kRIaIzE9RYANEmJEvLRt7bLPxqsWalF5BN5Baiq9gmBFQgEAsGpFVijNos0n4pEejqBpOuYoeWExohNW4bucB2hwnyiiiA17QdJtnsHFFqAD37+vT7v/89V/+/EHa05D01SwoAOMyZsB+qhsYng7FlUUgeAAR1SUo9BoUZRXV0tBFYgEAgEQ2awAmsxTaHg7odoXbwIZ2ao3zIeIFWWo3OMwpy0IkWDSBoTHny4FfJ+Hqcs0MHWlgGft8vZAifsbiXJhEafh6Fz+ljSmLDWuPBbzETMSmoUDUftoy4qKhLvEoFAIBAM2cEOVpikaJB4SSmJLB3RSOuA4trilEVUr6zDYNOR//F+FJs+gGv/C8meSVQRRGOTxTJiz0IVdNMeCNPhcaKKxPt0sef//tEegjsUsU1ojJh0BRgioHt3K5bN23FPn0x8zhwUOz8lNLEUn9ne574iyUkgEAgEpwyN0kBUkhOcNOG2Abf1uo80lTDbsyAJyaISOPA5to2bsO/dRbykNJUsRRKiOhMqXUjevpu77YuhJEp1CauU1CNFgmTfL9fVts+4AP/55UgRH4q9u2BiKQFCQmAFAoFAcPJobQkcu5Wh1gqdE5H9led0F8DexJx1SEXFNM+ehC0vk4DXKTvjaJCsv72KpzQf04ji1FytxibxjZc3EVFE+3S3vcW2d7/jhMaISZGGpMlFV1NH0JSOP9lB9YXT0Y8vpVWnAlxkNcrL6oUK84koWoTACgQCgeDkYZasMEAHJ0kyYYiAbffnNE8ZSzzsHtRx9RmZ8v5JPdK2HXhK8wlooO2sbAwUIyUhKunxlOZjPlSHYvN2kjYHddddjRk9UjRIVLL2cLddYjtQopRRmyUL6+E6HGufRdHeRvWF0/EV5xB3mPDU7cOen4FJV0Co0ErLtVcRVQT7fR1CYAUCgUBwXFjSLAToPySrURqw7a5Gs24d0oRi3AOIce+ew5qk7Co9pfmEzxlDgBARRZQIUVD40CQlonOm0j5nKoYIKBKyozTuqsO25hWSNgee0nzSJowibM9KiS02iCiiqVCy0p6FIilhTsor7mRt+xzNunXES0qpnjMJtzqJp7NMSKfSpYQf5J7K0L/AijIdgUAgEAyZmpoaWjR1qCRnv9sYtVmYmhKYnb7Otor9i3FrSyDlLLPHlFOUzEWPliBhAskYrcr+M4a7Sme6xE93uA6pqhrzoTpco8bjP78c3eE6zE4fTcV5KKzpPZxnfthBw+53ME09l8M1laTH/LKwRl1HrU2rSC8mIxQn68FnaVp+PW0aWfiFgxUIBALBSSPe0YHK2v/jkiaXUCGECiESOjjgsbrENa5RYUmaqNn2LjVbN3LRVT/DYw4OKK45ZBCN+GSxU/rQFBkxFMnutsttmp0+NOvWUQgkbQ5aF87FbMpBavKwY8PDHHAeYM6oWSjSoMbVTigkC2tBju2o51Q2y+calfREFP2XHAmBFQgEAsFxkTR2AH1n4XatngNyQtJgal8B0sx2zJh451/P4GusI/SVa8Bsx5I0YcbUY79AUm6sv+PdVwGYNHchgYR8n0HRKW8K8ODDd1Y5aWfPQuGPIHnbsVmyUFXtA4sF65ixVEz9L6IRH9m6DLJNGanncMfrU+ee0BgxoSNUaKVp+fUDzr8KgRUIBALBKUGjNJC17XM61Cbcowe/9Lg1acbf3k7CH2LOtMvZseM9Rhd+A4NCzYu/XEJGwRic7dX4Guv4yrKfkp5Zzo7VjwHQtusjFv7oET7819PsWP0YxnQHOpOFy358P3q0PHLTbPJGTMAbcuNrrOPahT8hbcQ83n7oMSqKCwi2VvHx6n/IYuqXXeqC2x6iNXqktWOXI45KegK4BnwtYsF1gUAgEBwXAzZs0FqRtu1A2V59zON0r39Nt2ew991nOXv2PCaXV7Br/XMpN+r3tpF/VjmX/3QlC37wez5e/Q+yMosomPVVJi24gYqb/4Ar0MCO1Y/x7fve4Mpfr8JQVMa21atQqTV4WuqY+o0bufynKymfu5j1BzcSUUfxe+X6XL1ko+3AHub98G4W3PYQOpOFhj1bU25cpctIOfLBIARWIBAIBCeVrtVz2i46j9Csqccsz+maf9Wp5B6/n775D3Zu28Dz7/6ZcIeH6pqdqW2zimfRSCuSNY+EP0Q8dqS21oOP+sYq7HkjCSRjNNLKmPIJNOz/VD6+wYTFXkggGcNhNBANHH1ettxSFAk/gaQLkyWbePLIqjwGdBg/2EXW3+SQdH/JTV2IELHgpBAIBHjnnXfYvn07tbXyihIFBQVMnjyZCy+8EIPBIAbpNLN9+3ZWrVoFwJIlS5g8ebIYlNNArSvKPf9q5q09HryhBPlWiVkladz6lSwKrFKPbT6q7KDOFSVdp+SS8eYe2wxnVFp5xZlQYT5SNCivs9oP3edfbdYCara9S+7oqZx77a0AOHbO4tCrf2fszdOP+bxSUo8lzULI58agUBNFx+EOLyZLdo/tDAo1TkAyWAj2OjelUdfnsRMaI1JST1qamuiUScCRUqJhnUUcCAR4/fXX2bFDbiw9adIkFi9e3GMbp9PJc889R12dvKJBfn4+ixcvxm63i0/8KWbjxo0899xzBAKBnl80tbXU1taybt06Fi9ezMyZM8VgncZr8tRTT6X+fvTRR1m6dKm4BqeY/7fFxS9fa8AbSqTuq3NFeW6ri+e2urjvqnwAbnm+rsd+3lCC57a6eGuPh1/Pz+Xr06zDeyC6dW8KJF2D3i3dnsGGv9zP7LmLKdrTSt35k5g0t5DH//HHo4SwiyBhbI58Kjf/k8wcC6MmzANg2+pV2AqK2Pb3P7Pg9kdTTrer9Cdhy4Cqg0QjvkGdW1xvwZBUI23bQcJixn7WNOwY5TKiRN9lRKpf/epXvzrTr9XLL7/MunXrCAQCBAIBqqqqCAaDjB8/PiWud955J7W1taltmpqa2LhxI9OnTxfu6TR8kUej/YdKotEo27dvx+FwUFBQIAbtNItrd0crrsGpda7X/bW6h7j2Zs1nXtZ85u3fzcWSbKzsYOFkK2a96ox+vR6Ph6Cm77pWi8JB7qoXCY3Lxp/0kUj03yLR5QwT68wGLnWMQ62LM9YxleTBPbSPyyeRVFFUNgoTDiwjRpBRMpYOAtj0DowWK5rsfApGjCMSSeDraCG/aBKj5s6npaGGQKiVc666EY0tF4UiiSY3g7zccYTbDpNutmPNKUBjtqAy2MgbOQ6dQonRkUt6hoOoIk6WvQh9dhEJKYpCnYYJIzp7AUq/j1hJCbqaJqTKg1iiOuLpNjQo0aElQRIVquEhsI8//jixWKzHfT6fj4qKCgBWrVpFbW0tZWVl3HrrrVRUVFBbW0tTUxNOp5Pp06eLT/8piiw8+OCDA4prd/bv38/s2bORJEkM3mkWVyGyp55fvNbIttrgCR8nHEviCca5dHz6sBRYSTJhbI5i3PIpHTNn4Is0DHicdq/sIOMaFWqricKcKRhefJHY2DE05ejwKX2YHMWEDaDLycWFl4giSpAQppxCOhQddBAgY8QorCPG0EJ7j7+DBgU+pY8gIRy5Iwknk+Q8+zoagxlvtpmDzZ9jduSgkNwEdHGMmZm4Iw1E436w6ElIUaJRH0ZtNuqQCyQ78XFlqMIYh/HyAAAgAElEQVRBkjWH0Kxbh2LPDswffUIsv4ik2Y7Z6cUYiA/fOVi/35+6vW/fPgCWLl2aCgkvXbqU//mf/0mFjAUnn66oQnf0en1qrm/79u0Eg8Eegrxu3Trmz58vBu8LENcuurYR4eKTy1t7PCftWGv2eID8YTkOGqWBUGEuzTddfczwcO/6V4BYqAlFexuucd1qUfto5pBqm9j1Nz1/6B/1tyIKScgI+1G0t+Gxm6hxVclN/+ONaLBBNEwUX7fo25H6V4DMv6+FzBwSkQBKtwdGjSVSUYHano8TD/Ec+TXY3/sUVeWh4ZFFPGvWrKPu63KvQOpLvPt8a9fttrY28ck/RXTNiXcX11tvvZWlS5eydOlSbr31VvR6/YD7CE6PuPZ2rE899RQbN24UA3cS8Q0QGh4q3pN4rNOOVp4/jmgdQ9rNZtBiQEdE66Bp+fVEtI5jZukOSvCTEpakXGZjQJfqwuQrsqNM2tCpdPI/tD2aY3QnrrcgJfUkLGaieZko3R4U7W0oNn2AZt06qtJ8+LKVBDQQVQRpuOJSmm+6eng42MWLF6PX63n99dcBmDdvnnBBZwBd2cLdfwh1/yLvyiLu/kXeex/B6XGukyZNoqKiosd2wsmeXEw65UkT2TzL8JxGkSSTvAJONEhU0h+zPKd7/Wtcb4EkqX0NCjVFydzU44FkDI/CNWTRzSGDxr3vUTTmAvzt7SSNEq2LF2GIQHqHk6TNhjXbQppPha+1HU1+1lE9k7uyhd1XzkfjSeCxm5CqqnGbJFyOHBTEUIWdRHVd3aN8aHTS8KmD7S6oQlyHL70dreDUi2sXM2fOZOnSpcLJniIuGW8+aceaVZo2LMdAozSk6kSPVZ4DPetfAQwRyL7/CbTOZqIRH3+95TJe/OUSXvzlErY88UfS21UpN3os19pdmCPBJC//7zLeffLXpDlKUBYV4/e5eO+vf8SSJpcU1dUeYOsbT2NManocK6ExphYS0KMl7f31ZDz3CpbN2yl+ZzMlO6rQGY5O4ooooqIOVnD8lJWVsX///h5f9jNnzky52Nra2qNCwiK55uSxffv2PsX19ttv73ecu9xqbyfbfe5ccHx8faqV57e6TtqxhiVaKyr3AXn91iHMvyps6WiSErbd1fJj9iySLjnb+spfy7Xcu7a8xj9+toDr7vkAc7ossjWKhh49igPJGAaFGn97O0ZbBp7O+dSiKXMwp9tJV5vQt7ajysnG7fYw+4e/w2iyHnWuuenTU+U7zQk56mbcVUe8qBD02h7buvJ0qKLyjK8q6JadeKfIC4EVHDcFBQU9BDYQCHDvvff2SHLqnQQlBPbk0Z9zPZ4xXrVqlRDYE3adRi4elz5gGc5guHhcOrNKjcNyDKSkHu/8C2QHd4zVc7rTNf+qqqomXlJKVBHsIU41igZKp16Ka8Zudr77V3wtDVgnT6Bw2hzMmPjrLZdxzR+epWn3e2z426PY80YS8rm5ZPl9GGzy4wWzvkr77k/42pW/5tONL1C99yMAtgGX/3QlbioBUOuyef//fofRZmbivG/J9a9h5DVmF11F6+QRaNRyVYuzwI7PYkSFvGSfMuJPCawBnRBYwfEzc+ZM1q1b1+O+QCDARx99NOA+gtPDsmXLUre78hb6CymLZaFPDn9anM/Zv9973HOxJp2SPy0entnDQ1k9B46ef5US8vSRZ1R5n9tHFUHMpePwHPqMiZd/g/VP3EX5tPm4D+3ClJOP1ZDLU4/+nu88voFAMkbTtrf4+Ok/MO/mP8kutrSIK0d/FfQSUxYsYcIlVwDwzM+u7tFs4v3/+x0AE+d9i+ZELZpkBpq9nWveBiNkvvJqalvLZjh03RUE+jhfQ0T0IhacoIMtKysb9PZlZWXCwZ5Ees+nHouB5muHeixB35j1Kl5cVopJN/SvVpNOyYvLSs/4BhP9oVEa0DqbkaLBAcPD4UiU2sb2HvOvlqQJg0JN+MqvkZxY3O++CZ8bo81MftZ4fI11+Nvb2bn+dSZdNJ/mlhq0afI8uEfhwlY0kfqq3ajU8pxqSeEcFGteJVKYw9aXHuH1P/2Ytx+4HU/LkVLOyl0fsmP9s5y76Nu44/UpJxrLlYhUVECLfF/SJmdIx0tKiRp6yqsq6JYzl2MWIbCCE2MoCWciOe3kMnny5EEL444dOwYUVxEePnlMyNXxl28XH5e4TsjVDUvXmtAYkTS5ZP7leWy7q4kkAv0Ka4vziFvUqXQUjzwLU40T06e70L74ApYXXyP/02qMCVkY09QmMhKZmDGxa/1zlE46n5aoi/K5i9m/4TWq92yg5Kx5GG02wh2elCi6O9zY80YeWQzAkUbLtVfRUFlP9Y5NzPvh3fzHzXeiMxxx3rmjp7Lgx/fzyoP/Q4Z+jPwak3rC9ix8Z5XjUcdI2hzsWDSL7dctYNec8aii/Xep+tKGiF977bXU7ddff5158+aJT/4poKys7Khkp4G2E5xc+kpa6h4a7qK/8ijRn/jUMKvUyH1X5fOL1xqOGS4eruIKUJwcT4O2ioBWD0nZ2bnGZaCKtKTaPIQjUbzuaMqxdgmrzVpAuj2D/E+r0axbR/LihbhGlWM+sAtp2w4UHTHCHR4+eOkhfC0NVO/ZwKQFN2ApLaeRViZccgVP3Xgpo2dcllp4ffSMy1j3wM9wlM/i4LsvUfHtH/d0l448jNTT3nCI3R++gu9Qz0ZEOo2OoilzqNm6kfXPP8zcq24kGvGh+2groVlTqR5hQ1VemNo+3tFByHp0pnRX1rEiOYwmX7q+OFauXDng/c8999xRc4OidvbU4XQ6WbFiRY+uTd3R6/XccccdYuGFU8hQynWEuJ4+djeEuHLloX5FdjiLa01NDTazPG/qN8RTIqcJt9ESqR1QWPM6lEhV1fguOA8pGkTp9dJhiuNqkutmVWlpFFNI5eENAJTWxtHnZyKp03ChwF+ej11hpPHQFowFxbRp5OfoqnltaXQzctL5KKxyu0n/tn2MNllotUJIqafVV4drxzZGjD8LAGNBMUqvF5+nnbS8DJJKIw17tjJmysWEdu7DtuYVmm+6mtqOytTccSgeQqfSkZF5dK/73PTpGAOq4eVg9Xo9wWCQQCCQauDvdMqTz92/vPtKsnnnnXeEwJ4i7HY7FRUVqUYgvamoqBDi+gU4WSGuXzwTcnW8uKy0T5EdzuLaG3MsDdQdBJIx/IoIrS2BfoXV8coGFO1txEtK8QGKhB+PxonH10FLqDN8HAK30o+lsBATatoKQVVdS8GBaqxuD/7yq/FG2ijwgEftxFyYT1QRxIMPw5izKB4DXkJEFC1okhKZhRYUf3me0PXf5mD7LgCsk6YQzZTrZX2hKtBAPFdDS0SO9ljGleBM+tGU6Wg1L8KviKDVSGRkSimf2r3UqDvGgDyPPqwEdvTo0Wzfvp0///nPLFmyBCC13uWxkmdEg4NTy/z589m/f/9RoeKysjLxw+YME1khrl+MyF67qpr6TvfzZRFXpUpNIh4jEY9i2rkLziqnNRHokcBksxZgU1hQWNOxvfsmCYsZ58K5JNNU+EMHcXdmG2s1Epl2eT7U644SiDcQ6NbpVmfW4ZxWhCotDVN7AxEga9sOMtrljdzTJ+O74LzU9gYFkJTDtZrde0jaHMRsEqHWLuF3oYnKRi0lk9Ej4V5fsgMbnS0fC/suO9Jqju64ldAYISGPzbBYTaeLkpISPvroI5qamli3bh3r1q3D6XSi1+v5/ve/n3K1Xq+Xqqqqo1zU6NGjxaf9FP8A+uijj1IrH+n1epYvXy6WCzyNFBQU4HA42L59uxDXM4hMk5qvT7Oyfp+PDJOatT8cRaFNM6xfk8fjIS1N7jgl7duL+l9voplxER24UYUkzJYcMsNqRn98AIXPTaS4EN/YUbSPy6dD0YYv2nrUMnZqlQq1SoXRKGE26dFp1cQjSmLJGLFkDH+sA1+gHX+4A+IKGkuyCI4uwZvjwJ9lRWXNIGvb51jfXIfS60evMJI023F8ugdvXgbNJglfoB0Am02PWtV/xrbSmIcO2ZhJ0SDRiJMY8WOOS5rahilpRaFUDi+BNRgMTJ8+HafTSTQaxWAwMHr0aL7//e/3CEGOHz+eYDCI1+vFYDBQUVEhXNRpuj4lJSWp1nvLly8XZTlnkMgKcf1i0UlKFk6y8PVp1mFbitNbYI1GPWqVmmQkTDTbgSKrALMyA3WamhFvb8b+0VaSVhsdZ08gZFQRCtUQCjYMuD5sb8HtLbZqpZpQPIQ/1oE/1oEz4cOnV4KkIxQPErIYUEbjmA/VYdzyKelxLYq8IgIzpuBqrcUf65AF1jJwO0qF1oLlsBP99p3E88x44u2DOudihVzHq5K0wyvJSTA86BJY8WX+xdK9laIoxRGcbGpqasjMsKHRqohHOueX25uIW7OIRYKE175NeNYYOhzpRIL1x2w8MVT6SqICOSxtlqxyKBk1Fnshtve3Qk42VaPSaW+T52D7Cu92kdAYMekKKHrxXfm1zpt01AIA/TFKfc4RkRYCKxAIBILjFVhlfS0Kg4bE+++gqjxEYvESEnkFeNQdeMKHBy1Mp0JsAXIdoyisV2LdvIGWb1yEK+k+pthHzXlkJDIpuPshIhUVVI6VBvUDQZJMFCfHo1SpkQ5XikYTAoFAIDg+NFoVigN7UDz1uOz8OsU1EY9iDKgwKKz9rrF6MpGzew0U5NgoyLGRaTelVuhpaDuAK0+WOu3He9Ho8479ujpX42m59ipc4zIG7b41ym75JjVVwsEKBAKB4PgcrFqlIstiIN7YhMIgJ21F020k4rE+96lW7CGsSKCM+E/LOdY2yvOmOpWOkbbyI3WxoYP9imZXeFhKyglOXXW9g6ErPKzW6FG8+oxwsALBmUrE58QXOUUHjwVwuwPExDCfQYTZurWVrb7hc8YffriBpuYWFPmF8PHHKJ56nEQ8hlrTd1lkcXI8oxPljFKfg1GbJZe0nEK6yn5C8RDtSbmJhe5w3aBcbO5Lb5K17XP8isF9CHu/lvi8r33xdbCbHlrGk7u6/lKisYzk4mU3Ma/keFPY63jpthU0LFjJD2aIj+zQh+8lbluxhiPlZ2rSyyq47oYrGGuSr9fm6WJsT85Q38aKNZ0jrdRgGTmXpZ3jDI28fe+dfHbe7/hpRfrJ+KTx0LLV5N5xF1fkAzv/xm1PG7jp3m8x5t/9Qmw+RO4LfayHYrWw9ucFjDttJ+Jj5UvN1FcYeeNCA9TXMvMBP5fdPIbb887MobvyawtYvXodeW1uyi9diGrMmJS4qjV6EnG5wrQvR5sbH9H1FUODqopIInDSE6G0GgmdSicLrKsWE2oKnnsFFi+C7Kw+54e7VvZRVR7CM6q8z77KfT5XUvarcm1wVP6hcSZcJMfFd3DXFflAhIY1D/D7B/7BiD8tZbz4Dv6CKOe6lT9gBkCkjR3P3McDD6Vx13//hxiakz7U17HyBzPkcX7uAR5YEeCW336TMnUO8375MKesg/ZZy3j4LDH8RzDw4B9KufKL/Sbksbscw2rUVCoDl18+nzVvvcX773/IeeeenQqLJnZuRKpvgXPOIW7N6hTavgW3u9i61W7c8ZOXdZxukQg5Q4TiIdwdbuIlpTjWbiB03dXQh8B2zb82Lb8egGho76Cepzh5RLGkTR+RaG040zo5aci9+HzKXlrNvjoYn+1iy9P3smpTCxFlOmUV13HDFWMx0dtJdbnW6+DJJ9kF8OQybquXhTtW8yb3P/Q6+70JjKULWP6jSylS0+3+GOr0Mub9YDmXFoklcnteEgeTKqZiW7GfA/QSWN82nvrfJ9nUEgFNJjOu+ylLp5iAGM3rH+XuF3bjjalJL5vHD5b3HnNxLY4a52/exGW/+QWvfXQFt842dHuP1/HSbY9QW2KhZouH8267iyuya3jz/od4fb+XhLGUBct/JI9XrJn1j97NC7u9xNTplM37AcvLt/LLzqjErhXLaLhuJT/Ie4nbHoXv3XUF+cRwbXmae1dtoiWiPCpi8XHWIsIbV3PIryT9rG/zi2UzMBGj5s37eej1/Udd4y8b0eZmbvxbG2taE0TVSsomZPHCNQ4c+Ln33kqeH1XMxvmdiTyBRi7/tZtxy8ZyV0mMretruHldkKoo6O16/ufqEVxfKEvQi0/s4m6jhfIDHl6XzKz9uZbf/6wZvlbOz5v2ctEGWYweeWAXb5zX+RxxL0/8pYHfHooSRMmIiZm8sDiDHBVAmDefqeaHuyP4YgpMGWn88b8KWWA59TOBF19yCVu27OGNf77NRReej96YjmSykYhUowhEwNopPIcrSWoMJPIKUoLbW2wtMQsWLKk+gyc6b9vVIarF6cMTdVE9uZjSl9ahO1yHoqiYpLc6tW1CY8TU2ag/KunRhNuG/HxKlQQHPkdZVHymzcFGaFjzAfv1oxidD3Wr7+aJyonccv9KHr5zCY6tD/DY+wPZ9Rn8YOUdXOyA8utWyq44sIXH71tP+tV38vDDv+VKwxrue3oP0MgbT7yJesGdPLzyQW6bHWL13/5FO4IexFzsXreVtoJSRvV4IMD7jz3GgfG3cP/Kh/ntYgef/v1V9gMcep57Xk5w2a8fZOXDd7JIu4aHnz8krsUxyWDyBBsH93zWx2NOWtRf5Y4H7+KK/ABbHr+P9elXc+fDD/PbKw2sue9p9gCHnr+HlxOX8esHV/LwnYvQrnmY58NXcNfK6yjHwcV39BHer1vN3U9UMvGW+1n58J0scWzlgcfeTy0ivXdXB1/7/aM8/Puryd/zIq8fAhrf4Ik31Sy482FWPngbs0Or+du/voxXrJ2fPNLK5yNz2fXbcmp+4qBwbxPf3RABjHy9XEvNHjddV8zzqZ8tJiOXl0Db+1UsejfOlUtHU/Pb0fy9LMqvHj3EX7oZs5odfrSXFvDJd7N7fL7GzR9Dw80WipD4/s3lnQIe5tknavmjwsr6X5dz6MdZnF3TxBX/lA9Y/04NN+xVc8ePxtKwooQ7rH6++2Qj1adppKZNG8+Fsy9i7TsfsGvXHsJ5hSQXXpMSU9nVforyuVWoXM0pMVKq1Kg1epQqNUqVuk9neKLztl01r6F4CLc6SeviRcRz7JiT1j6PJ0WDSNHgcc2/JuJRFO1tUDTizHCwbWtWsGxNp/pbJ/PN//4m46nh+S0+pl19FSUaQDOBqy4q5ZZPNhGYPXfwB/9sMzsdc7lrqhU1cO78c3njsX3UMQeNJoqz5jDtU8eTO/82HhXNnjrZxZPLlvFkZ8xGlzOd7yz/CrZe0YZp1/+OaWkWNIBm5jRKn96GC6j5dBeJs5cyx6EBNJx7wwrGhLXw2dviWgzmwxqP9xk+nFoxAasa4DM273Qw966p8t/nzufcNx5jX10N8V0Jzl46B3noz+WGFWMIawd+vpqNW/BNu5qr5A8aE666iNJbPmFTYDYGYPxlXZ/BERSYPDS0AaM0aKJOag63M3V8LvNve5ThfckC3PSzXdx05CuW7988htuzTfx8eSkGs550FWDJYmFhCz884IHzMsibmsaEtT7eaoNxjgRr94VwjHUwDR93fhSibFYJPxopf7mfs6iAWyoreexdH9d2Ol77WVk8OM08uFOsb+H+Qxp+9sssCjWA3cGvZrkYu8nD/vkmYv4EcYeJS+xqQM03F+aiPACK0xnkznGw+OtX88mmj3nlhZcZXT6JkSUFaHXyvKxy4TVE4lHZ5XWKkeaBP5C0OUh88/pOwZX6DSefyLxtdxdbb03DLumRokFMugLceh+qoJu43oIhDNn3PyGLsNU7qGObFGmdPxjk3sxJm4NwXuGZNQcb2PQQP1+dRVGWGmii2Wkit9u3usGgA5drSM6m7nAdidrt/PeyV7rdW049Nr5y443En36Bu37yCDGDCBF3H5/UHGy/qIk3vsNjT63noDtConO/c4CmZifa3G71YBoTdo24FoMPMamO9aamLlHL9v9eRo+RrG8Cp5aeQ2/nWOmCTc1OTD0/aOhw4WqHfrtI277CjTfGefqFu/jJIzEMwz5E3N8crIQ51M7yJyvlEHHX3WWd1Y02C/NznLy2LcCPLgzwr2oVX73WArSw36Viakl3d2SkPFPJ3S1BQBbYNN0QBqwhQg0hbvv1Lm7rfr9VRwwYd1Y60z51MnWFj3PHGVl6diZXzZSQTuGoBYMR9Pqj32FnzziHs2ecw4G9n/PGq6+jNZmZMmkS2dn2o8KpyaXfgcaWlLCqXM0k3n8HRhSjnDizh+D2J7aDmbftnvAU7+gg4v6cgpfW0bT8egIaiYjegiYpoWqUV2hLZOkIRVoHNQ6pc0FO7oov+S7yz5wz6S0+41Jmvng/r2y6hB/MyCbLHibQLSIcCITAasUG1APxWOyYLyE7KxNGXcR9P5579JeFdQLzbprAPCK0vfsov3niDSb/ZiE5QmEHwSFe/8v7aOf/kvvPd6Cpe4nbVjQAkJfrINz9wkV8OMNacS2OSSvbd7czcs4x8lazs8hkFBfd92Pm9hjIOl5a3fMzE/E5CWvtmDQDHc7e83oFAoSwYrUN/APLOmEeN02YB5E23n30NzzxxmR+s/BLdsUCLSx7tJWqqXl8erMVu0aeO72pmzBfMV7L7w548OSEWKs18mzJAIIUPcG2A5o0Vq0YwVf6eiwvl9W3Z7D7szZe+dTHT/+8D9WEHN65xo75FA3PAw/cwze/8S3y8vP7fHzUmLGMGjOWYMDHBxt38vGG98nML6KkuIjsbDuJeIyYMR3laFtqvjKabkMyW1G2e1Kt9VWuZhK1lTBmcp/ZyYOdt83INBCOSHjcLqwjzyJpc6B/6xMMC84mQhQDOszOJuIlpUMLDyeO/GBQ1tcSyXDIIe8z691cyrxLC9mz5h1aKWLmNC0fPv08lRGIuXbz/NpDlJ09AwNgtZg4tGUTPiBSuZHtKVurQqXqEl9QT5lC2aE3+fsWFzFiBA68xIP/2EM48D73fO82nj0QIIYSlQrBkPATCGkwOdLREKFhTyVdvx3zJ01A+cmbvNsWgZiLratWsOLFA+JaDESkjR1PP8gbHecyf9YxVh9ST2FK2SHe/PsWXDGIBQ7w0oP/YE84n0kTlHzy5rvIQ7+VVStW8OKBzs+FMklf0eeimdPQfvg0z8sfNHY/v5ZDZWczY4DTCLx/D9+77VkOBGKgVPGlvWSuMAcien64SBZXSBDtNYZ5U9OYUNPBz7YF0Y82MQ0APWXWOFsr/T0+MwddSYoyj3PpTLtEViTEu5Xd7ot3ueoIO7c383p9kgnlOdy+pIzNi414trtZewqHp76+kXv+cA9r3nqLeLz//Bi9wcR/VJzLt/5rGSXFRVRW1/DKCy+zdv0mPt9XSaDDTywSJBYJyiJ7fgXxOZek9k8GImjWrUO77u2UkHV3jL3nbgeat+3q+hQgRNtF52Het4u0Ni+apISU1NM8ZSwNV1w66DHoKs/pctnK51ahrT/cZa7PLEznV3DWy3/hlW2X8J0FP+Z6773ct3xtZxbxzdwwW/7Uly28ivG/+Ss/XvY0mswZTCwGeSW/HGadV8zbf72RX7T9it8snM0NN7fx2JO3c+PjXRmqC9Aa1NxwQyX3PPQTbgx13X+ZcK+DZiKLrx3H7x+6iWUJDQWzp5HHIZoagdKruPXyR7n7lzfxTGeG6S3Lx4MacS16s+tJli17EpQaMsddzM13zKPsmJ9KA7NvuJm2x57k9hsfT2ULL9CC+qpbufzRu/nlTc903n8Ly8cDTObcGf/g0d9+j7bvPMr3srsdLn8BP77ey733LWdtZxbxzTfMZiCZN8y+gRsq7+Ghn9xIqCuL+LIv4RXTq7ApQzy91sOcc3TUbKllRRUwsnu43ME1Re384jMl11xn7fom47uzdKxc18jKcUVclwtb19TzSKuO274zyNaB2RqK8VLVEsVrU5BeYue6HC//+2INFd8p4EJDiDWvHuZnIQcbvmWjeXcb32sMYfhOARea4mw9FCag02E/hcMzd+5XWL/+X7zxz3+yaeNGLvnqpZw945wB9+lytQDtzjYOHjzIho+3E434MZstPdytLKZqEtnZKG+5vWfw/oN1KLZtIXnxQhhX3kN0u4eTe8/byqpoJUCIUGE+7unyIhjmpHzttM5mwvYsAlo9iaTxmNnLFlUeXR1b1E1NAITzCiEeE60SBQLBvzmbD5H7Av3WwbbtqGbh8x1URSGzyMw3DT7uDVj5/Ps5qdCr5/0DjH1Xwwu/KGJWas8YW9dU8Z0PwjR1lun85KoivjtC/gX14hO7uDuzW4kPLXy7s0znr9NlV/qv5yr5r61REmOyqb02AyJu7v2/Rh6ujRFMKMgsMvPAtwqYbQLifp59uo5f7pfLdHqXBZ1sampqKCoq4sDez3np1Veor28EwGG1MmPmTGbPPhe9YfB9iOPxAI3Vh/ms2om7TW5NWFxcTGGBHaPhSJBbzjaWSMSjSIcrwWJJ1dmq3n2LhMeFcvaFx6y97X4sAJVCAXt2oljzKs6f/BBPZ0wuQAhDOIgv2XGU2Bq1WSkBV2v0cnZ0YwuMn0g0FhECKxAIBILjF9guPtn0MevfXZ8SWnVSxZRJYzjnvNkpxzoUvK4O9h+qoba2MuVuR+TYcOTmIUlSSiDl/ztFsmof7N3bo7mF6rNdoNcQHzH6KHebEsaqfdDYBDnZUFNFfM4lqXD1YFCq1GgVEHvtBZRuD4waC2PHCIEVCAQCwYkLbBcH9n7O+vfeY3e3em6DQUfJiBImT57MyJEj+f/snXd4XNW1t9/pmtFoiorVpZEsyZZsudu4YbDBdGM6oSfElCQEvhQCCdzEJLkXuAkkpNADFwgkQIDQu42NG7gXyeoa9a6pmtH0748jjSSPbMtywb53v8/jx9KcffY+Gh3N76y1V0lMOvKKVS3NzbS0NGO1WqPWbUayCWNS4gihGy64ALK3/4GirpbIt28ZEl1bBwFD4ojIZfZXoG6nYdQAACAASURBVFowk3CcGb8vFLV8Dy+uUmBTZNsG5MaBLYIGK7LebiGwAoFAIBifwP7zn69w2cpLRrVQnTY3W3bsZue29VGrdpDMzHSKiqYytbiA/MJcFArdEa3t9bhobmymztpAZ3MDyWlJWNIzSc7IIk6rGSG4w8UWIOj3EvfXR4gkJhO66XYAVOEA4YY6WL8WJqTD/Plgt4PJBHZ71PpV1FcScA1LFJ0yB7lChfIPvyWUPxHliisIyFUoZDIUarkQWIFAIBCMT2AfeeQRAKZOKeGCs88ka+LorSOcNjcVVfuo3LubsppaKeXyAOvWUlDKnBmTxmXddrd1U9dYE7VuTcnZ5GUmjsi7HW7dKmwdRDz+ESUbdXIvgXWbwOuD3HxkH79NZHIpdLbBxZcSMqdKLejsjqGFB15X2DoImVNj3MpCYAUCgUAwLoGtrNjPJ59+RiAguVMLci0sPON0Zs+ec8hza2trqK2pYeeuXbS2jrRuk8xGJk0upmTKVIoKitBoNUd0XT6vj+bWJmprarDZbABMzM8lK3MC8bqhzlRy5QHh+nI1SrkKRSRA2NlKaM0XyC+9iWD4EK7i8FCubDgYG0QlBFYgEAgE4xLY3Nxc+vrcbNywgbVrv8DjlSw4gyGB0xcvZtHixcTH6w85T1+fm4qKCmqqq9m1a3d0DgCVSkVhYQF5FgtTpkw9aEGLQ9HT04PVWk9NfTcEbZjNZvJzMklMTkKljM2J02p0+Mv2oNSpCVgmE/Z7xv0eCYEVCAQCwbgFdrjluH3HNr7c8GXUKpXJoXhyMaVTS5k+Y/phxRagwWqlsrKCyrL91DZZiYSHjhkMCUydMmXc1u3g/C0tLTQ1ScUgJuZmk5KeRaJRF7Vs5Z98iGLRXALxyaNapkJgBQKBQHDCBHY4tbU1fPbZZ+yv2B8VyEGxPRJrdLh1u6+sDKdzqNawTA4Tsy1MmlI8buu2r89NXV09ba0t2Gw2srNzmCbzoF77Gb7v/+So3yMhsAKBQCA4pgI7XMD2l+1h+849I8R2uDVaUFjI5MmTx2TdtjQ3U1a275DW7ZHMdyA9PT34OlpRle+lOj0XTZyGvJyMUV3Jh6OjvUMIrEAgEAiOj8COxxqdWFDAxIkFh53P5/VRVVNFedk+Kiv202NzjDrfpEmTybVYxmXd7i/bQ21dAwAFhYVjEts+j5N1X25l81dbhMAKBAKBYHwC29XRQq/Nyew5c0lKOrKqx4PWaL3VSnV1TTQSGUCn1WLJs1A6tZRJkyePae7ulm527Nt20PlmzJjOxPxcJheUok9MOKJr7enpob628pBi2+vwsGXLZrZu204gEEAmB5nVahUCKxAIBIIjJhgMoFQo2bJlMwCLF58+rr1Qn9dHdUstZdt2Y21oiEndSU0zMjFv7Kk7h7Juk8xGnG4PKSnJWHJzKZkylbxMy5hFNxqVXF0dfa2ztX2Ey7qkpJizly4RFqxAIBAIxmfBJhq0w0TNz469kkVqMhqPKtK3p6eHyooK9u7bi7XeGpO6k5uReUTBTcPns9vtIwRcJodIeMhqNhmNmM1m9PoEEgxDebN+vw9fv4+mpkbsDseo11VYWMDChYuwZEklGYXACgQCgeCoBXY4fR4nddaOaCpMQWEhFkveEbuRo2uNIXVnrMFNg+lEe/ftjXElHykGQwJZWVmUTi0lwWCgvGwfZrOZaVMLiNcZhMAKBAKB4NgK7EhB89PQ1k5Pdzc2m1ToYWJBAVkZ2eOybg/l/gXIyEhn5owZYw6WGtwLPrCqlE6rxWQ2YTKZADAZpZZ5ZrOZ9IxMMjIyRn1gqK2tYdvWrZjNZiGwAoFAIDh+AnsgnV3ddHTZotZtdnYOubm549q7hZHu3wMt0kG3benUUlLTUg8ruD09PWzftpVtOzbR0e6IznHO8rM559zzjui6aqvKhcAKBAKB4MQJ7HACwSCtza20dg5Zt+kZmeTn540rj3V4HeLhFmmS2UiPzRHdv114xulMLSk9pAW9r6acjZ+vp7x8f9Qyvv6668f8IODz+oTACgQCgeCbEdgD6XV4RpQxzM7OITMzc1x5rADuXhcVNXtHLXQhk0N6muROnjV1DsmZo3fxabBaefkfz9HR7kAmh6uuuIqFixYd1gpeu/YLIbACgUAgODkE9kDrtqW9J1rGEKWZkkkH3/sci0W5bv1adu7aRVt724gSjgAJeilYajSXtc/r499vv8mmzVsAWHj6+Vx9xXnRY+0dbdEgrJoG65CIC4EVCAQCwckmsAfS53HS3NIZLfZwNMFSwxsTjCa2kbC095qSkozJZJICnJRm7D3WqCVsMCSgUsjpdThGWMYqlYq5c2azcPZ0IbACgUAgGJ/AJicPWJIDfVGPpvPMkdLZ1U1tfWO05+t4U4EObLcnk4NWox2R43ogg7mzg4KcnpaOJTeXgsLCYXu7rUJgBQKBQHB0AqtytRJs6iZUUIBcrTvhgjtqKlBeDlnZE8ds3fb1uXnv3XejbuCCXAsXXHQuHl8Il9OJ2+0aMX5QkEtKirnttttj5vP7qoTACgQCgWB8Apue5iMQzCCyezPqtZ8RCQQJXXg5kZJpUZFFroaw/8Rat71OOto7xpUKVFtVzv+89ApOpwuDIYFV3101apBVS3Mzf/nLX/B4vZw2vYhrb/7BiOOB4CYhsAKBQCAYv8DKFN3R1yKVanwZOcjVOuRvv4KivpbAVTdDRubQiSfYuj0wWGosqUB9fW6ee+oZahqsqFQqbrrpJkpLSw8pshdecH40VzYSduMLbRUCKxAIBILxCWxuruoAMbMOiW0omeCeYW5jQP7R29KxnDwiJdPQyCAkU6GIBPCFToyV2+dx0tzYTq/TTZYigoUw4VlLRi32/+o//8GmzVsOmZ6zr6acZ//6FJEw3HjjDcyePQdopT9QiWL16tWrxa0iEAgEgiPB4XDQ39eJ3jAkTAq5KfovFPJDug21xolC2QEyPZH+CLLOFpTbNxOcNReVUoV/10ZCITlK0wQicgUyWYRIOHzcrlut0pCcnERubjbJdVXQ20mFQs2X69fhdDiRy+UYBor8T51aikIuo6qqhrKyMowGA9k5OSPmm5CYgiHBQFlZGeXl+5k9ezYqdS0RQsKCFQgEAsH4LNj22n0EfV6UGi056akk5RtQa0Z3uwaCVkIRHwqZhkgoGXkog/5dm1Ht2oXM1o3yrnsIy9X4IlLQVCAh47i6kwet6uFrWJs7oq7k4fu2mzZu5NXXXkMmhxuuH7RSR/LUU09SXr6fkpJibrp5EiDyYAUCgUAwToH12TsACAYCeL19BAMBgj4vBrOZlGwTaZnpo57r97kBCL3xBWjikcdpUCw9D18EaG1B+fLTyFRKgqctIbLgjKETj5HgypVKNAo1Xp8HrUaH1+eJGXOg2Da1udj05YeoVCp+eMcdMYFP7l4Xq//rAQKBAN/+7iKKi1OOjcAGwhFcQfCFIgi1FggEgpMPGaBRyEhQgkouO6YCGyOgfT76+p1R69ZsTsSSnkSltQmPp1+yds0GVAnxBFx9+OsaUM/ORaboJhJKBhv46xqQq+KJlExDZa0gsm4tobmLpAjlYYI7HrGVq3XINq9D1tmC/NKb8Pc7Djl+UGwH6xsbDAnce++9MUFSg5auOUnHvT8/B/mxENduX4R+Ia4CgUBw0hIB+kPS53UgfHw/rdXxGsxJKaRk5GA2J+LzedhZXo3TZsNsTsTlD9Pd1Ev32k04tu1GbTQTxohKKVmFygl7Uc5VopoJcqUDX0YO5OaNWENlrUD21Wbk3TYpalmpRK5UjvkaFVXlyI2JBMOH7wdryUplwbxZ3HT9FSSZjTidLp576pmYcQsXLSI1zYitx8PuHe1HH+TkCEBQKKtAIBCcMoSRoVUcnRXrcDjobrGiiChRqA8hbDI5SpUGrS6e+AQjyOTI1Vo0yUYi6elE0tNxhuXU7CunoaIebYKOBGMxSkUyCrkJaECmbkNRYEY+IZlwUAMyBZHWVhR7dyDfso6IOQkmZKByd6AM9RPRJSKTRZDJ5aMGTKk9XbBuHbJFpxM2GMYcVKVWaZg2bTI7duylo7ubmv0VxKcYmZCYMjRG3c7evc10drlQHu0vyhcS6ioQCASnEtLn9tG7iXdVN5FnsWCJl6ol2Xq6cLtdhDQmknRytNp4lCpVrMD7vQQ8ClQ6Nc7uXr7++E+0Neynu6UOlToOY0oGM5acyxmXfBu1xsIff7ACR1crv3xpHdr4tfhDiShmaghOuxaFrY9IvNQJJ7TmC+RVlXDdrdHcW7laPbgo4WBQsnJ9EC6aRDgn/4hdzPE6AytWrODV116jobWF1tpGyrbtprQgh5LZk5k+K413342jo91x9AIr5FUgEAhOLY7V57bJaMSoCkW/d7td1LTZATv1A6/lWSxY0hIBcDntBAMBFFojhB2Ub1vHmlcfJhToB2D59b8iOWsWWz58jI9f/AMdDY2cfd2P6LCWS9ahRg8sIC66uWlFMaGNcCgRhUyDf8UVhNu7IG3IolS+8IQkvkUlyBecgVKuImKMR3XJtfhC/nH93KUlhewtKaa8fD82m43lZ53B/7x2M3bZHGZNO4vSUgubNlUc/R6sQCAQCP5vMrN4IuakITEzpmSRZ7FQkC51oElQhUYIcE1LD7uqm9i+Zx9vfvIia159GMuiS8mbvkwS7NRSNAotBaWnA6CJT6Klrid6fkX5Pvzt7uj3KqUFuXwBcapJRELJaOPXorC0otZWIFdKgUuyM5YSTs1AUVVO2O9BEQkQ2rcdediPRqE+4r3bQc5aIhWd2LptO36/h27HdiyZUgDW3AVpkriLW0QgEAgExwKDTo1Blwgkkg3AxBHHzWazZE16eqnb/E9yShYyb/63SDCYeLFmB+vf+CWhnHl49n5E3vRlhJPmE1HqoucHnAp2tlcT3Bmbezuqdatqw1+UiHJSHn7v+cjl6uhcwYY6IuvWoszNI3jmeZIr+QiiklPTUikZsGLXfPwxcZo4EgceNjLSTZiTdEJgBQKBQHBisKQlYklLZMN770bdwgn6BFxOOwF/v+QKHnAHe6fPx+5wwIBUA5RbOwFI0kQIy/XUWa3UWQfE/YDcWyki2RIVXEX8Wkncw+nIp00k4FcRmWFD7pHcxCpXK8F91chzC6T92zGI7aJ5cygv38+uigpmLZo/4ljxpBwhsAKBQCA4sfS0VgJQv3sNf28sx+e2RwV3EPvWL8i6fCaGOMXQaw7J7WsHwAnA7GlTMWhV+PrdlG2vZt/XlSQYjTGVpeTyBQP/A9Sijm/DPzcRhSwev9dPwBVBWVUOG9bAhDRkZywlYJl8SKHNteSQmmako92BhlkjHyYsJiGwAoFAIDixOLpao197bO2jjunvs6PoboHJQwK7dN50nP0hep1uFD473Z4IBp3k9tXE6alpq5YGdjqptVpR7E4ky6g6rHUbitsNFpDfuohgrxL51sahC5GrgYNbsqdNKeGd9s102kfKaW6eUQisQCAQCE4sAX//YcfozGlMOe2qkS/KFRh0igP2eSWCwSAF6Sa6PRHsDgeugAIcDmYWz8Lf56Ohsp2339uKyWgkWScjOzuXjMJs9Ho5capJ0XkiRjeyc4P46xOkmsgDKUAHI5Ik2dPW/T0jXm9rdwuBFQgEAsGJJTkzP5p6cyiURxDdq1SpyM7Nl0Q3EsHpDSALSjWG1fEa+mVGoAm7w4HdATVtdhJ27mBSYSGZ+Unojam0N9lIyuwjXpOM8tO3CRaVwGmHFtjOtp0kJJhwubxY67qx5EvjK/dbhcAKBAKB4MRiKVl8UIFVqOKYs/xGJs++GGTjLIYhkw24joeihg06NYtKp9DX78QRUGCz2UjWydBq42mp68HWXUltp7SvWzq1lNmd7fQVlqA7zFI1DR8wtfSHbN7UQoO1NyqwFZU2IbACgUAgOLFMnn0xlV+9j72nJfpa3vRlFJSeji4uh1RLHvUV69iz4XV8LscxW1cdr0Edn4IZosUvABJUJuy2XvIsFmw2GxFnGwC2lGTiBgKcOru6qa1vJGNCMskTTMTrDPR5mgCYVGxh86YWyqq6OGNZEa1tdmw9nlNHYFvdUkHmDL1K3J0CgUBwCqPRJnDGpb/mvRd+EI0ennH6d0jJkJqZf/rqA9TvXnPiLigcQq9P4LRl0wgErbgbJhD2+EjOHNrl7eiyUW+1Um+1AlIVq2BoH5lps7FYjJJONUj7sdX7pXSik1ZgXf4Q71Y7ea/KTlWvb8SxokQNFxWZWFFoIEGtEHerQCAQfAN0tTai1GjR6eLQxOmPyKWbml/A8usfYv2/HwKkPNZBsWss3xQzvmThpcdPb9wuctJTCQStBEO5qNOMhM9biWZYik5mZiZqeYRep5t6qxW7w0FQtY2Z0+ei1aoxJ+mw9Xiw27yUVXUBx6Dheqs3fMx/2LUNbh5Y34rbL81dmKiJCqnLH6J6QHD1ajm/WpLB0ly9uNMFAoHgCMjQHl2l3IaGBnJzVbS3tNHVZMdps6HUaFGqVAct8n8w6xH5SEOpvnwNG99/Cp/bTnJmPjOX3kpO4czj9l7YerqYuagQpWov3r6lKNevIbhEKt94sBzYXoeHp16Zyx03/5XEpBReeP5rystaufba+fzjn1tOTgv2nWoHv14v+b8vKjRy66zkGLdwqzvA0zu6ea/awd2fNfPLJelcXGgUfzECgUBwgknLTI/ml/p9bnrqnDS2dQw1Wx9Wq3hU5LFeyLySZeSVLDvia5GrtYT93jG/PkjQ50Wt0dMfSETVWEdk62bCC5ccci2vp2pEeUST0QC0squimUgYcgtSTq5i/2sb3Px6fRvxajlPXpDL6iXpo+65ZuhVrF6SzpMX5BKvlvPr9W2sbXD/r7hZt1fUsr2i9n/NH1/WilWU1TXFvF5W13TQY8eaA9e68YHHuPGBx8Qn4zD+tWYTC1fde9Tz1La0s3b7XvGG/h9FrdGTXpzBactmMmvZAoI+7wlZ15CcSHJGFjKFguSMLAzJUgBTYkoGGuMEZGotyRlZyNXa6DnJGVkkpmRgSE5k0vT5tLd4iISLCHr8MCENufrQ8cPWxl0UFQyVRzSZJDntaXUBMKUo5eSxYF3+EA+sl6p7PHJ2NnPStSOOP7WjG5kMbp05lJM0J13LI2dnc/sHDTy6pYM56dqj2pNduOpeGju6o98XZKXxwK3XcMbMKWOeY/CD+8Vf3TWua3jyrY9p7erl/UfvP6bv79Fel0AwFv79xVc8++5n7P/nn8Wb8X8cR3c7cXrDcV9Hq9PT3NjO5+s3YMnNpbJiP5defiXpKRns2LuPnbt2YTKZALjysovpbm1Gq9OzbcceAPJzMnnl1ReZVJyO1ergitMXkz53EYQP3cqupWcTxZOnDhNY6Wft7ZFybwuLJ5w8Fuw71U7c/jAXFRpjxBXgmZ3dPL2jO+b1OelaLio00uYO8E6186iv4/ZLz6X53WfZ/fc/cM05S7hx9WP8a82mE/Y+PPPz7x9zcRUIThQ/uW6lEFcBAF1NdjQK7djGtjZi6+nC53VJe7JHgEqnZvPmrVx4ztlccO5ZzF+wkPKyfWgTdKxd+wW33HwjV152MQCtza3I1VriTSa27djE7Dlz+fDDz7j26iu59JKzuOKKK/hgy1bUU6YdttB/bcNG8rMXxrweCAQwJ+nISDedPAL7XpUU3nzrrNGrZjx5QS5PXpA76rHBc94fmONYkGRM4LZLz+Gn163kP57+B4GBNzsQDHLLg4+Td+ntZK1YxZnfu59uh+QSyFqxijXb9rJm216yVqyKzrVuZxmzb/opWStWUXjF9/nza+8f0tIc7r78cNMOiq/+IVkrVlF89Q9558utBz33YGMPdl1t3TbO/3+/IWvFKvIuvZ1fPPH36LFBt+pDL75J7spbow8ZH27awcwbfkzWilXMvOHHbNs/0p1916N/I3flreRdeju/fe71I7beC6/4PlkrVrH41l+wp9o64vg/Pv0yenzmDT9m3c6yoZu9pZ0zv3d/9Ge569G/jdlrcd8TL0e/37y3kqwVq7C2dR7xNd74wGPc/+TLXH7vw9Hf9Yebdoxr3Xe+3DrifR4+z+Dv5mD3zW+fe51r/+NRzrnzgZhxg3Q7XCy+9RfR+TfuqRj5IREMcv3qP5K78lZyV97KXY/+jUAwiLWtM8a1/9y7nzPzxp9E1x7uau52uKLvR+7KW7nlwcejf0tjuZ8Epy5Omw21Tn3YccFAAKVGy8ySQjQaHTZbb1Rw/X2+w54f8PiZNKWYtWu/pMHaSGXZfkqmTKW9sxeT2UQ4EKbPbifPYqG1sxu9QUtLew8JGjNxahmegA+9QYtM0U1aWhqtnR2EZIcO0Gpp20WcJg6TeegBwm4fMvAmT5Iiok8aga3u9VGYqDlonuucdO2oli1Ie7KFiZqYdJ5jwY0XLMXV543+4f/0Ty9Q2dDC7r8/Sv1bT5KTlsLtDz0JQPO7z7JsTinL5pTS/O6z0i+iq5cbVz/Gj65ZQfO7z/KP3/yE37/8Nlv31xx27ZauXm5/+Enu+84VNL/7LPd95wq+/99Pjfrhf6ixo11XIBjkgh//lvzMVKr/9TjrnvgNb637ip/95cUR827bX8unf17NhYvmsKfayu0PP8kT99xG/VtPsmrlcq795aM43JJL5M+vvc8nX+/ivUfvY/ffH8XpGfv+y3Pvfs5jr77HS6vvov6tJzl73nRW/PS/og8vb6//mnv/8hIvrb6L5nef5fbLzuPG1Y9F177oJ//JmbNLqX/rSTY98yCffL2LFz/44rDrXrBw9og9w8+37qEoJwNL+oQjvkaAlz5cxy2XnEP1vx7n6rMXcdcf/nbE627eW8kPf/8M9998Jc3vPstPrlvJLQ8+zua9lWN+P9fvKue8BTPZ8reHRz1+3S8fJS3JTPk//8QbD90Ts+9/0wN/Qi6TUfHaX/jyqf9ka3k1D7/4Fpb0CUzJz+atL7ZEx36waQcXLJg16jqX3fMQ8do4qv/1OFv+9jCVDS2sfuZVgMPeT4KTn/aWtlFf9/sGYmLGkLbj9faRk56KOk1P0cxcTls2k0XnLyR3UhoRuT8qti6nnWAgMOocU6ZMxRPw8ebb76CO15KZloTH40Wn0hCMDNU9ttlsqNU6ysv2Mfu0ebicvcycMYPXX32X3VvDvP3qC9Gxh2rCfuD+qySwUtaLTC4VnjhpBHawiMSh9k/n/K2COX+rOOjxwXMH5zpWGPW6AQGTCjn//KbLeO+R+zDE61AplVx8+ly2llcf9PxEg56NzzzI9eedIf0cxRPJTEnk8617Dru23dVHKBzmvIEPr+vPO4P/vuNGZMiOauygYPV5+/njj25Gq1GTk5bCo3d+h1c/3TDCwvjbfT+gKCcDrUbN7195m6uXL2b+1EmolEp+cMX5xKlVfLFjn2RhfvIlt1y8nNKJuRjidfzn7deO+X1+9u1PueXi5dG5V6+6molZaTz5xkcA/M97a6JrA9x26Tlce+4SKhtbCASDfPqn1dz37ctRKZWkJ5uZW1wQva5Dcf35Z9DY0R21yNZs38tFi+aM6xoBrl6+mPPmz0SrUXPNOUvw9Puoamo9onWfePMjzlswk8uXLoj+Li9cNJsn3vxozO/n3OICfnzNxWRNSIo5VlbXRFldE7+/8yYM8TryM1P53uXnjTi+flc5f/7JLdF7Y9XK5Xzy9S7pYWbRHNYMPBwEgkG2lldzyZmnxayzeW8ldS0d0XnSk8089P0bkMule/Jw95Pg5KelroeNH27iqzU7qdrdjL9dEtaeOueY91+DgQBJ+bFj0zLTKZ1fzKLzFzJzUSEZyYm4nPao4A6KrTbewJuvvc4FF1zIj+66gzyLhU8/X0ei2Ywn4EMpi4vOmayToVIqqazYT2lJIS11dSw5cyZXXr0EmTqO0yZPJ8GoJthsRdVYh1ytk/4plSMEt7b1c3KyJo38DHYMWbCDhSdEqcQjFtx47nz0WT77es8IIToYWo2aqsZWVt79IB29Qy7sYPDw+wxT8rOZNSmfud++m4Wlk7jpwqVcedZCVKM8WR3JWIAKawtT8rJHHJ9WaCEUDlPV2BbzgAFQ09TGmm17eeXj9THuRIDGjm5KC4bc+KojKNTd2NHNgtKRN2yxJSsqTh29dq5avmjE8Qe/f330a7fHy/W/+gM1zUOtr5bNKT3supb0CRTlZPDxlp2YEuKpamzlsvvnj+saAQw67Sh7MqEjWremqY1VK5ePGD81P4d/fPLlmN/PhPiD733ttzahi9OMsNJVCsWI4wBTrrlzxHk5qdJWzGVLF/DwS2/R0tXLnmoricYE5hYXjOJV6SEzJXHEPbRw2mQWTps8pvtJcPKTYDCRYDBBOITLaeeruiHPnC45GSKRQ1uxkUg0ReZQSNHJUoQywPYv9xEK9qNUqZCr5HTaeshMS6LP42RiXg7/2rWLi1aswOeVvCHxJhOVZR9z5vKz2VtezaTJxfR5nPS7ncSplSQmJ5BszuCNd1/itCklKKv2wq6tqL77XQIJGUT2bkdtNKPMzcc7UDmiuPD0EdfY09MHwIQJRrRa9ckjsINuYbc/NO45XAPnHutSioPuqswUyRK47aEnsLZ1su1/fkeSMYF/rdnE//vDcwc9v6yuiRsfeIyHfnADV5+9CJVSeUTpEO/8/hfsrW3g7XVfc89fXkShUPD5Xx4Y8aE1nrGj0dd/+BZS99xwKT+86sITcl94ff4x/44uvvtBrj13CR/+8ZdoNeojSsO5aNEcPv5KErqDuYeP9hqPdt2+ft8J/ZvUxWmoev2vox7LTElkSn42H2/ZyfaK2oO6h8fCibyfBMcRuYIEgwlPdzepljxcbhf9bie27m40A2I7WvEJv8c/VMHpCOh3O0kYKKvo93s4ffFinnnuRUwmEz29rZxz1nn4PE7OXn4ujz/9NGaDGXW8lvz8lemb9gAAIABJREFUPJ576hnOP/9snN29mFPSaW+1sebjT2nqcmEymbjk4ksJBvvomF2MLiQnIexHYa0nUvURgQlpKHPzOF03NSqigwxGDxfMzBx6W06W38/gHup4XLyt7kB0D/dY8+IHa0mI1zKneGL0qfvOqy4kyZggPW2HDv1QsN/aRE5qMtefd0bUoguFx1b9ak9NA+9t2EbpxFzuv/lKvn7+v3H2efh0wFU33rEAky2ZlNU3jbAWapvaUcjlFOWkj/4glJLEup3lB7U2clKT2VvTMC5LJCc1OWaP0drWSVG29MSammhiZ2X9iOP/Xv81DW1dNHf24On3sXrV1Wg16jF7CIa7dcvqmnj1sw0HdQ+P5RqPlIOtW5CdzldlVSPG1rd2UJCdfkwsvWJLNp5+34i9/OH3cW76BDz9vhFxAgeuddGiObz75Va+3FXORYvnHESIk2jp6h2xp1rb0s57G7aN6X4SnGKEQ/iGiW1KRg45+QUkZecSDAToaWqgsa6GrtbGaLRwX7+TlGzTES0T3d8dwNndS35OJjddfwVnn302N994Izp5hLINX5CsV/H9W2/l4ssu5crLLsbrsHPNt67EZDTjctpJTI8jLVPHOeet5I477uCW664iGOxjY+On1PTsY499O3vatxJeeS2qn95HcPnFOL1+ClWxD5VxcQpkcphTIj0oe73+k0dgLyqS3uTRUnEOx+A5g3McC3ocLn773Ov8/uW3+c2t10TF0WzQ8/JH6+lxuNhRWcd/Pf/GiPPyM9No7uzB2echEAySbDTQ2NHNR1t20uNwcd8TL9PS1Tuma+jotfOD3z3Nmm3Sftf2ilo8/T6SjYYjHnvgda1cMo94bRz3PfkKXp+fxvYufvHky1y9fPFBXbu3XXoOW/ZV8tRbnwCwt7aBWTf+lLqWDgCuOed0nnnnU/bWNuDs8xzSsj+QVSuXR88NBIM8/NJb1Da3c/vA3uC3L1rGq59uYMs+SeCeeusT7nrkWUwJ8ZgS4lHI5fz1Xx/S43Dx1FufxETFHopBi6ysrolz588c9zUeKQdb93uXncdHm3fy0ZadALyxdjPvb9zO9y6T1inKSUchl/PHf76H1+fnoy07WbejbMzrTsnPZkp+Nj/90ws4+zzUtXTwyMvvRI/PLS5gSn42P3nsedq6bXh9fu578hW+9/BT0TE3XrCUHZV1ADFu80EWlE4iPzOVHz7yDF6fn7ZuG9/5zZ+jDymHu59e/mg9tS3tQrhOEVxuF9q42KhhpUqFOSmF1PwCcvILiNMbcNpsdFjrcfU2Y3fX4e1sHvM6vd2umP3dtoq9ODu7CLl7cXb3olSpSM0vwOd1Ubl7C837t7Fz83pqK3bTbq2nt6uVfrcTY3Ia4fBmtEZJO7wyNY2O2gO8o3Y6XA30BYKQlsIG7S7a5o70CtptXlyufrQaLRnp0lxWq+Pk2YO9uNDA0zu6eK/awUWFppiI4Vtmjp6+s63Ny3vVDtL0Ki4uPPqk5iff+pgn3/pYsiSy0nhx9V0jCk288Ku7uOTuB5l+/Y9IMRm48YIzeezV93C4PRj1Oq5ctpA31mym5Ft3subxX3Pm7Kncc8OlfO/hpwiHw5wzfwYzivLGFGG7fN50HrrjBn7wu6dxebxoNWpWr7qaM2dPPeKxB15XUXYGHzx6P9f8xyMUXvF9VEol15yzmAdu+dYhr+fxn93GPX95kd889xpajZpf33YN+ZmpAPzwqgupaW7noh//J3K5nO+uOGvM7/vNK87C7urjsnsexuvzY0mfwBsP3UPygKdg5ZJ5eHw+blj92IjjRr0Oo17Hk/fczp2PPsuDL7zBaVMKWT5vOj3DonsPx7mnzcTV52VKfva4r3E8jLbugtJJ/Pmnt/CjPzzHKo+XFJOBx392W1TIVEolT95zO9//3dM89up7FGSljdj7Hgsv//rHXHL3g5R8605STAbOnD2Vr/YNWc3//u+fc/2v/sD8795DKBzmtCmFPPXz70ePG/U6Zk3KpzDn0Nb7mw/fy20PPj7iHlt9y9Vjup9++z+vs2rF2fzkupVCvU4B+t1jC2yK7tsOWr02D3taugj6GjGbQiROTCDRWHDQfdmWuh602vgRlvOgm/pANNoEUrQJ0XE2Wy8ORwfeDj/aODUa1UA0fGsLqteeI/D//gO79+AGkK+/n627n+fM00d+tjXUSy31LPlD7u7qVtvJVex/bYObuz9rRq+W8/tRqjmNJq4//awJtz/M787OEkX/BePmxgceoyg7g/tvvvL/xLoCwbEo9u+zdwx50epqSM0vOKo5g4EAXm8f/W4pIjcpP0JqejZmQ050zMYPN0Xb2gG4nHb63c4Rr41ljdmnTyUQtBKK+Aiv86CoKsd/zU1sbl0bc86cCaejUippadvFu1/cww9veXTE8Rde2Ub5jmZWXFXM4nnSg/Cjv197ckURL83V88sl6fx6fRu3f9AwpmL/AL9cki7EVTAuehwuyuubWLejjF/fes3/+nUFguNBMBDArzj6HUelSkWCasDCjUTw2dxUtfQQ9DWjTAxgNClRanTjspwH8Xr7yMyXglZDER+ES1BUvQi5eXT5umItbrUpum1W07SWkqLYmIOmammbcmphzsAafjraHSdfms7FhUYS1Aoe2dLBe9UO3qt2UJSoIUEz0K7OF4oWlEjTq/jJ/FQhroJxc/efX+DzrXv46XUrjyh6+FRdVyA4Hni9fcSpjrGcyGRotAloBly8wUAAR4sdt9uF3+FAHqfGYDbj7feTkjH2+Jt+t5PEZAsAakUvXn88SkBmsdDTZ4sZr9YNbQE1tOxg3oxLRhp8bXZcrn7MSTr+9FQYkNJ14pOXn5x5sEtz9cxJ1/LOQRquFw40XL9YNFwXHCXP3X/H/6l1BYLjQb/bidGYelzXGAyWMielQCSCy+XAabONGlh1UAZ2RAf3d/0hqetO8KbvAWCzxpaxNSukohE+r5+W9h2Ulo5Ms6zeL0XjT55kZk/VAdd8sv7CEtQKrpti5rop0qbxYPrOsc5zFQgEAsFREIkMWJGaE7emTDYyWGqM+PrdJOVK7mS/z41CoSHgl9LIDpYiZlJIGtTUvYmc7Mkxx60NUgGhPEt2jMDKT5XfYYZeJcRVIBAITjL8Hv+RWZHfIB5PPyZj0oBFvBe/dzLqf7yAbP9u7CHbKIbe0P5rbcN6siYsjhlTXSXt2xYVJ8Yck4vbQyAQCATjpa/fiVKjPSWuNejzkpY5VLAlHAxCZztqo5kOV2wurkk7JJr1TRspKZ430nqt6yYQCJCaZoyp7CQEViAQCARHZ8E6HEfsqv1GxHWgLV70ukOJKGpqkKmUBHLycflj252aZZJ7uM/jxGZvjhaRGGRPvZQzOzF/9Op3QmAFAoFAMG7RAmJqDJ+MDLbFAwgErcjDUs3gyIy5OPyjF/6J10n7tU0dnzIxd1HM8ZqdLQAUFUtu51/eG0+kbwN93Z9y521yIbACgUAgGB+2rjZ8gK2nS6ovfJI/DAy2xVPI2wgEM4iUTCN45nk4vLEtJc1xQ0X7q+t2UTx56gGC7aez04FMPtSerrXNjsfrxZykw2TWinZ1AoFAIBgfs89OQiHT0NOhwe7ooauhEYA4vWHU7jnfGKO1xQv7UTXWEbBMHrU8ol4zFBVdWbeGZUtGduiq2t9LJAy5BSnR/dfhKTsg+sEKBAKBYJyoFb0EA6WkZeql4KESKf2lt9tFS10P/V1SAJROF4cmTn/o3rDHkQPb4vlDiUT2boe1n8Gd94y6/5qqkSzY5r4GFIp+TOaRgVz1g32Ti1Kirw1P2RECKxAIBIKjE9kDivKrNfohwQX87W6sbT10tTV9Y9ZtX7+T3ElpgLT/GgkXobC+TyhvIh19baOeM5ie07BvLQW5F8Qcr6iU0noKi4cqsQ2m7OTmGYXACgQCgeA4C3CanqI0PUXk4vVFcHS309Vkx9bVhlKjleoP6xNG7YZzrBienqOQt+H3TUNVX4t/6dnYQo6Y8cP3X1t6NjGt+NwRx+02L7YeDzrtsPZ0w1J2Bq1dIbACgUAgOCFoNTK0melD1q3PjbXCjq2ni6DPi1KjJT7OgDr+6KtCydVaTEYzcpUcQ3IikbABmcyHP5SIRgahGXOJFE+nZ5TuOUnxQ+7k2oaNXLbieyOO76uW9potA9HDAA3W2JSdoxZYGRAR941AIBCcMshOkutQa/QUTdcDWQC0t7TR1WSnq7Ujat2Ox50sV2tJTUvF2R3gqwrJbTtvdj+ZaXHEKafhC6pg2Qrod4x6/mB5xJa2XWSmzYoGMSlkGkIRH7U1UsT0jMlZ0XMG91+LipOi445aYDUKGf0hIbECgUBwqqBRyE7K60obxbrtam0cc6/XqEAazbT2RPjDk3s550xpvq+3t3DphROprA1i721g9tQM5EolxbmzR5wbcPuI1ycNzJPE5ef+F3GqIatUBeSl+aAkgSlTTidOJcfri1A6RU3pFJg8yYJKKUN1LCzYBCX4QsKKFQgEglPFek04BTYH1Ro9hmQXtp7xlWHs7mhi0kQjC2fFk5qehkyup7erlWdfqkaldLGvysE1VxfTvMvNlq1SoYnTlyRRMik3ao2+/1EXltx0Lk038PW2VjZt68FgUFKcl8BFF16EtcFHfyTE7l0OauttXLgsjR3b2vh6d4B501VHX2hCJZeRrJERp5AhE/euQCAQnLTCGqeQPq9V8lPj07qryU58nOGIzwtG+rHkplFZ6+D9tTa8Iel1nUFBRqqaeRP6ueT8/Oj45ecYmT9Xy7PP16EIqijb384fnthJZrKNMxZm8fW2Vt7/vJ1rVqZgNqp58U0Xhng1VXVunn2+jpJJKgryIrz0ptR4/ZqVKbz0ZvexCXJSyWUkqgd/hQKBQCAQHD1Om+2I3cMAbqeX1DQDP//hZD7b0MWP793Ad67OZ96cDAwGJTkJmWgNGlwhF6nZKnZtDUT1S6OVAqwmTTQybXESiWYN73/ezlVXpJOWqWOa08snX4Czzw/A3JlJJCiDTM5L5OudLhYtyoieL0olCgQCgeCkw+9zj7tLj0apIBAMolEFufnaYh5ZPY/nX61DJpdydgPpSQMWspv//p2Un5ueNnKjMxJ2YJaZkcmdAGgHrH67SwpwisjjADAb1Tg9vlGvQ6TpCAQCgeCbFdN2N5UDlZFSsk0Yk9NoKu8ZdzGKeJMJV58/KnH9/iHxNBvVtHR4KQX6bBEmTTQyd2k8HdZwzDx6oySiM6Ya+WKzjdTUOHptkuBmpknHbA4/aYlg0GkAlxBYgUAgEJwctLe0UbunHqNR6nTTUNlOcE893n4/OZa8cc/b3NLNS292k6DXoo2Tccf3cgh63MzPVvOHtzrZtW8Hd906hfc/b+dPv2thcqGOSROlCkyZqVrsjgB6vRy/z8355yTzyuutPPC7WlxuuOGy5GFWrxrwo43XMSFZF10/N1uHLBKJiABggUAgEBwRDQ0NZGdvQy5fcFTzbPxwEynp2ce0TrFWp0cbb8BkMqGIA5ncSSRswLt9DxFTEmRk0htpJzGSiMPvJaTxovBpSdJJwmnrbcLuqCN/ooWwvAV5OBO1Rs/evT24nE7yLakkJodRa/Ts29lKa2c3c2ZNIzEFYcEKBAKB4OgJhdORH0Ukj9/nlr44xk0AvB43rU31nLZ0PgD9gUpC/rkot24kVFRCe0KQDlcz+/3bSVBLpQ5N2kSMai3hYJDNu57Gkj2HsFzq9xqWtxAIavji06/wBHwUl84kLFdjc2p5/5MvaGtv47R5cQSCakIRaT9WIdOIICeBQCAQfDP01DmJ0xuO+bzBQEDav5X5QOZDregl7PdAZzuR3AI6XM3RDjouvx2X345GqSMcDAKwq+wt0tNGNjGorW2hpsFKKOyJVnayWhtpbW0jJz8FjT4SFdfB8UJgBQKBQDAuIqHkozq/sa0DrTb+uFybp7t7yFIOJSJX6whedyvhZPOo7ekGyyP2eZrQ6/Ux7elGqzVctb8HgKzClJj5aqw7hMAKBAKBYHwc2KruiC1Nn/e4ta3TJUvi3x+oJOgrlF7MyKTL1xUzNkFtiran22fdSl72opgxZQOt6IqGFfivrZNa3U3LS4wZX1WzUwisQCAQCE48/vbx57keDq+3j4xkSfTUil5kMhPKF55AZa2gp88Wa71qE4dZqh+RmznlgPn8NNZ1IZODxWIceE1LgsZMktlIavqQm1sh0+D1anH01QqBFQgEAsGJp67Xik4Xd1zm7nc7ScqXRK+qOkzFjk3Q2Q5JBuqry7A3DbmI7U12PPVDolvbsJGCgvwR81mtDiJhyMlPQatVo5Bp6Gh2kpjazWUrL47uycrDmdRWuan7chsXnf1jIbACgUAgOPH0NDjRxOmP/cQDmadqjR6/z02DtZdiXwCZSolbocfW4cSUbYoOt3U4KZo6A5Da0yUbZ0cFc5DR9lobdu9gz+uP0167HYVME13z3b/+nDUfPI9+whwhsAKBQCA4sXh9A+UXZMe+fn1XWxP9gSBVu5tRqvayeOGVtHT3sCd9AvaQjbw5Odib7FErdtrCaTRYG6mqa6SmaS1FBTNj5jzYXmtOyUIqd7xDJJSMQqahonIj6bnFAKRqMo8+D1bUqRAIBIJTD5nsm2vO4uhuPy7pOYRD0S+LpmcRDjeBXE2jTs38Fbexp3Vj1GrNmyM1ETBpE9mzvZoLzj2LLbt3cNaiVSMfBrx+OjsdyORE91rdHjk2uZwJmQVYyzcQctjRTrCw7e3HmXX6Ct5v2E9Erhm/wA4K64H/CwQCgeDUEdZvQmi7muxoFMc+wMnldpGSlknRzFwA3n63inOWLeX0ebMIhP3R9JxBca3faGXahbO54NyzCASDtLTvwJI/MvWoan8vkTDkFqREXccdzc7o8dIVV7P+8zUsvewyHHYbcqOU7hPxeccnsJFIhEgkQjgcHvG/EFmBQCA4ucVVJpMhl8uj/38TIqsyhAg4/YDmmM4bDASwDHTKqSjfR3HhbGRfbSZSVU7d6eex6a1dAJTMswBgzjERr5Os0oa2DWSnLY2Z02qVRHlK0dD+a0tNb/TrZUsv4bEfX0OyQc/8RefjDUrjZRrt+C3YcDhMMBgkLi5O3LUCgUBwitHf349SqUShUJzwtfMnWti6Zg8GkAKdjpHAB31e1AMVmIomu/B6z0XxxRM83a9k/xN/IRCQOuZ0tvdSUJzNgvPmRs+tbVhPXsacmDkH919zLUP7rzVtdowmMCXHo9boScqYxIev/pGfPfMB67etAUAjUx+5wA5aqpFIBL/fLwRWIBAITkH8fj8KhSLqeTyRVqxao2fusmnU1VrpamhCqdGiVKlISDCOW2yDgUDMvu7GDRv4aF8dIZWaguLsaBRwc3UXNfubaKzrwnVehAXzZlHftJHLLzprxPl2m5eOdgcqlSrqOrbbvNjtdiYmmTFrdfh9bhZecSlNuyx0BOQkKI1YShYDHJ0F6/P5xF0qEAgEpyA+nw+NRvONWLCDIju5ZCqUSEX/v/pgGwn6BJCN73q83j4y84fcw39/5WvUSg2uQJAH77+PHbaN0bGmbBNTlxXy+h8/Y8vmTaz/ci1uN2Skm0bM2VDvAKBwmHu4od5BV1c3CXNLKV1UiEzRTb5lOvmW6azf9hlGbYSFK+/G4XGML01n+B6sQCAQCE49jkXszPYv99He0jaUdjNOQsQjj1ODfPxi3+92kpicAMDEIj33/ced/OTunwHglDtixg920fnRXXew8jIL8xbPixlTP9AE3pJrGvFaIBDAHmgmLG8hFPERlrcQlrdQXbkGpTKJ9o52gsHg+PNghcAKBALBqS+wR4NWG09LXQ871mxm44ebqCjfh7/dfcTzHHXazrDiEgAKeRvhoBGVtQJg1PKISvlQk4Hqul1MSI/Nf62olM4rLJ5wyNcGaWpfS3rSrKE1xG0mEAgEgvGgVKlIUJlIMJggEsHndLOzvZrgTi9xegOZ+UkkJicctilAV5P9qLrq+PrdGMzmkQ8Qfg+R1/8BgK2/JeacpPih8ZV1a1i2ZCUAv36ob2iQbBHxyfDsC/DLe6X9V1uPB51WO8KdrJBp6OnQMHf6d1DK4khLTcOoMwqBFQgEAsExQCZDo01Ao5XctMFAgJa6Hmr31EuClmvAZEwiLTM95lSnzUZKRs64l/Z4+smdlBb9PhROR1FTg0x1cIk7XHu60dhX3QiAJd88Qly7q9VsWPMiANudfyc5axbtwoIVCAQCwYmybhva26ndU49SoyUnPTVakP9ou+oEfd6ocIfDm/F7lyJv/JBQ3kSMtlDM+MH2dMlJSeyzbqUgd/mY1qmtcQEwcYpxxOutdVvobKlh/qLz8fgTSdAnYLP1CoEVCAQCwYm3blu7e2ls68DvcER7t46LcChWoOVqIjl5KHVqrj6tJMZFPNie7hf3/JjXPriVacXnjmmppmqpiXt+dmrMsbh4FZPP/Dbt7e2YTGa62tcKgRUIBALBN2PdApCYfFRzudwuzObYhueRkmkEAJv1/ZhjZtmQi7e2YSOXrfjeYddpbbPjcvWTkBAXk87TpfAA0NvaSCQYQhbWoUwMCIEVCAQCwTdr3R4Nw8sj+n1uZIp0aG1BZu/Bnp876jmD5RFb2nZhNmXFtKcbjbqmDgCyC2MfCBQOO72tTXz62m9Rq+RMX/IdEiJyIbACgUAgOHUZXh5RqdqLt28p8q3/Ak08jnRVrPUalxn9uqZpLdmZBSOO//LeeN5+s4JNmyq44IISzlhWBMALz0u5tBMLEmLmtHf3YSlZzMKVdxOnldzVNTWfiH6wAoFAIDhFxXWU8ogAivpaIjl52L29Mcf0mqEGAw0tO5iYvSxmzGj1h611Uv7r1MKR0c5ujySjpuR4+n39uF0u+r1egr0qIbACgUAgODUZXh4RwB9KhPYuIoEgyuzkaHu64aRqJAt2sD1dQUH+AXPG9n9tbbPj8XoxJ+li0nms1kYMBSXEqaeiVAw5hVPSMoXACgQCgeDUZHh5xEDQijycCWkphC68nN5QrLwNpucAdHbtG3X/1Wp1EAlDTv5Q/9fq/Z0ATJ5kjplzf9Xn5GbnkT93yZBlHQySlFMkBFYgEAgE46OrtZGu1kZcTjuEQyd28VHKIwaCGVKKTsk0WuiMOWV4eURr466Y/VeAzjbJFZw5YcgytrZLDdbzLNkx4yvr1mAySvWHh+N2uYTACgQCgWB8LDp/IXOXTSN+ggOb30pXayO2ni58XldUAI8Xo5VHJOxH/vYrhP0e/B5XzDnDyyP2umtJSc6MGVNW1QWAxTKUitNU3Y1MDrl5BxSYaLOj1+uJ12WPeo0iilggEAgE40at0TN50qLo9zZnI21lDXQNWIJxegNabTxKlWpc82t1elQ6yVUb8PjxBUOE/d6Y8oj+UCKqxjoiVZUElgdH3X8dLI8I0NL5NfNPuyNmTGuDdN6gmNptXrKz8yidWkrahLyh9Xxu6poqycteRJ/HiVqtEQIrEAgEguOH2ZCDeUFOVIR6HTX01jbT1aWICm6CPmFMrekSUzLQaNUEgkG8vjCmZCnoKBAMYkhOJC3DDPjoD1QS9BWism6BCWnYQ7Hdc4bvvwLY7M2YjVkxFmkgEBgRzNRQ76B0aintvXpqaz2YDToqrZ0smDsBl72O7AmL6Or1otNJ4/UJCWhkanwRvxBYgUAgEBw/6zZtwgzSBjq7fbVmJ/1uJ55uqeSg2mhEp4tDE6ePKTih1enRaNU8+49aWjv8ALjcXh759WIiYR+11lZS09OQIRXclylSkFksYLHgC3rINuajUepQ6TUE3D5Ueg1ymQ6NDPrDdqZNORO9LoFIKDm6jxvpt7PwdC0TM/XEqfLx+9y4Ozro9jQyZ+5cXnitFW9/hJ/fUQiA1+ugMP8M6Vy5Bo1MjTcCFa1tFOdlCIEVCAQCwYkh6PMOdc0Jh7DZeuns7CIS6kAbpx7hTlbp1PS2eqisdfC7+6Ueq3KlEqVcxbpNteza5yE5tY+i/HhUiklUWu3Y+wxMKUgnUeemz96Lxy0Dtx9Hh5eFC3Lx+1RU1DXj8riYMfkqVIpJuPu9dLsjyPu97K4MkJ2egDnJzLZ9brLMclKzC9B6fKSmxnHVFem47H1oDRGIxFFcdBZdDgX2XgemRAWWTD2ffFZBQ5OHOJlCCKxAIBAIjj9+n3tkUX65AnNSCuakFOl4nw+HowO7rRd1KAwUEJ+UAUB5tZ2SQhPI1bg9bnbtc+Dtj1C2vx1L5mR27W1lX5UDs1HN869u5Hf3z6KpW8Wrr7ehjZMxY6oRr0/Nrx7azORCHQ57D902Lf95nwZrg52/PFfN3JlJOOw9fPIFTJooJzdbx7PPt3HOmenMLk3m1X+34XQGyc3W8eZ7Naz+2WyqqgyUVVcyY6qRTdt6uP7qqezaJ1V8qqpzC4EVCAQCwfGnp855yEAndbyGlPgh69bf58OQ3M9N30rjX++1AW1ccWE6M0pzmTHViM3h59ILJyKTuZlRmsvMnAZczhCbt2npdUjF911uL3feXUCSJo2PPtrP5EId118+jfr6dbz4BpTtl+oLJ+i1XHtlBju3+amqd3HVxdlkZklJNjaHH4Vaz9adFfz+gakANDR52FfWirs/CbMxyBkLs4iL06CUq6LXdvFZE4XACgQCgeD409jWIfWGHQtyBep4KQhqakEGk+6YQHW9m+dfreP+rAM658h8/P2NOmrrO5iYl4rL7aU/qAX8TEjWARDp92Nz+JlaJEUGe4N2UpKy6esLYUo0kpGqxtHtjU6ZmCKLiitAn0fK8X3mxaYRS191YS6fbmjjvv/aytyZSVx/+bShHyEsgpwEAoFAcAII+rwoVSljHm9ITox2vVEplZQUmkjQa+nzhMhM1WJz+JHJfDS3qqmo9vDARYnEFU9k686emLlkcWrMRjX7qhzMKAW/N4TNEcCUaCTgc0uzVI35AAAgAElEQVQi2uc/6LUkmyWpvP27/5+9M4+Pqrr7//vOPpPMZGayJ2SFGMKirIqC7IoKgtYFcK3F8tS61FYtdlHbPupT9NfWSvv4uFVrWze0RQFxYZFNsKwqyB6y75OZzCSzL78/bjJkMhMIgmU779drXpk599xz19zP/X7P93xPPnqtLL6tzaDQGJhwST+mTe7Pr57aRkXtkaFBAWWSEFiBQCAQfLv4G9rjJ0U/BipJx75aB28tricnU4O9LYBeJ5GTKpFksPLKW+UAzLxyIK52D//3uQdpy764dpQ+PRGJqAj+7yvbabYZSU9Vc15xErv3yALr6XDHrdvmsCEpUrBatFw+MZtHnzzIwBIDldUebr8ujS82N1NZ7cZkkqU0LdPEYOAPz+0AvkSKRI4v3UYkEiEcDuP3+3E4HGRnZ5/wyZ83bx5r1qzh/vvv57777ktY59lnn+WZZ55h0qRJvPzyyye0ne6o1WrGjh3L008/TWqqnBpr4cKFPP/885SXl4v/DIFAcFZSX1+P2WxGo9GgUCiQjnNe1srKSgoK+pY8Yv+OSnw+N1q98bgtWGdLALvfizFJiTXFQIfbSWZ2Fu4OPw1NrfTvPwC3x091rR2jJYg34CDJbCXUEabV3kZ6PwsGjxKNTnYP7z+4H7d7FxddJA+v8fgieJwSe/cfBqC4MJOsXAPt7WG+/KKSCFrGXlIEko/29jCNjV70Zj0KrwejOYua+g4Acq0GpE7r1t/QQEOz//RKlfjPf/6z12Wvv/76SdlGbm4u69evj35+/etfs23bNmbNmkUgEBD/dQKBQHCSsdtb0WoNx7WOs6UVR0sLSoOHLIsWrTpIY0MjzdWVSAonSckR8vqF8Xl8hLwOCnPNeAOyi7bGdph6byVKXQcdDnnKOr+3jWCwA7WyHoXaQSBYQSBYgZIO/P561m9Yz1e7vsKaFsbva2f37vVU7NuJytdIILSPQLACjdpNXr8wSYoDrN70NA0NDaRZVKRZVHg9PlqaW/B6fSQlhclPVZ4+AmswGKiqqmL79u1xyzZv3kxTUxMZGRknvB2lUklubm70M2fOHJ5//nnq6up4++23xX+CQCD4j/P222+zdevWs/b4gj5PnzI39cTjbsfZ0kprcx3OllbaWupJz+sMlJJ8hBW1BGsq0PxxIR3tNg7adnHQtguboxqbo5rqtvKY9IjhYJCNO/6XQKSWUMRHKCK3UVmzn7q6epDaCCtqCStq2bm3hs+/2I9LWx1TN6yoZXf5SgAcDgftLhftLhcdgfbodlzqVLzWtNNHYC+66CIyMjJ47bXX4pb94x//oLS0lPT0Ix3k9957L6NGjYqpt2TJEoqLixOK9NEYM2aM/NZTU9NrnQ0bNnDJJZdQXFxMaWkpDz30UJzF++yzzzJ48GCKi4s5//zzWbx4ccxym83G3LlzKSkpoaSkhLlz5+LxeGLqvPTSS9E2Bg8ezMKFC8XTRyA4B8T1bBXZhtr64+5/7Q1vu5OsXLlbsis9olR5sM/pEQFa2ypjcgrLQinPlmNOOTJ5e32lbPkW52XGtVtVsw9rcv+4/MOqHts6bQQ2GAxy0003sXLlyhjhCgQCfPjhh8ycOROX68jsCDNmzKC1tZXNmzdHy1atWkVGRgYjRow4rm1XVVUBYDKZEi7fvHkzt912G5MmTWL9+vU8/fTTLFmyhMcffzxaZ+HChSxatIhf/vKXrF+/nptvvpkFCxawbNmy6HHMnj2byspKFi9ezOLFi/n666/57ne/G/Mi8eSTT/KTn/yE9evX84Mf/IDnn3+e5557TjyFBIJzwHI9G0XW0WbDYNCdeEPhUIxQa5StSJIZqamWcGYOto54gTXrY4f0BIJB7I4acrKKewhsWK5vliXR4/Fjt7mRFJCTHT+0yOFsQGU0YTDoUalUJBuNJBuN6PR6pMZ69OX70Om0p4/AVlZWcs011+B2u2NctV3fb7rpppj606ZNw2AwsHTp0mjZmjVrmDZt2nFt1+l08vDDD6NUKpk+fXrCOh999BFDhw7liSeeIDc3l5kzZ3LJJZewdu3aqHi+9NJL3HvvvcydO5fc3FwWLFjApEmTeP755wF49dVXKS8v580332TYsGEMGzaMp556ii1btrBnzx4AVq9eTX5+PvPmzSM3N5d7772XH/7whygUYlZBgeBsFtcbb7yRG2+88YwT2Y0rPmPv17vwN7T3WsdW6ZRzDZ8grnYXFos1foE2CeXAUuze2vhFqth+30ZfLTqtLsFLgGzBZmTL7mS7Q44ozshISWyUVe/FEi7GbLbg9XlZ+cnHvPOO7LHU1VXiQMGypUtPr2E6+fn5jBkzhuXLl3PzzTcD8OabbzJ+/HhSUuIPdNasWXz00Uc88cQTbN68GbfbzZw5c45prRYXx769WCwWXnnlFfLz8xOu89hjj8WVdXcFbNu2jVAoxKRJk2LqdI923rx5M8XFxTHb6HJN79u3j7KyMiZPnsyaNWt46KGHmD9/PiUlJTz44IPiSSQQnOXi2r276+23344aFj27wU43VFo9AaeSHQ0HCO7woNLqyc/OJLXYhEabjMfXOUjlOCOUExEMBCjMlkd6+H3tSErZVRy+YhYetxOaDsWtk66NHXfb3rSVjIzC+JcAmxwJnGKWo6LbHLIXNTU1Ka6uxyOPlzXnFFNXV8fSZYuZdvlM0lLT5GxO2Zm8tPh9rrrqitNvHOyNN97IT37yk6jbdvfu3dxzzz0J61533XW88cYbbN68maVLl5Kfn09ZWdlR28/NzeXNN9+M/lYqlWRlZR11nUAgwHPPPcdLL71Ee3t7zAsBQENDQ5zo9qS1tZXy8vI4cQc4dEi+MW6++WY0Gg1/+MMfePfdd1Gr1cyePZtHHnkE9TecS1EgEJw54tr1/UwRWaPJjEqtjg6/CQYC1LW0UlXfKCeW0OrRJZtOyraCPg+aLNkSVqm/wtMxCRpkq9VhDMbvmybetVtTf5i87IFx5U1Ncv5gi1m2eJs657Lt3ifbhb2tBou5Hzqtjg/eW8rsG28jKyuLiC9CxBehIhgmMzuHTIv59BPY6dOn88tf/pIlS5Zgs9nIyMjo1e07YsQIMjIyWLp0KatWrYpzIyeiK4r4eHj88cdZsmQJzz//PKNGjUKtVrNw4UJWrFgBEBXoYDDYaxtWq5ULL7yQ3/3ud/E3gvHI2LAbbriBG264AY/HwyeffMIDDzyAx+Ph6aefFk8mgeAsoqe4JhLZ052euYVVajVGdaewRSL4vO0oVSfe/xoMBOIDpRQaVJ+8DwVFNJ4XP762Z/8rQKtjP2UDh8SUOeweImEwGnXo9fLE7j37ZLtzuOorknUlpBhSqGtqZOuOgzRVLUWTpOfmG26mpT2AOSUFV5v99BNYtVrNddddx+uvv04wGOy1X7SLa6+9lpdeeolQKMQ111zzrezT2rVrGTVqFBdffHE3l8KRdFwjR45EqVSyZs0ahg4dGi3/2c9+Rn19Pa+++ioXXHABL7zwAjqdLprQAqC6ujoaXHXVVVcxfvx4Hn74YfR6PTNnzuS9995jy5Yt4mkkEJxFwjpy5Ej69+/fa51Ro0bRv39/LBbLmXugknRciSWOhsfTQX52bDRv2O+GpgakCZNw+ePdwxYp/txV1e5m0virewis7B62Zh7Z164+WbM53oJtbqnFpD0PSSvR5rQz6vx8sq4cx8YNG1j+8TL6FxdEXzZOy+iZOXPm0NTURGtrK/PmzTtq3blz5xIKhSgtLe21D/VEGTp0KOvWrePNN99k586d3H333bzzzjsxLwV33nknixYt4o033qC2tpZFixbx1ltvRUX/9ttvR6lUcvXVV7Nz505qa2t57LHHmDx5MpWVlQAMHz6cl19+OdrG+++/z7p165gwYYJ4KgkEZxFHE9eoQJzJ4nqSCQYCpBbLYhcIVhAMDEVbJ3cjtpoTTyDQlce4i0AwSCDoiIsgbnPInsckk7abASWLbnp2vPVdXXuQtDRZa1JT08nKzcdhd1Ccn0tTXQMWs5mmugb0huTTMxdxWVkZpaWlmEymY4pmfn4+mZmZXHnlld/a/jz11FO0tLTwyCOPAHD55Zfzve99j7/85S8EAgHUajULFiwAZHeyx+MhPT2dhQsXRgU2JSWF1atXc88993DDDTcQCoUoLCzklVdeoaBAfuN54oknMJlM0Tb0ej1z587ll7/8pfgPEwgE567A+jxotHL/q1JRj8czEDQRpHGTsUfih+dYdPHdgL1GEHeOgS3MOiLIrTY5irirT7Y7dkcNqabBeL0+hgwezMYNGxg5ajRrP36P0sFl9Mvrj91pp63dfXrkIj4Rtm/fzvXXX8+GDRvIyckRd6JAIBD0gZORi9jnaOxzfb0hmSSznPghEAzS4XDgcbfHzJrT4XbibGmNrmNNl5/png4n/frLxpakcOLzpBIMy5G+X9ZtxOV3xGxrQOqQuAjig9Wf8vkXi/junN/ElP/19a18vb2Gm24awwUjsvB4/PzqkQ8w6PU89t+x8T8Ou4dnX7qdedevRWcwkWJIYfnHy3C0tVFUWMiE8ZMIePzUVe9hzebtZ+5sOh6Ph507d/LII48wZswYIa4CgUBwmqI3JONXaFjyt7cAcAd8XH/99WTnF/LBR6uo6OwmKywo4LIpE2ipq0FvSKaipopD5ZWMGj2a//7NU2j1BkJhNxPHT2OYRiIycGCcuAIx6RGjFmxdBWZT/IiRDqcPgBSzqtNCla1XY4omrq7bV4/F3A+VxkAwGMTmtDH1ssvR6WT3cru7Ha/Hg8vpYNaMqWeuwK5atYr77ruPQYMGsWjRInEHCwQCwWmK2qDhg2UrGXnRhQwdVMJXXx9g65YtzJg+jQElJVw1bQoA//vCX2htsaHQ6NEnmdi09CMmTboUj9NB6cAyZs+ZQCRsItBUR+Sf71GbF58fIVF6RID2QBXpafGu49ZGOUOg2SKPeW2u9wKJx8A2NB0mWVcS267LhcJhJ+nNF/HccS8dtjqCgQDOllbO2BRBM2bMoLy8nGXLlsVE5QoEAoHg9CLg9lNUWEjFvp0EgkGqq6uwWCy4nK1kmAzUV1Xg60zgICmVSEolvjC4fHayMrPwer2kGST8vnb8PjXB6hbC5hTsoba4bakUSQn3oc1Zg75HRimPx4/L5UVSgNkiDwNKlJe4C7u9EZ06Ni5IpVKhbpSnupO0elxOB0k6eV2Rg08gEAgE3yq+YIiLLxxBdbOL3zy5kKa6Bi6+cATtTk+0H7aipgqDWovFYkYjwe7duxg14hI8HU7M5hS+PljPK3/9FwsXPsGOljqUF4zA73bFbSs1KXH0daIk/4lSItodsmin9ovvk66u30t2euysblpJh7K+iVBRf7weD/aWFjRJsstYJS69QCAQCL5Nkk16PvhoFaPKCrng1ltYtW49H3y0igmXjgb0tDQ5WLVmHbfcfAutLTasaans2Pk+c2bPwdFwiKEXDePestn4fe242lN55pk/MGz8Fbgqlsdtq2dw0xHhrMGS0i/Wqk2QErGuSbakU43xiSpcrnbSC4fFlEk6CffEK5DCPrx2B8ZuaX2FBSsQCASCbxWNxsC+vXsYfvF4ghEvU8Zfyr69ezCarDS3elj+8UpuufkW9FoFySY9drsDg1qLIuAmPc9MJKLtnCA9JxpQRNgft51E6RFBjk4GopmaukiUEtHZmXgiOys5oUinpB0ZOdOVHjfi8xBRaPG0xM4cJCxYgUAgEHyr+P1uSgeWsfif71NUWMjhigrGjhiEz+vl5b+8RNnAMjZsWA/AgJISDh44wMiLLsTVZqc4fwCffLIBhbuVsMHJjp07mTHpYho76uO2kyg9IoCjrRyLuV98eYKUiA67O6ZPtouuJP/qHtmp9Ds2o9z/Ne2zv0eH14nRJIu8q+bfQmAFAoFA8O3ibGnlsikTqG2w4XI6mTJ+LNa0VMKBMLfMnR1TNy01jRSDFnOKhT2fr2PQyIGMnzicikNf0OGxcvelI9EUF/CpbUfcdhKlRwSosZdjTSlIILyxKRG78hJbUhMkmOhM8t8dnV6P0ueBgiIiPo88wYE6nWAgQHDdT4TACgQCgeDbp6WuBr1GjznDgi8YoqWuRhY3Y6xFGPDIgUuVh76m5MJSkHwolRUU9y8EO0T+uYbWgqKE2+iZHrELb3slWZnxfbM9UyJ25SU2WeIjkW3Nfgy6jLjy9jHyNKUdrtiAq0g4IPpgBQKBQPCfIeyXo4bDfk9MWdzH58beeJiUNDkxhFJRT8Cfhr9cTkjR1/SIUQva1YrFkhlX3jMlYk2LPIlLTkZ8kgmnZx8WU2H0d8/pSbteDEBO9G8Y+RMhsAKBQCA4vfB528nsNwC9tttQGYWGSNkFSN+ZhcPTGrdOb8NzZHH8Om6IjsPuIRAIxExT1+qSOgU3PoFFc0st1uQjkzRoFaBw2FE4ZLFX642otHp8nUKrK5stBFYgEAgEpxdut5f0vCMRwf6QtVNjDQSS0vqcHrGLpqYKdGpjD4GNn6bO3tj7NHUOZwMWS15MmW7n5+g+Xx39nVZQitNuJxiQh/8IgRUIBALBaUXQ5yErVx4OEw5vIugrgbpa1M/8N61SvPXaW3pEkKep8/q8WFNj+2ATTVPXMy9xT5E2Ko9kcfKFIZSdgfLwkbloVUoVWf0HYW+uh3BIBDkJBAKB4DQiHEKljR0iI0UMqPZvJmJJo6mtKW4VjaH3id2PNU2dJbPbNHU98hJ3x+vzou3WjxsMBvEWlqEsktMkpppS8UX8gBGNBK42uxBYgUAgEJw+uNpdWHpYmyg0UHkYCooSpke0KFN6bc/bepiMjMK48ooGWWALLLLAduUlVqvVcWNgW23NqFVmVMpYyfSFQZp2XTT5hX6TPCY2GchAJJoQCAQCwWlEMBCgcKDc/xoOb8LtvoiuqWo7igbi8u+OW+do/a/HO02dNcEY2No6G8nJydTW1sYty83NRdfaIot5TgEagwaFWraAhcAKBAKB4PQRWJ8HjfZImkIpYkCPn+B3ZuEgALbY+kfrf4W+T1OXKC9xFxcMnsLoEXcdc9/lNYdEfwuBFQgEAsFpY73qkmWXbSBYQSQ0FK1SQ+DV5+Tp6VL8KMwqwuYjFmtv6RGjFmzzAXJyRseUJZqmLlFe4i66C/7xIKKIBQKBQHBa4PF0kFssz+/dlVzCF4FwZg7KyRNpUamJ1FQh7foiuk6KPueobbq9TX2api5RXuIoEe1Rt2Gz2XjrnQ/jyoUFKxAIBIJvRHNdFSqtHoNBh1ZvPOH2vO1OUtIG4/e1E1ZY5eAmIHzFLDxuJ1I/M5F+ZhQOO5HOddIa6gkUDiTsdydsM9E0dc31XgBSc47sc8+8xDH6GtFG+4G709HRzrKlS/nXkvewWlOYff0VQmAFAoFAcOLoMgrxeX34Ax047VVyWbIJvT4JlVp9fI1FZMnUayXC4a/weKb1WrXLRWzUmIn84w24eT6kxQc6dbir0Wl1cdPUVVTIiSoKs0zdrNDYvMTdkRTxLuKPP/qQxe+8i6szB3Fraxs/e/hhAsEggUCAQMArBFYgEAgE34yRI0d1ipMNh8NOY0MjEUUEl9NB0OfBkp7dZ6H1edtJLZAFzx+yyokl3v4Lvh8+gEKlQq1SYdHlYvceieQtMvQ/apv1tkMJh+gkslZ75iXuQikldg8PHjyEwxUVrFnzabTszu/fiU6rQ6sASasXAisQCASCEyM1NZXU1FT69x+Az+OjxdZMq92Ow+mk3dZKijoku5F1yST0tSKnRyzIyyIc3kTIOwnVJy8TKuqPQmOIun8HWs+j2WfBF3STqc1Fq5OtTbXfhY94C7a2fkfCITr1DY4YazVRXuJjkduvH//1Xz/g+utvYOUnH7Ny1Wr69x8QU0cIrEAgEAhOGlq9ltx+/cjtJ/d7tre6aLQ30tjQSH2jnRR1CJVaHedG7kqPGAj6jliPkycS7NG3mq5Nhy6jUqEhPHQEytTE09Q1tuyhbOCQmDKPx4/dJk+qnpMtj7etPNwGQF5+fERyJJR2VKVMTU1l9py5XDPrO3HLhMAKBAKB4Fsj2Wok2WqMWrcNjfXU1tYS7HQjq7R6VGo1JosFb2AfkfB5oNAQvP0uCPshGOy1bZVCjTR2NApTDoqQn3CPuq1tlWRlXB1TljiCuNNlfAJDdLR6rRBYgUAgEJw667agsJCszGxqqg9hzXJGlyVprQR3tqDc8jrKCZPkyOCjiGuUl18mfM0NkF8cUxwIBrE7asjJii1PFEHclTaxsNAc335EC9I3O14hsAKBQCD4zwttv3zsG9eizC1AW1BIIAgSLVBQhC8nH0XYf8x2guEAaiDojq/bW5L/hBHEdXIkcKII4pWfLabQOhZJo4eQH7cvBIDVYsHs6cCvUNIKNDY0CoEVCAQCwalHZUgmbcoE6rftwmN3YLaYiQw6n+DAgRAM9s167SQc6IgzMtubtvY5gripqQ1JER9B7PH4Wb32EW66cS06vwdJqcRkNKJSqdDp9Uh7v0BTMACzNQ2z2SIEViAQCASnB5IimZzRY7DZbOzduxef14fRZMJkNGJM0hw1x3AXoaL+aFIsBHqU19QfJi97YFz9nhHEdfUOImHIzEqJiyC2t9VgMffDqDKg0smiqi/fhzs3H51OS9igQeGwYdiyFoWjjfbZ30MK+0ha/A8ke4sQWIFAIBCcWrqG+fg8Ptrd7Tgcdg5XtRAJ+dHqjUcV3PCsmwiDHBDVjbrGLxh+QXwO4p4RxNE+2QRJ/g9XfUVuxoWoVCq0Ckh+6y9I9hakG74LKWY0KRaCbj+KFCuBQjkdY0ShJTR6LOFAhxBYgUAgEJweaPVatHotqamp0bKuJBaHq1riLFytBtSuOnxaM4oe4muzf01h7rxYizRBBHG0T7YgPsCpuaUWa/JodHo92n3bAXDd8F1IzcDr9eHNKiLi8+DLzu9ScADa0+X8yEJgBQKBQHDaW7eJBNdsdNBv5XI0BUX4LxkfrdPhrgbA2mPi9uPNQVxde5BhE78PgK90BL7SETgcdhr+vaZP+y4EViAQCARnrOD6TSqwOWlqddLY0IhWp6WlZVvCAKdEEcRdfbIFRSlx9e2OGvSG89Du247fnE04JQt7UwO6ZBNGY0qvWamEwAoEAoHgjEeTdR5kQX+IJrMot0UoGRQvbz2t1a4+WbVaHZ0Xtou6hnLUKjPJRiOaNStRXDQeu8mMz9FAelbuMcVVCKxAIBAIziq0ei1l/Ubj96UQpjZmWc8I4sZ6WXCtqYa4dhqaDlNaPFm2kidNxVtYRtDfOXRIoYRIBJ+3vXObiafqExOuCwQCgeCsQ1K2xPxOFEFc02IDoLg4Ph1iVc0+MrKHA3L/q6TV47K3oNLKlm7Hv39Lx7tT8Sy9BlfNv4XACgQCgeDsJxJuJxTxxZQliiC21chz0FrM8f2v1bUHyU8ecaRNbwRfeysGg45gIIDvwBIAwv52IrtfEAIrEAgEgnPAelU448oSRRDXNskWbEZ2fBYmu6MGa3oOho/eReGw44t48bY70eqSUSkVKPRp0bpKc38hsAKBQCA4ffB5fN9Ku4FgRVxZogji5lq5DzU7K9ZFXNdQTm7WCBQOB4r9+wDw+ryd6i2BQolpwjNoS66RPyMeTLgfIshJIBAIBP8xbDYbdXV1uJxHrEytTktaahqpplSSrcZvZbsRXFhSDdEIYofdg9vjwaDXx0UQNzQdJjO9BF1dJWRkETZb8FQdRpd8RJwVaSUkpf3sqNs8IwXW7wyx+++NVKyy07pPzpxhLdVTOMXC4Fsy0ZiU4i4WCASC04COjna8Xh8Oh53GhkaMJhPZqRYK+2V2sziD2J1uDtdW4NrjjApustEYM+a1r/TsfwXYuqWJQCAQHe9a3yBbr+m58QFOdnsjZutI3EUXoCwqJeLz0GFvxGgyH9d+nHECe2BJC5sXVuN3hWLKW/d5aN3nYdffGhmzII+Sa9LEnS0QCATfItu2bSUrM4sUQwqSVsLr9dHucuF0ufB5XPgDkRgLdeigkoTtqFUqMqwmsJqAzKjg1tXVsW/vXrQ6LWazGbPZcmzBjdjiiirKWwgEAmRmpUSt1f175HqDz0uPq19dv5cJk+YjafWEtXp8Ho88Obw6/ewV2ANLWlj3y4qjW7euULSOEFmBQHA6UV5ezjvvvAPA9ddfT3Fx8Rl9PN6mCmraGqnUmtGoJSSlBo1Gi8Ggx2Q84up1uly02FposUGKQYs1LfWoM+UkElxXh79Pguv32+KiiyorWgHoX5wdLTtUXg9AQaE1bvv19Q1kOvUkvf8X2md/D6/bGR2ec1YKrN8ZYvPC6j7X37ywmoLJlhN2FwdCEX70dg0f7XbiCYTRqCQmnWfkz3PzMGjkq/jGFjsPvFPDh/cN4Pxc/Sk7R3/ZaGPRp800OuWJm/qna/nVjGymDDy+Po2LfruP4nQNb8wrSvj72+DLWg9XPHswrjzTpObHUzK4bYy1z22dLtdDIOjJO++8g8PhiH7/6U9/ekYfT3pOPsFAAI+nA6+ts0812YQUtKI3mVEpZYmRxVZ+DgVDQWobbPj9PjQaLSajEWuK4ajbUatUWFNUnfWOCK7D1kh4+2ZMB76mZeZc6pqWMnRo/BR1u/c3A3BemSzGHo+fpqY21Go1hcWxhlhdQzn5uYPl/tdOPC02VGr12Suwu/7WGOcWVicrKZwi+8QrVjkItIdiLNldf2tkxN05JySuE39/AFt7kF9Oz2JyqZHV+1ws/LCRy/54kE9/UoJaKZ0W5+fRpfW8tKGFmy+0csclqTS5Ajz9cRO3vlLBs7PzuH6E+Yy4zr+4MosZ58t9JE3OIIvWNPHwv2rxB8PcOU54JARnNp7O2VbOFlo3tKPpp8dYaJb7JzuzG9kr9tOoVKBTq9CaszCbU1B3ZjtSKVVRwQ2GglHrFsBsNGCxmI85D2yX4HZFO5AAACAASURBVCpUJtQBN5GNq9FrFaxY8yRDh77W45z7qSpvRlJAYaH8bKmoaCMShpzi+Ofinn2bKSi8Au95wwkPugB8HtraGrGkZx/3+TljhulUrrbHiev0V0sZ/0QR458oYvqrpaiTlUdd53j53comqlv9/GNeIXdcnEqBVcMdF6fywi35HG7x8ddNttPD7dTi46UNLdxxcSpPX5fLoGwdE88zsvye/pyXqeVPnzadMf+w1iQVBVYNBVYNowsNvHZHISMLDPzp02bxdBac8dx6662drk0z119//Rl/PLX/sHN4YR3tFZ3GjSSh1RvxAXn5RaRn5SIF3djqq6jZs5WG8t00N9UR9LtjxDYtNY20VPkF+nBVHfvLq6ioacTZ4T+2IaQxIqlV+P31nDdgTNzyxnonKqWaK68YFJ1Q/Wj9r1/v30ppxngiCi2SVo8v3GmNns0WbFe0cBfnXZNK6sAjboXUgQYKp5g58J6t13WOl3/tcHBBnp6R+bHui/ElyQzJ0fNlbe/t72/0Me9vlRxq9qFSSAzL0/PmnUVxbuVFc/L4+ZJaXN4w6ckqfn9DP5K0Cu56vZpGZwC9WsEPJ6TxwGWZvW7rH5/L/QsPXR5f5/fX94vbz1V7XTz4bi2NzgAalcRVQ1L44439jssaP1Ybbn+YO16rZNOhDoLhCJkmNf/vutzjdlcDDM8zsK3SHeNZmP/3Ktbsd+EPym0/d1MeY4qSvvH16Kpz95tV7K7zRuu8dGsBGcYj/yavbW7liRX1uLxhjDoFT16Ty3XDzQgEfaG4uPiMdwsnIrSmEu6Q+5ODgQB6nUYeLyopYyJvZXdyOw2H6mQB0upJsmRG3ckqjYG0zrzAwVCQVrudhkY5IthsNmMxGWKs23AwCGkWIsNGU287RH6/0pj9eub3b3P/T27kwZ9OZtOmL3jtrysYfeEoLr+ymMJCc9wMOg67/KxMMpsh7COi0OJx2b9R/+sZZcF+E3patMdLtd3P8LzEfQMf/2gAz87OS7isyRVk6jMHSE1SsWlBKa/dUcD+Rh83vVwRV/fZ1U38/Y4i3rurP8k6Jf/1jyrmvVbJw9My2bSglAuLDPxuZRObyjt63c+vG7zkWTSYDfHHOyLfwHcvPhIEsO5AO7e+UsHE85LZtKCUhdfmsuzLNn6+pK7P56Uvbdz0cgVfVHt497+KWXl/iWz9/7WS8pbjH1heY/fHCOF3ni9nU3kHi79/pO0bXziMwx36xtejyRVk5v8eQiFJrLy/hHf/q5gaR4Br/688WueNLXYe/lcts0dZ2bSglKuGpHDvm9WsO9AulENwTqOcVBD9bm+ujxkvGmPRqdUYTWbSc/JJz84jSWeiw95Iw/6d1OzZSkv1fgIeV7R+jHUb8sdYtz6PbN1qfQ6knVto2bOT4rxLYra3d28Vr/11Bas+2chvn/w7n23czSUX3cr5Q27jmT/+hZ3bd8V6A6s/Y0DBZejXrUH/yTIA2lrqMRh03+i8nDEWbNYoIw1bj5z4A+/ZKLkmLWrF2va6qVztiFmnu4X7n2TJTgcpeiWL5xehVkoUWDVcN9zMKwlcyovnF0ctpF9cmcWdf6vkwcuymT1KTt313Nx8Bv36az471M7FxUknvG/Lv2pjSI6eP9zQD4ACq4Z3tzuOSyT60sa/Kzq4c1waowvla/Dq7QX86O0aGpxBitO0fd7Wsq/aWLnHxRWD5X/YhrYAFS1+Hp+VE237kelZXP3nQ6zY7WTuaMs3uh5/+rSZYDjCsrv7R63wV28v4IpnD/LBLidXDTHx62X1XDHYxG+ulvti/nBDP3ZUu3luXTPjS5LFU1ZwTM62KOLcmy1o+ulJLjzycu8NBLHo+/CskiQ0SVo0SZ1u2s7+W1t9FUGfB0+HDX1SaoyV2926rbfZ8ft9ZJgMZAI+cyQuYcT/vfAgKz7YzEsvLuWNxY9ja2nAalUz9+Zp3HPXn0jNiPWoVdXso7ToBhQbKqGgCK/Hg7fdiTE77+wW2NSB+hiB9btCfHDHPgomy+6HytWOuCCo1IGnJoJ0/qVpzL80NiBH2Yv7tbv7sZ9F9vGn6I/crF1WaZs3fFz7kLPgq5jfdQuHArDwO7nxb5/Haej3pY0LC5N4e6udDKOK2aMspCer+Ot3C47Z9gPv1PDAOzUxZdMGmfjzXPkGz0pR89WjZbGeimO4tvtyPXZUuxmRZ4hp6/xcffS8fVnrwekNcdWQWJfS8DwDnx3qEMoh6BNnWxSxdVz8i6UmFP5G/ZVd/bfRqd/CuaBQ4u/w0WFvpK1B9jh1BU11BUoZjEZ2Xz2SzGC8AfPF9gauvGoMf3xmMRazgX9vcjF02ACGDh1I2aBCUtOyYr2WtQe58KLBSPZttE+8kmAwGN23s1pgS65JY/ffY4N1/K5QTJ9ronVOFT2HzJwMeg5lmXBecnToTCgSiam7aYHcF/HMqibe2nok2CsQivC7lU288lkLrm6inWfR9Hk/+tLG4vlF/OjtGv6wsoknVzSQnqzi0RnZx+yv7B5FDJCerIpxDwPsrvNy/+Jq9jX4CIYjJ+V6NDmDFKf3fg661rvvrWrueyt2uJhKISEQ9IWzLYq4Jy6nA4VOc3IaU8hv7TFWbjiEq92Frb6NoM+DLtlE8qCR2FytFOfHb3fn3ho0eiV/+OPD6PUatLoQH364hwkTxrJ1yx4s5iNezlZbMwZdBinqLFw/kF98mvfvOaFDOIMsWEOcm/hoZI0ynrCLOM+i4UCTN+Gyy/94kIFZ2oT9sC9taOE3yxt4+rpcrj4/BYNGEQ1qOhHKsnRR4QSiwjMq38Da/e2Ut/ii7tcCq3yzGXWxpuXPl9Sx9Ms2nr85n7H9k1ErJR5dWs9Hu5193o++tKFWSvxvp9XZ3B7kkffquPfNakw6BZeVmXp/I+6MIu4NhzvElYsOctUQE6/PKyI9WZXQYj/e65FhUhEK9X7MmSb5jfzFW/IZIsbWCr4ht956a4yL+GzD2+7stf/1ZIluV9BUMBDA5XQQ8XkY/+lhOu6dHFfdrEsmxayOzv86cdII3n5rNReN/D4PPHhDNKoYoKL2S/rnTOF/buvHwy8egIgOR0MVep2GqvKD2Os+x+VoZsy0u/tsoZ9RQU4jfpjzrdTtjWuHm9l4sCMuCnfdgXZ21Xl6TWKwap+L7BQ1s0dZoiJo6wie8P509R92fbrEZd7YNFQKiV+8d+xApXUH2hmer2fiecaoO7T1OPftWG1sq3Qz9Dd7ooFZ6ckq/u/mfADWHzwxd+qK3U6C4Qg/nJgePf4m19H3vy/XY3iege3VbgKhIxZxeYuPob/Zw6f7XZRl6TBoFHx2qCPmGujViuh+CATHoiuK+Kc//ekZ3/+a0EL3+jEmG/8z2/J0YElNJ7L7CyKWtBixBDk94nllqfzmsZf46qu9sieq3skfnvkx1XWLuf8nN3Zry8/qP77J1tfleV3/7+GJvP/qfeh1GtJz8qn6ehmff/ACX3/2L5a/ch9VB3bQXFeFz+M6ewQ2+0IjWaOOffGyRhnJvvDEL/IDUzPI64xQfWurncpWP69ssjH/71UUpWm5/eLEOTEv6Geg2u7nV8vq+brey0Pv1vLUR43f2nkxG5Qs/E4ua/e3c/3z5WypcFPZ6mfhR428vdVOUbegosE5OjYe7OCVTTa2VLi546+V/HOH47i2d6w2zu+nR6mAu9+sju7LD/5RBcCVg0/s7faiItkr8ej79WypcPPKJhuTfr//qOv05XrcMzEdlUJixp8P8XW9ly0Vbm59pRKTXhm10m8fY+WVTTYeXVpPZaufT/e7uGLRQX70dg0CQReRSOSc+uj0SSh0SQT8fsypqUQkRcyyruUne7seVxsGazbG/btpudgct7y6uYXPt1fww3umc89dfyISiZCRZeS99z5lwrh7+PrrJiKdXWvL/+9v+MMh7vyfDwG4+7EP8XS0sXP9KwCMm3E/l93yGBddNZ/CQePYseYFdMkmnHY7VeUHqa4sx25rJhgInJku4i4mPFHEP6/bHZO1KcbKS1Yy4YmTk9JPrZT45EcDuPuNahb8qxZ/MIJerWDaYBP/77rcXoNrHpiaQVWrn1c32XhhfQujCgz8dFomT65oYFuVO25c7clg7mgL1iQlj3/QwKznDnW6hxVMGSjvaxd/mpPHnJcO89j7ch7OKQON3HFxKq9sshEIRfo0FrYvbXz8oxLu/Fsl1z1fHh0Hu2hO3glHQhenaaNjh2c9dyg6dvj7f6tiV60HEkQR9+V6ZBhVvP/D/sz7WyVTnzmASiFxcf8kFs3Oi56TR6ZnU5Cq5YkVctas7uN/BeeumB4PZ1sUsSnNSpvHCBJsc1qx+ZK4vr+PSEcTBmsmG/aHOOzQU2T2MLbARGtz3Undvk6vp1xqJiUrNoByxQebKRs4gJFDi9DrNYwdV8L13/klX355iClTRvH47+6hrCw9eg2loiTCW73s//xzAMJmC8MuvSMme1PRoMlR1/TWT17DaDJH3dX+Dh8dXif1ddVEQmH0Og0miwUpcpx3SCQSIRwO4/f7cTgcZGdn/8cv6vY/17HjucQXavhdOSeUHlEgEAhOlqD25KmnnqKtrQ2AlJSUUxpFXF9fj9lsRqPRoFAokI4zUrayshKrSc/jHyez9pCGOcM91DuVrD2kYdW9Tn7zgTx2dEi6E5svidtGuWipk709LqcDvT7pm0UbQzT/cdHAIaze/D/MuOI7Mct/8bNnWbZsOx6PjylTRnHBsBL++MxbrPr0z9H+2O5s/Pf7tO6M4Ouw8cW6dzFYskhOsXLJ9IdJz8k/vnPTGYjlbXeemfPBjrg7h/otrriAp6xRRiGuAoHgtBHWnut5PJ6YshMV7BM9pu6fb3RsYR0RIozv7+OytC/IGlnE37ZmEZHURIjQ6pYYnQc5qW4cLXYikYgsju1OAoGAPAWcVo9Br0OrS+rzcBi3u4OUtCwam3aRnZ1Cz91/8KHv84tHlNgdblZ9sonPNu4mFApz5eX3M336cObPvzkmyf/2L9Zy9aTf0s8h8cW6d7ntkWWsXfwEH7/+U25+8E0ikQhVB3aw89MXaamVk8+k5RYza/5z8TvXGYhlNJk5Y6MzerqKT6ZrWCAQCPoqgMcjTrfccgvvvvsuANddd90Zf348nYeeYwoRCh7J0hb2u1kwKcjfthn57uJUxvf3s2BSEI+7HY/HTYopA2OOPMog4HHR1tKA01GDSqvHYj328Epvh5OsojLSln6E6eLCuOXrPq3ksiuKWfXJJm697Upuve1KPB4/FRVtrFv7GWqdKkaU2z5tYGv7axS65XSzIU87RnM66s6hQlUHdrB28a8Zd8195JVciiRJ1FXsOuZ+nrGpEpNzNVz27IDo78ueHUByrkY8EQQCwUmz7r6p5ddbYE5RUREPPvggDz74IEVFRWd8gJNe7YfO75rOQCaIICmVqJRK7rjQzdLvO1i6S0OHX00ECAb86FJTo22odMmk9huAJS0LlUqF3MJRPuEQRCLoNBK0thDJNCbct49W7OSzjbujv99+cwdZmUnMmDme7KyU6LWraygn94pxKBwuFn29mEgE3v7dzTTVHmDinP+BcCgqrkWDJqNSq1GqVOQNGHbM++iMHl+QfaGR8Y8XRr8LBALBt2W1Jio/XtfqqXQJf5MXhWOt7/V4iES0EImg0OjldiIRIpKaxz/WcqhFtgDLMgLoNOCORAh43Sg1enpusbWpTg4qOsa+VFdVkJ2Th6eiiiQiWKxpMfvvsHtISVGwenU14ycOlPfTG6DDF+CLHbv4ZOUmHn/yvugx7Nm3mQHnTeLiIecTDnTwmyevYeLc/yE9qx9IEq89eS3eDgcr//Eb4DfR7Uz77h/ILxl+1P7ZM34A36nM1iQQCM5+ce1ZdjKE9myho62Nh6Zocdub8AfB7/ew86d2fG4fv7hMRZtHdpIa1H7sza3RYSyhUBCl8oj8hELyuPRjBj1FIujUKtKz82mu+oyGC/IY1KPK7oPVOBwRBpyn593FG5k5cyo+b4hZVw9i8VufkJdfEHO9quv2Mn7inbj1RUiSxN2LdlG7dxuRTuG84o5nWfKn2/juYx+jUqvjBDUSifQqsmKEvEAgEHwDce2L8J7ux3siFiyAp8NFU3013nYX6Tl5OH1uID59rbvbNpUaHfX7dgKgNWdiNqfg9fpQanTH3A+fx4U2yQgaHU4pTPrQ+HWCLvhiZyUPLJjEZxu/ZlDpbUyeMgyXq4MDB2pYvebP0XU8Hj9OVztp7iT+348G8sCiHbjsLfI2OvnwFdnafeVXl0fL9Mlmbv35kmOKrBBYgUAgxPUY4nq83/u6jVN9zOFwmHBYzid+vMN0utb1uNowWizRdo6GQqkkxZLa1QCuDhctdQ5cbW1k9ys4ZhsdHR6sWXkQ8qIt34quYBLhbvnI163ZijXdyM8fnQrAoj/fT+XhFrZv+xJJgslTLyHFrI96oQ8eLCcnfTRJB3aTqk7i40+fx1dxmNzi8zGaJgFwy8//xd+fvJZx19wbHQvb2/nseQ6FwAoEAiGufRDXnn+7f08kDKe7RdslkCcisH6/nw6PD2umgfDxHq8kkdSZt9jUKbrHasPvdaNNSkG5fxclh5SEZ2ljzn1LSxtg4teP/ov169dy6aUTmDJjENOuHIvPFyLZqCHUmXRckiQabTsoyp1Ie3IJs3/8Om/9/X4aK/awZ/N7lI35krHT70MCSq/+LhuWLAIgr+RSAOord5NfMvyoIisEViAQCBIIY28i2/VA/6aW7OkiwCdDYO1N9SBJ0eCmb5NgIEgkHEFNGKniMIGCQqQes2kNGz6UFLOBEaPzmDK9jJXL9rDwVy/z1VeHuGjMYH7723vIL0yLnv89+7dx5YzvEdZnoQGu/q8X2PDe0+QUDaWobCLhcBiFQsHoITPJNwzi89V/YM3bTwNQOvoK8gYMO7uDnAQCgeBkWa+9/e4uqr1ZtD3X7YvL9EwW2EgkQnrhebjtDYTDEXQGOQ2q1y1P6NH12x8MEfZ7T3h/3e52ko1pRNRapMPl2Kb1x9LjHH+4ch9ZaRqmXj6UC4f358Lh/fF6pwGwft1OUtOToxas3x8kAqRpZde0JEk0VOxj6NhbSDaZo+8LXcvSC4uZeeefo9a31IvV2v23ENhe2LVrlzgJAsE5JLC9uYrLyspixLVnYFDPIKEzJfgpHA7HWOTfxIL94FAO3xmiIuj20xExc6BFYmSeCrXWzFvbNNS7lNw6zIXJ2o7LZj8xgXW1YRyQTzgcZl9hgNyCnJj+V6/Xj16tYsiQfK6d+TM6OjwMH1HKpIlDufCS4UyZOqrzesj1v96/gcLcSaj37QDAV3IBkXCEpGQTkXCYiCTJ5yQiAbJodlm0II/J7U1kuzgjcxELBALBt2W99uYO7vodiURQKpVotdrjFiXBGXBfhMO0uxw0VFfgbneBJKGQFEjSkZcQhUIRTevYdQf0vBckSTpzMzkJBALByRbb7i7hnhZqd3HV6XRCXM9SJIUCY4qVAYOGYUg2QiRCOBJG7mbudk90vXwdxVMhBFYgEJzz1mtvYttTXMPhMFqtVpzAc0Ros/IKZTd0D5GN3j/HuI9EH6xAIBBi2wdh7forLNdzh2SjmXAkDGHZRRxWhJGIdf1KkhTtj+3ZFyssWIFAIEhg2SZyG3dFoArOHSu2urKcVluTnOYxek/E3DTRr8FAAJfTEU0JKSxYgUAgIHE0cHfLtfuQFsG5Q3pGDp4OFy3VlQQUEgadlhSrBb3BFB0DLMmmLB6Pm1AwgCvgkOe6FadPIBCcq1Zqb5ZrdyGNRCKEQiEhsOcoCqUSk8WKwpqGUqmko8OJ0+GgqbEZg16LPtmEwZCMSqMhGAyQlp2PWm8UFqxAIBBi21tZd8u167twEZ97hMMheYiOQiIcCZOUZMJoMqOQFISCQdpsjXhsNvyd42azipKj6wqBFQgEQmgTuIe79712iasQ2HOPUEgObJIkCSksgZLOOW8jqNQq0nPyAHC0tpBszYq1fsXpEwgEglhh7RlJ3PUJBoPiJJ1zAhsiHIkQDncO1SHSbbjOEY9H0OfBaEkTAisQCAS9CWx3emZyOlcnVhcvXZFeZ06KRCIEAwFUWn3cukJgBQLBOSugR6vX9SDt6oMVLuJz1IINhwmFQ3Kyia57IhKOGZ7j8XSgTLYIgRUIBIKjiW6ivtgukRUW7Dl5g0BEnqs2EuFIbkQg0vnD2+7CYjbH3R9CYAUCgRDYXsp6C3wSnFv3R+IEJLH1lBoDEWHBCgQCQd+FV/S/ChJNUdiTUCg+AE4IrEAgEPTRahWJJs49Yq55JBJ1C8fcMyR++Trl42ArKyvFFRQIBP9REe3+u2ekcPesTcFgkGAwSCgUwu/3EwgEGDhwoDiR5/h901UmcSSxv9vtQa+Sk/9LkoRabzz1AltQUCCunkAgOOUC2zNauEtgA4EAwWAQv9+Pz+f71vexvr4er9cLgE6nIzs7W1y4U3nPHEVku9AlmXA3V+FGniAg5POg0upFJieBQCDE9lT3r3q9XjZu3Mi2bdtwOBwxy8xmMyNHjmTs2LHodDpx4U5DjKaUqOXaNV2do7VFCKxAIBCcSurr63nxxRejVmtPHA4Hq1atYuPGjXz/+98XFu0ZgiU1XQQ5CQQCwakU10WLFvUqrj2t3EWLFlFfX38S9yDAR/cOobjkJv7Rlmj5HhZOLKb4ymepAtpW/z/uevBVvgqIa9cXhMAKBAJBAnoO0znZeL1eXnzxxYTLsrKyyMrKSrjsaNbu8aNm2rVTMYS2sHpNAtXc8z4rqqD0ymvIBzoObWTle++xufncvB+6ooX7ej8IgRUIBIJTwIYNG3oVyhkzZjBjxoxehXnDhg0nb0cmz2GWNcS6pcvpKbFVn3xKFYOZeX0+ADnf/xcHDvyL7+eI6ycEViAQCE5Ttm/fftRlx1p+8hjDddMzCK1byvIYha1iyYp9MPgqZnUK6p6FEykunseSbrUC5Yu5e9r5lBYXU1x6PtMeWk5DoFv9IfezOlq7jddmF1M8+zWOeKQ384tRxYz6xWYhsAKBQCA4Merr6+OihY9HYB0Ox0ntix0xaxoZoXUs7a6wVUtYsQ9G33ATvRqstiX84NoFbDDczJ8+Ws9Hf7qa0JJ7ueZXmwkAZRPGYnXvZMueLjVew9rtwPYPWdalsAc28nmrgXFTxgiBFQgEAsGJ4fF4jrp8+vTpTJ8+/YTaOE6FZVpGrJu4askK9inHMHNWSq+rrfvtY6wJTeeptxdwWUkuJZc9wV/uLaXp7Rdla3jMFMYZqti+RVbTwPKlrEvJJ197pM+3bdO/KVdexMRLz77rLARWIBAITjOys7P/w8NxRjDn2vxubmLZPawcPZ0ZverrHjZtcaEcN41p6iOl+ReOwBo6xL6DAJcy8SIl29euIQCs//RztOMe5dGpWj7/dD0A27bvhhETmKQWAisQCASCE0Sv158WbXSnbO53KA19zqrVgU73sJLR02fQu/3aTIsdQh/fR3Fx8ZHPTW/QSi2HDwGomTRhBKEvtrCNzazaAJOuvJRLJ16Eb8MqNvMVn21zM3ji1KNs58xFJJoQCASCU2Chms3mo/bDHg2z2XzyLdz8a7iy9BleWLaaqvJP2Kccz+9vPJrspZNmgcwrX+Cde8viXwCs8t+U0SPIb/2EjctMbGy7iPsnq1FzNeMf+i0rPi1lb20+4yaenWHJwoIVCASCU8CIESNOybpHUViunzkY95qXeOD93RiuuJHpR3XbDmDYUAONmzfTmpFLbm7XR0c4bMXaZWCXTWCstZzFj/+Lqi5XsHoSE0Y0sfbx19huHcuEsrPzGguBFQgEglPAuHHj0Gq1CZctX76c5cuXJ1ym1WoZN27ct7JPObOuYrB7G9v2GZg0YzJH7xZVM+2Hd1Bc+xduuXEhnxyopfbAJl7+wdVMvuZhVrq76o1hyjgDTU1N3VzBKUydOJiq8nK046ZwOscP63QGAIxWM8lWC0arBVOqBWOqBb0+OVrPmGbFkpaNKc0a/QgXsUAgEJySB7eO+fPns2jRorhlRxuCM3/+/G8v6X/OTdww+ml2757KtdP6EHVU9gArPsrn/rv+m3umPU8ANelDZvLk4ieZajhS7dKJF6F8v4mrZuXEivnTe8k4zcOHbe0eSvsX8uXuvbQ1V6NSqlAoFCgUEpdMugpFJIIxxcBXuw4yoKSELes/ia4rRY4zB1jX9E5+vx+HwyESTwsEgjOGRDPodE1T130+2O4fv98fnbbO5/NRVnZy/Zn19fW88MILx5wKT6vVMn/+fPHM/Q9z7z0/5KabbiEUDhHwdKBWq1EqFLyzZCl33XUXfrcTa1oazz3/Ij954EEqD+6XxVWShAUrEAgEp5Ls7GwWLFjAhg0b2L59e8Lp6kaMGMG4cePEdHWnAI1WRzAYREMQpVaD2WqiutbG0KFDUUpetCol+w4cprR0IC5HIzqdFkmpxGq1CIEVCASCU41Op2Pq1KlMnTqV+vr6aBIJvV4vLNZTTNnAMsxGPa1NDahUStSaTD5ds4o5N91Mu8tLqiWVHR+s5Mrpl9Ph8hAJeNEbktm6/UshsAKBQHC6WbSC04c9e/cwePBgFBodOq2Gysoq0jOzMem0uDr8dPiDuAM+zGYzrQ21SJJEktnM5k1viyhigUAgEAh6Izcnh/379xP2e1HpNazbsIkxI4fR3FBN2O/h8883M+yCC7DVVtJcV4W/w8eBXTuxmMxCYAUCgUAg6I3aujosVgtGqxmbXXbd5+X3Q2vOIKeoP+UV+xg+YiSWzDzOO/8iii4YztotX3HVrKuFi1ggEAgEgt64ePggSrUQ8EEg4Gf6lEtR//szstrbkEqGMHL4GHQ6LRzYiebLL4mMHsvI/haywiFhwQoEAoFA0Bv9bXYin29G47AxYMAAsvUmIl4/aJIIB9wMHzIYrhr9QAAAIABJREFUr9dHILOIwAUXoDJoGHP+BDxJScKCFQgEAoGgN6oHlqEOK1GpVCgrq+RxsAMGo1AoUCqVKGx2JMmBJElIxiyksAReP5LPLgRWIBAIBILeKMnvj1arRa1Wo1Kp0Gg0KJXKmI8kSdGPQiE7hiVJEi5igUAgEAi+DYTACgQCgUAgBFYgEAgEgtMfn8cn+mAFAoFAIDiZzJ8/n/b2diGwAoFAIBCcTF544YWzI8jJ4/Hw0EMPMXjwYIqLixk8eDB33303NptNXOUznIkTJ1JcXCxOhEAgOCM5owW2ra2NcePG8e6775KZmcm0adPIzMxkxYoVTJ48mba2tv/IfsybN4/i4mL27NlzRpy3PXv2UFxczLx588R/gEAgEAiBjeepp57Cbrdz2223sXr1ap577jlWr17N3Llzcblc/P73vxdXWCAQCATnpsD+4he/4K677kr4eeedd4667nvvvQfAj3/845jyOXPmALBx48YYi+3222/nhhtuiLE2y8vLmTZtGsXFxZSUlHD33XcTCASibQUCAR599NGoC/r8889n8eLFMe2uWbMGgOnTp8dYhcdqOxEbNmzgkksuobi4mNLS0ph1ElmeXWUTJ05MuN3i4mKmTZtGeXl51NqePn06AGvWrIk5Fw0NDcycOZOSkpLoevv374/b1u23387dd98drTd37lw8Hk+0rKSkhLlz5/Z6rF3tPPDAA8ydOzd6rA899NAxz8/y5ct7PT9dLFy4MOH16sJmszF37tyY/RddCgKB4GRzyoOc+vXrxxtvvBFXrlQq+dnPftbrenv27MHtdpOfn09KSkrMsqFDh0YFpTvr169HqVSSmpqKSqViz549zJw5E4Bp06bR3NzMihUraG9v569//SsA9957Lx9//DFjx45l0qRJ/H/2zjs8qir945+5d2p6T0hoCUQ6IlVEERBFBLGAspZVKYpKc2E1/lBXdlUUC4roIquCBUFssAgqLqISaUEQkB5aCEkI6T2Z+vtjMsNMCoSEEuD9PM99Zubec84t58793vc97zln9uzZJCQkEBoaSrdu3Xj55Zf56KOP2LdvH5MnT6ZHjx7u4ztd2VVZs2YNY8eORafTMWjQIFJSUvj+++/Jzs5myZIldbqeBQUF3HHHHZSWlvK3v/2N7OxsFi1axB133MHatWsZM2YMnTt3Zvbs2bRp04aHHnqI6OhocnJyGDRoEKWlpfTp08f9gjJkyBCWL19Ou3btvK5j27ZtGThwIOvXr2fTpk1cffXVBAUFMXDgQJKSkti0aRNz585l0qRJtR7r0qVLadu2LYMGDSIpKYmvv/6asLAwEhISaky/YsUKJk2aRFRUFM8++yzffvst33//PTqdjrfeeguAJ554guXLl9OsWTPat29PUlISCQkJlJWV8cADD1BQUMCAAQMoKiqib9++AKxdu5bhw4fzv//9D51OJ08FQRDcpB45iF6vx2LXoKqqc6hEVUVRFGw2K4qioNFowG5Bo9FgsYJe5/zEcYbY7XaH1Wp1lJaWOtLT0x0NxWw2Ozp37uyIjY31WiZPnnzKfLt373bExsY6rr/++tPuw5W2c+fOjuzsbPf6CRMmOGJjYx0ff/yxe93dd9/tiI2NdezevduRn5/viI2NdVx77bXu7V988YUjNjbWMW7cOPe60aNHu/PUteyaGDp0qCM2NtaxYcMG97o777zTERsb69i/f7/7PEaPHl3rdfj2228dsbGxjueff96d5uWXX3Z0797d8f3333vl8SznH//4hyM2NtYxe/bsauc6YcIEr3x33nmnO01iYqIjNjbW0atXL4fZbHY4HA7Hhg0bHLGxsY677777lPXhWU5KSoojNjbW0aFDB/e666+/3hEbG1vt+u3YscN978TGxjpat27tcDgcjrS0tGrHkp2d7YiNjXXccMMNDofD4Zg9e7YjNjbWMW3aNHe506ZNc8TGxjqWLl3qEC5t7Ha7e7HZbA6bzeawWCwOs9nsqKiocJSXlztKSkochYWFjry8PEd2drYjPT3dcfToUcfBgwdr/e8Kly5rf/7BsXH9Gse2zZscO//Y4ti3c4fjUPIeR8qhfY5jKQccGccOO7KPH3PkZB5z5J5Ic+RnZzjyszMcBTnHHRfcRazT6Xj00UerWa9Tpkw56/vq3r07oaGh7t8u1+4999zjXte1a1cAdu7cSWBgIIcOHSIxMdG9vWPHjm7X8ak4Xdk1sWvXLkJCQrj66qvd6xYsWEBiYiItW7as0zl27twZVVVZvHgxc+bM4fjx4zz99NNs3ryZm2++udZ8Lnf6iBEj3OvuuusuADZs2OCVNigoyP3ddT07dOjgtv5cHoXMzMxTHqtnOc2bN6dDhw6UlpbWGiy2ZMkSDh06RKdOndz3TvPmzbHZbAAkJSUBcMMNN7iPJTQ0lPXr17Nw4UIA/ve//3k1IwBur0Nt9SIIwuWLyeSHj9EPvVGP3qjDYNSj06rotFp0Wi1aVdt4XcQAY8eO5b333qOoqAhwtmU2b978nO+3tLQUgDZt2lTb5nIxHzp0iCeeeIJ9+/adVlTPtOya8PPz8/odEBBAQEBAnffbvHlzFixYwNSpU3nzzTd58803MZlMTJ8+3S2YNWG1WgGIjo72Wh8TE0NaWtp5uQ8iIiLYtWtXrdstFgvTpk1j1apVFBcX15qu6vWKiopyf3fdY7fddlu1fIcPH5anidBoWbduHXFxcTRp0kQuxkVCoxBYnU7H1KlTmT59ep2t13bt2uHj48PRo0cpKCjwaofds2cPDzzwAK1ateLzzz+vtQwfHx9KS0t5+eWXq23r0KEDBQUFDBs2jIqKCt544w26devGgQMHGDVq1GmP73Rl18aphKOuXHvttWzatInc3FyWLl3K22+/TUJCAq1atXJb0dVuBK3zVkhPT/cS2bS0NHx8fM7LfXDixIlTbn/00Uf5+eefuf3225k6darbEq36AlBYWFhrGf7+/gBMnjzZS3gBmjVrJk8EoVHy1VdfsXXrVoxGIw8//LCI7Hmk5GgqFp2u0lpVMet0qIqKoiqoioKqqGg0ztlz0GhQNBqgkc2mc8899xAREXFG1uvAgQMBmDNnjtf6hQsXkpOTU6P16Ennzp0Bp6ty5MiRjBw5kjvvvBNFUejYsSOJiYmUlpZyzTXXMGzYMGJiYlBVtU7Hdrqya6JDhw7k5uby559/uteNHDmSuLg4kpOTaxThqtGvr7/+Oj169GDFihWEhIQwZswY7r33XgCOHj1a6/G6AptckdmAO/q2f//+56TO8/Pzvc5j7969+Pj4eAVUebJ27VrAGSUcExNDREQEZWVl7u09e/Z0v+m7vA05OTnEx8e77xXXC4ZGo3HXy8iRI7Hb7VxzzTXyNBEaHXl5eW7PTnl5Oe+//z55eXlndR/LxsS5ex1UXfrNrL1//56Z/YjrNxNXioI1r/PY3z/iT8ulc/39/QPwDwh0LoFBBAQGERAYSGBgEAGBwQQEBREQFExAUDCBVZZGM1SiTqfj8ccf9+pucjqee+45EhMTmT9/PmvWrKFNmzbs27ePI0eO4O/vf1pL+P/+7/+48847mTBhAn369MFkMpGUlERhYSE9evSga9euqKrK+vXreeihh4Dq7ZGeVtETTzzBnXfeybhx405bdk1tqn/7298YO3YsI0aMYMCAAWRlZbF161Z69OhBfHy8e1+bN2/mL3/5C0ajsdrxDBkyhHnz5vHMM8+4XZ6LFi1CVVW3uLis/bVr1/LYY4/x3HPPMWnSJJYtW8asWbPYtGmTW6hUVeXxxx8/J3X+xx9/cMstt9CiRQuSkpKw2Wyn9A507NiR7du3c9ttt9GiRQu2bt1Kbm6ue3t0dDTDhg1j+fLlDBw4kPbt27N9+3ZsNhsPPPAAgPs833rrLdavX09wcDC7d+8mNTWVsLAwbrzxRnmiC42GFStW0K1bNx555BH+85//UFFRQXl5OYcOHaJbt25nd2cx97Lg88doXWW16h9Rd2vv4DpW/xe6TnmITtEAyxgTNwVmHeLD2y/++qhw2HFYLKiqisVuQ6u1ohQ50Gig3GpzzwlbhgNUS+MaaOKBBx44o7bX0NBQfvvtNwYPHkxaWhqrVq0iMzOTwYMHs3Hjxmrdd6rSqVMnVq5cSVxcHGvXrmXVqlWEhYWxcuVKWrZsSXR0NAsWLCAkJIS1a9eydetWnnzySQC2b9/uJfTh4eEkJyezY8eOOpVdEwMGDOCTTz4hNDSUVatW8eeffzJ48GB3gA44g57Cw8NJSkpi8+bNvPjii15ltGvXjiVLlhAVFeVug42KimLBggXuaxsdHc348eMBWL16NSUlJe59tmvXjnXr1rF27Vri4uJYuXJlrRZlQ+nduzeBgYHuNtXhw4e7Xb818cEHH9CrVy/27t3LmjVr6Nu3r9tLsXHjRgDeeustxo0bR3Z2trvcmTNnugXWdZ69evViy5YtrFq1CovFwvz580VchUbFV199xfr163n//fcB5wDyBoOBrl27nn1xdSopETExxFRZogLq3nUt+uGlJCcv5eHoS6ce9hzdz56Ufew+so8DR/axPzWZ/an7Scs8RurxExwrziG1OJd8W2nlUoZDcZrwGofD4TiTnTkcDux2O2azmfz8fGkLEM78ht2zhyFDhtC/f38+/PBDuSDCecPzcef6brfbcTgc7sVms3ktZrMZq9WKxWKhoqLinL1wVhXXrVu3un+72l6NRiPBwcFnfX/LxsQx5eA4Vv6SQO1nl8NvMycwdf4msiw6wnuN5pFm3/NS0mB3vj0z+zFkXitmHfqQNjP7MWSeZ7NUf2Yd+pCLzZD9ftkX6HU6tFotWq2zH6xS2fbqaod1Wa6uBbg0BvsXBEG41CxXT3EFZ9vrli1bzom41vnF+I2RjJq3m1YTPmNV4gpe7LKRt7+qPa6j9WOfk5j4LL2B3s8mkpj4GoMus7qU6eoEQRAasbiCMzhv6NCh53bnR+cxJG6e97rmLqt2DfMWHCL0nkV8PPFqdEB8whe8m9ObB5JqLk4XEEVMQAhGgJAYYmIuv/oUgRXOO+3atTtlX2BBEHH1FlfPAWDOGTUFOan+RADs2cy2UpUuvZ3iWimhhIb6ScWJwAqCIIi4nhJXkFPtCkxsK6mrM0HaYAVBEC53ca0T2WRkSH2JwAqCIIi4nj3a9aCLTykbf9qIx2Se5OTUbeQ5q8VyWdavCKwgCMIFYN26dY1LXG1FnEhLI63KcrzQAgxg3Kg4chaP48E5G0hO28by5+9m/Fe5pyk0AH8f2LLic5KTU7ncZl2WNlhBEIQLgOcwn43Cck1bxKjrFlVb3XzcSn5JaEe7qUtYYJ3A1HfuY9Cbzn6wk0bk8VLSqQodwLjJ3Uh89XkG3XITbye/x9DLqI5loAlBEC4bGtNAE6tXr2bNmjWNQ1yFWmnIQBNiwQqCIFwA4uLi3N9NJpN7wg3h0kEEVhAE4QIJrKfICpceEuQkCIIgCCKwgiAIgiACKwiCIAgisIIgCIIgiMAKgiAIggisIAiCIIjACoIgCIIgAisIgiAIIrCCIAiCIAIrCIIgCIIIrCAIgiA0ImQsYkEQBEE4Q0qTl6EpPIQp7i70kXEisIIgCILQUMqSl2PZ9jaKBuwp3+MYtgKjr3+1dOIiFgRBEIQzQFuR6f7usFspy9tbYzoRWEEQBEE4AzRxg9DoTE4RDb6C4MguNQuxXCpBEARBOAML1qc5psFL0JXmYgxriUOrRSMCKwiCIAgNx2DyR/ELxKEoNYrrRSuwheU2Fm7K5Ke9eezNLAOgbaSJG9oGc3+vSAKMqtS+IAiCcGEt3YvtgJduy2bmqlSKKmxe6/dmlrE3s4xPNmaSMKgZd3QJk9oVBOGiJCMjA4AmTZrIxWhM2MFqsaAqKg7VDhUaFNWKBg1mmx2NRoPB7qDMbkNzsQns0m3ZPLv8yCnTFFXY3GlEZAVBuNhYsWIF69evB6Br166MGDFCLsoFJPdEOnqdDq2qRa/VYjDoQGvEV6dDVRUcioKPwQcfrQaNRoPJaARAo9FcPAJbWG5j5qrUOqefuSqVG9oGN9hdvHr1apYuXUpeXh6qqhIZGcmkSZNo3rx5nctYuHAh3333HYsWLTrv123y5MlER0eTkJDQKOpx8eLFBAYGcsstt8g/VxCq8NVXX7F161b3b9d3EdkLR5vmbTDo9Wi1WrRaLXqdDlVRUFUVVVFQVBWNRuNeFI3GLbAXTTedTzdlVnML+xlUbrsylNuuDMXPoFazZD/dlNlgMZg/fz7dunVj5syZ/OMf/8DHx4dnnnmGgwcPXvBrMnnyZBYuXNho62zhwoVMnjzZa92uXbvcb+eCINQurp4i+9VXX52no7CwamJH4uLv5bOCi/VKLmNMXBxjll34I7loBPanvXnVxPXjB9sw47ZYZtwWy8cPtqkmsmuq5DlTfvzxR3r27Mno0aNp1qwZ8fHx/Otf/6JJkyZ8+umn8kSoBy+++CIvvviiXAhBqIO4nneRtaxhxc+lYNvI54vSpWIayEXjIt5XGS3s4vYuobSN8nH/bhvlww1tg/jv9hz3ur1V8pwpFRUV+Pj4VFv/17/+leLi4mrW2k8//URFRQXBwcFMnjyZK664otay09PTmTVrFunp6eh0Onr16sUjjzyCVnuySr788ku+++47KioqMJlM3HfffQwYMIC1a9fy3nvvAfDdd9/x3XffMWPGDFq2bFmn81qzZg2fffYZZWVlGAwGbrjhBu6//36vNDt27GDBggVkZmai0+no0qULEydOdB+f1Wplzpw5bNu2DYvFUu2c7733XndZ9957L7fccgv3339/jS7r0x2Py8X+9NNPM3fuXAoKCjCZTEyePJnOnTvLv1i4ZMW1a9eu7m3nw11sWfkFP5T2oH//Xfy8/CuOPjaJ5lJFl74FWx+qWrRnStu2bUlMTGTz5s1e6zt16kTv3r29BGDVqlXcd999zJ49m8jISF544QUKCmr2sRQUFPCPf/wDo9HIzJkzmTBhAhs2bGD+/PleZS5fvtxdZv/+/fnggw9Yt24dvXr1Yvbs2YSFhdG/f39mz55N06ZN63ROS5cu5YMPPnDnu++++1i1apWXq/ngwYO89tprxMTEMHv2bCZMmMCuXbt46623vCzRXbt28eyzzzJz5kz3OZeUlAC4jzksLIzZs2dz55131vt4XMydO5fx48fzz3/+k8DAQN58802sVqv8i4VL1nLt2rUrw4cPP0+WbAFffLEWW48hzLpvID77vmfZ0SpJlo0hLu5B3vpyPAM6xBMXF0ebXvcw87ccz0SMiYvjwbe+ZPyADsTHxRHXphf3zPyNHK/Ccvht5j1c0yGeuLh4OlxzD29vPWkU7ZnZj7i4MXz420zu6dXGua/Ot/H8b96lWA6d3E98hwGM//IIjeWpcNEIbPcW3gMp/3dbDnuPl560Vo+XsmZvvrdARvk0aJ8JCQnExsby5ptvMmrUKP79739z9Kj3HZednc2qVasYNmwYAwcOJDw8nGnTpqHVavn2229rLPezzz7DZrMxffp0mjVrRo8ePRg2bBiJiYlYrVasVmu1Mu+//36uvPJKVqxYgcFgIDw83BmxZjIRHh7uZfnWhtVqZfny5fTr14/777+f8PBwBg4cyLBhw/juu+/Izs52/+mbNGnC3//+d8LDw+nRowcPPPAAW7duJTs7m/z8fI4fP86oUaOIj4+nWbNm3HfffdhsNrZs2QJAeHg4JpMJjUZDeHh4jZ6Auh6Pi+eff56OHTsSHx/PfffdR0VFBceOHZOntHBJiKvBYGD48OGMHTvWvURHR9OtW7dqIrtixYpzoK//ZflGGz2G3EbgdYPp77OPbxbvqSFhInM/9OWJz34h8ZuX6K/+zrxRj/NJTpVUcz/E94nP+CXxG17qr/L7vFE87k5k4c+ZIxn1QQqdn/2SxMQvmdJyN2+NfKhKOWt5deournlrBYnfvMWQiN18+uh0Vllcx7yCiXck8KMyiDe+SeSXzx7G9ua7JIrAnqE1GWXy+l1UYeOhj/fxzH8P88x/D/PQx/uqBUFVzXOmGAwG/vWvf/HSSy/RqVMnNm/ezNNPP81LL73ktpx2796NzWbzsmi1Wi0tWrQgLS2txnL37dtHhw4dvESxffv22Gw2jh07xr59+7DZbHTt2rWa4L/88sv1Pp+UlBQqKiro1q2b1/r+/fu7zwXg8OHDdOzY0StN3759WbRoEWFhYQQFBfHee+/Rp08f93ZVVc/Z8biIiopyfw8NDZUntHDRkpGRUc1ydYlpXFycezFWdvmIjo52fwdYv369u6/s2SJ90ZdspgP9BgaCbgBD+/twdOnnVLeve/DMklcZ1iWGmC738N63z9GDzcz/wFuMezyzhFeHdSEmpgv3vPctz/WAzfM/YA9A+kf844NDtJ74Oe/d40wz5uNXGWKoWk5rxn/5CRN7xxPTZRizpg3Bp/RPth1wHfM8fiztwXNLZnkcz9Nc1Ujq+aJpg73jyjAWbjpRTWSXbc85ZZ6zQWxsLFOmTAGc3XY+/vhj5s6dy8SJE91u4KeeeqpaPk9B8KSkpIStW7d6tVO6SEtLw2az1Vu0ToVL8KuKU1iY93UqLCxEUU797nX06FHee+89UlNT3cd7ro5HEC4n3n//fQ4fPgzA2LFjMZlMvP/++5SXl5/DvR7lq+W7oMOT3BYNoGPADb1QV67k643/pOvVnmn9CAj0+Bk6kH5tp/Pa/n1Au5OpvBMxsF9bpr+2n31Au6SNbLfFMX6wRwuv7mp6dICVXuVE49UjskkTwtjm/pn0+y5oMZ7eno+Q0FCCRGDP1IL1oXsLf35PKapT+u4t/BvkIs7MzGTnzp1cffXV+Pr6utcPHDiQpKQkDhxwvkIFBjpvojfeeKOam7Y2gfT19aV79+5ebh8XAQEB7rLrK1y1ERMT4xZ4T6q6WQMCArDb7bWWU1JSwjPPPEOvXr14+umnCQgIAKjxheFsHI8gXGo0adLEK4DpVJbuTz/9VE1cu3btenZHeTq6jO/3QYcnbyPapXdDbqXvkz/z38/X8NLVA06ROZomEUBZCSWAb22pnIkoKYGsrFzgEO8OiuPdqgnjDpJ8JsfeohXxjbSeL6qRnMZfH82oT/bVOW1DyM/P58MPP8RsNjN48GCvbWaz2S2erqjZPXv2MGDAyZswJyfHLTw1WcR79uwhODjYS5RPnDiBwWCgTZs2qKrK1q1badWqlXv7vHnzyMnJYdq0ae51pxLCavdhixYYDAbWrVtHhw4d3Os3bNgAON3UruPbuXOnV94tW7bw/vvv88orr7Bjxw5sNhtDhw51n2NtAV0Oh6PBxyMIlyKuaGCXyObl5fHTTz+Rl3eye+HKlSur5TsXoztt/XAR+wBeu5a416psXL2UVZYBDNLVljuZgylAC99axRUg2ZkIX18IDw8BepLw8xsMrapCqj8RwIG6HvyJDNKB6EZYxxdVFHHPlv7Vgp1qs157tvRv0L7atGnDlVdeyaJFi1i4cCGpqakkJyfz5ptvsn//fq677jrA6Qbu2rUrCxYsYPXq1WRlZZGYmEhCQkKtQU633347ubm5TJ8+ndTUVFJTU3n99dd59tlnKS8vR6vVMmjQIJYvX+4u8+uvv+bXX3/l2muvdZfj4+PDli1byMrKqmYF1vg2pdUybNgwfvnlFxYuXEhWVharV69m+fLlDBw40O2aHTFiBBkZGbz++utkZWWxc+dO5s6dS2xsLEFBQe6Xik8++YTk5GRWr17Nk08+WaOlnp2dzZ9//klOTk69j6cubNmyhWnTpnldh1deecWrDj766CPmzZsnT3ahUYmsK9YiPz+fn376ifz8/FrTn5uhE7fy31Un4KoprEpMJNFzeXUQPqU/8MVKi0f6Ygo936dzNpCUAs2vaONVarF3IjY4E9EGoOuVtGEn65OMxMTEuJcI1Y4aGoCurprQvQPs/YXVno+XnBzyRWDrx4zbYk/Z/cbPoDLjttizsq+EhAQefPBBNmzYQEJCAs8//zyHDx9m7Nix3HHHHe50f//73xk0aBCfffYZkydPZv78+QwaNMgrjSctW7Zk5syZlJeXk5CQQEJCgltwXYEM999/v1eZq1evZuzYsfTt29frz5mfn8/kyZO93npPxR133MHYsWP5+eefmTx5Mp999hmDBg1i9OjR7jStWrXiySef5PDhw0yePJnXXnuNrl27MnXqVPdLxYQJE0hJSeH555/n66+/5rHHHkNVVY4cOeIu56abbiIsLIyXX36ZH3/8sd7HUxfS09NJTU2lqOhkE8KBAwe8jqfqb0FobCJ7Ks7ZuMQbv2blCZWr7/wr8R5iFxMTQ8yIhxkeYWPtF19wUi4388ZDz7N8Wxpp25YzZeQLbKYHo8e28yp28xsP8fzybaSlbWP5lJG8sBl6jB7rbF1t/iDjb1JJnHYrjy7eRlpaGtuWP8/dgwYw9v2UOh969L3juMlnMy+MnMLybWkkb/iQR299hT8aSd1qHKfy4dXi8rPb7ZjNZvLz8y/IbA/v/prOv3+teZSRx6+PbrB7WBCESxPPx53ru91ux+FwuBebzea1mM1mrFYrFouFiooK2rVrd06O7XQDTpybASYsrJp4FY/93J+5f8yp0Q289fmrGbEojhd+X8R9P48hboqVSTP9WD79R46U2dCF92L83PlM6urqtbGMMXFTsE6aid/y6fx4pAybLpxe4+cyf1JXTB5W7W8zJ/DUJ79zvMyGamrJdeP+xWuTriUUZz/YIfNaMevQh9zuyrJnJv2GfM/glb+QUFkNlkNf8sRY534wteSm6cMoTngb7axDfHh7w6/Q7z98X++xiC9KgQV48ON91QKeurfw5+MH28hTRBCEi05gaxPZRjWjzrIxxE3BW/SqJ2KMM9FZEbgLTUME9qIdyamqq/hsuoYFQRDDz0PCAAAgAElEQVQuBFXdxTJd3YXHqlE4YFP5025gh13PfpuKRVM36dRerCcdE6RnzsjW7qjiOSNbExOkl7tBEISLXmRdg7jIhOsXno1lGnR60DqsKHYHhXY96TYNV/kpRJ0m70XrInaxdJtzOD2ZXF0QhLo8v6p+b0wuYqHx8dayH9FVuogVrYpWq0dRFRRFZYCfBoOiqdVFrL3YT16EVRAEQbgQHLRpaH8Kb7Eil0gQBEEQzpwyzaltVBFYQRAEQagHR0/Tr14EVhAEQRDqQRQVIrCCIAiCcLZp2TxaBFYQBEEQzibWPSuIVE/dNVQrl6lmqs4mIwjCxU9N3XQ8u+i4uiHabDb3p8ViwWazYbVaMZvN0k3nMiNOgVSP36EGldxNKzGVpZ42rwhsLXTs2FEugiBcBgJ7pv1ghcuLaL2NWL0NrVaDVqtBr5hZV3IUFI0IrCAIgiCcTfre9LB7TnARWEEQBEFoILP+cQOKxmm8Okducn5/9o3fRWAFQRAEob5M+ddPNc6mIxasIAiCIDSQV6f19bJgn3tjc61ppZuOIAiCIJwDxIIVBEEQhDry1Iy1Xi7iUyEWrCAIgiCcA0RgBUEQBEEEVhAEQRAuDqQNVhAEQRDOIqpRi0ajEYEVBEFoLGRkZLB7926vde3bt6dJkyZycS4SNCFBpB05gJ/RJAIrCIJwIVmxYgUZGRlugS0vL/favm7dOrfANmnShKFDh8pFa6yWq0GLOa+QHxZPY+wTC6QNVhAE4UJbrYcPH+bw4cPVxBWgvLzcvd0lxGebZWPiiIvzWNp0ZtDot/nluOWMy9ozsx9xcWNYdqlYpIEBWLBhjIhANahoggLRBAdijIrColHQhAShGrWoRi364DDKywsZ/tAs9MHhYsEKgiBcSB5++GEOHTqERnP62VliY2PP3YHE3MuCzx+jNZC15xvef+EdRl//HeO/+papnXTn9iIsG0PcFJh16ENub2T1s/Tfkwhr0pTC/OPc9uhbmMxmPpt5Ny1adUJRNKQe2smd4/+Dj68/e76dy5FdiZXKLG2wgiAIF5wPPvigTulmzJhx7g5C9SciJoYYICZmIu9e34+Zg+/k3YmzuOWXBC7XWXD7DE8gIrIpfyYuZvvPn3P1zWMpyk6n95RPMPqa2PbTQo7s/oX2PW6l+w1/peeNDwLwn2cHNQ6BLS4uJjU1ldzcXPmnCYJwzjjdhOuAe7J114TrVqv18pxwXdeJhGlD+HTsp8xbk8BbA1wbcvht5gSe+uR3jpeBKao7496Zz6SuplqLshz6kicee4HVycVYdH7ED3uZj2cMIUq3h5n9hjDvqDPdlLg4pvSfxaEPbz9NvvN3GTZ+9w5aVUFVFJrGdULRqviHReMbEER5cRE6v+ZYio8SFBzKhv99TN6xnQCUFmZfeIEtLi5m+/bttGrVirZt29bJTSIIgnC2BFYmXD8F1/WhG8vZ+UcyDIgHLPw5cySjPijlhn99yZd94YcnH+SlkQ8RtHEJD4TWUEbOMh69I4Hf48bxzqr7aXnk3zz2+ERu14eS+FI3Hvs8kfu/e4rrXoRnE19lkCmkDvmu5nxp7MB7nyU4IBitVodWq2K32mpMdzzlIPu3fs/oaV8CkPJ/Ay98kFNqaiqtWrUiKipKxFUQBKFRWbE6tIDVanX+Tv+If3xwiNYTP+e9e7oQE9OFMR+/yhDDZuZ/sKfGIta+8jw/24bw6hcJ3BgfQ/yNLzF/YhtOfPE+Ky06AqJiiAkxAkZCYmKICTHVId/5uwQ/fDyN5D9W8vuvSzh6aC+Ktubp6YwBQZQU5LJ705f878s3sJrLL7zA5ubmEhkZKTeyIAhCYydpI9ttcQwc3NxDhK+mRwc4un9fDRn2sGFzEeq1gxjkYXI279mVENtB9h2obUf1zXcOjPghUwAICo0msmkr9IrK4PufcluycZ16Ed/9VnwCghj+6HsAdOg9nL9M+rhxtMGK5SoIgtAIsViwAlqtUyqysnKBQ7w7KI53q6aNO0hytQKyyM4D24+TiIubVGWbyuGDUHP0VH3znQN9MvkSEXINWq2W/JzjlBTq8A9tT172cRRVQWf0RdGbyDl+DNXHnybx/amw2lC1WokiFgRBEGrR1zVr2YIPA6+KByA8PAToScLPbzC0qnqo/kQA3sZlOGHBEDn4P3w1sboiuppbq1PffGcfu6WCcuxotVq0le7hsrJiVMX53W4uq5x8XYPdXEaZxWkwOiwaGWhCEARBqEld/2TWaz9Q2vyvjHNFEHe9kjbsZH2SkZiYGPcSodpRQwNqCDxqTZdOPmRu3EhuRIxHHiN2ewghXoHHViyW+uRrvIjACoIgCGAr4kRaGmlpyWz4fCajB45gXmorxs+ZctIb2/xBxt+kkjjtVh5dvI20tDS2LX+euwcNYOz7KTUUqmPQ46OIS5vP/XfP5H/JaaQlb+DDR29lwO1Ps7q0MlmAPz5sYcXnySSn5tQ9XyNHXMSCIAgCpC1i1HWLAFBNQcT1Gs/8JY/Rz6vTaSBD31tD0MwJPPXiXVxXZkM1teS6cQt47fEWNZfbbirfr2rOE4+9wIRB87CgI7zjMGZ8OYOBPpVpBoxjcrdEXn1+ELfc9DbJ7w2tW75Gjsbh2TGsDjgcDux2O2azmfz8/AbP8rBu3Tr69OkjN7cgCOecs9EP9lwMNPH2229z/PjxU6aJiopi0qRJUonnme+XfYFep3O3wep0OhRFQVVUlMoBKFxtsK4FkOnqBEEQGgOPPPIIv/322ynTXHvttXKhLjJEYAVBEC4wRqORgQMHyoW4xJAgJ0EQBEEQgRUEQRAEEdhzzjvvvMNjjz3GsWPHqm3btGkT48aNa/TH/80338hdKAiNEM8R5mS0OaE+98NFb8Ha7XY++uiji+qYi4qKADCZTvaWLi0tlTtYEAThEuKiD3JSFIXU1FR+/vln+vfv3+iPNyMjg+nTpxMREYHBYCAlJYUNGzZQWFjI22+/jcFgkLtSEARBBPbCExISQkREBEuXLqV79+74+/vXmjYzM5O5c+eSkZGBoii0bt2aiRMnotfrAadbef78+Tz88MN8+umnlJeXExAQwOjRozEYDMybN4/8/Hz0ej233HILgwcP9rJK//Of/3DggHMkzqplu2jSpAlz5sxh586dzJs3Dx8fH8aNG0fr1q3dA2oLgnDu0Wg07r6wnt8Fob73U9Xvl0SQ0+jRo7FYLCxcuLDWNEVFRUyfPh1/f39mzJjB5MmTSU1NZc6cOdXSrly5kieeeIKnn34ak8nE3Llzeeeddxg+fDgzZsygTZs2LFu2jIMHDwLOuRJfe+01srKyeOqpp3jqqadITU3l7bffrvFY9Ho969evp1OnTvj4+LB7924RV0EQhEuMS0Jg/f39GTZsGNu2bWPHjh01ptmyZQu+vr5MnjyZ0NBQ2rZtS58+fdi/f3+1tFOmTCE2NpbY2FhGjBhBRUUFt956Kz179iQ0NJTRo0cDuPOuWbOGzMxMpk6d6s734IMPkpycXGMAVlJSEgcOHGD06NE88sgjrFq1itTUVLkbBUEQGhnZGUfJPZFOTmYauVnHyTmRQc6JDPJzst1LXk42hYUFlUsh1spZCy4Zs2nw4MH89ttvLFmyhPbt21fb3q9fP/r16+e1TlXVWgXbRUiIc14kH5+Tg1+6vpeVlbmFNjIykvDwcHeaNm3aAJCWlkbTpk29yu/ZsycdO3bEx8eHFi1a8MorrxAcHCx3siA0AqpGiEo08eWN75UmdHodWp0WrVZBq1Nw5JvRKBYUVQWlcqo6pQQAe5GGogIzwWHhl9ZITg8++CBvvPEGK1euJCoqqtr2xMREVqxYQX5+/lndb1FREZmZmTV2C6ptfFFPwRZxFQRBuHjQhhpRFA2qVkWjaNCgQVGcL182jRnVor+0LFiAK664gp49e/LDDz8wZMgQr21r165l8eLFjBo1ii5duqDX691BTQ3F39+f+Ph4Ro0aVW2bZ1ccQRAuLitWLFah2r2BxnWTnDbtJTeS0z333IPBYGDlypVe63fs2EFISAg9e/Z0R/a6+qM2lJYtW3L06FH0ej2hoaHuxeFweFmqgiA0XjFtaBrhUr9PzvxeuuQE1sfHh7vuugu73V5NBLOzs1m6dCnp6eksXryYr7/++qzsc8CAASiKwksvvcThw4fJyclh8eLFPPfcc5w4cULuTEG4iMS0NitWqZyWTLj87hmNoqlyT9Qt7yU5FnGfPn2Ij4/3WnfzzTfTu3dvVq9ezT//+U/S09MZPnw4ACkpKQ0W9RdeeIHw8HBeffVVpk2bxu7du5k0aRIRERFyhwrCZSDIwqWH3WGr4aY4g/tHJlwXBOFyouqk667F5fWy2+1YrVbsdjs2mw2LxeI14XpsbCw6nU4u5GVAdskxEv/8Fr1Bh1arompV56eqoFEUtFoFjUap9HA4o4mtORWoOSEEBATKbDqCIAhVrVWNRuPlIvb8npmZKRfrMrFef9+f6HYHV78nTu/pkOGDBEG4rEX1VE48z4eqoigoikJhYSFHjhwhOjq62lCowqUhrCcKj7Fuy/ecyE1Dq9fStHnTyvvh9M0GnptFYAVBuOxFteq4xIqieAVKugKcXNsKCwvJysqioqICi8XidiPbbDYcDgc2W/W2u7M51vHevXtp27Ztg8rIy8vD19cXrVbr9SJRV7KysrCU1H9MgfzsTIxX1P0FpazCzNb57wHQdfSjmAz6M673qrjqVVUVt/tXq9NSkJeLTq9Fq9Oi0UBxeTnBAX7V8lLDICS2QofbNSwCKwiC4PGA9BRaT7F1fVdVFVVV0Wq12O12r/RV11XtzXC20Ol0DZ55S6/XYzAY6i2wer0ejUXfgHPQotfrzmB/OqJbdAAg0N+3YXWtKG5r0ymyzpH9VK2KVuf8dHksFJc7WKNB0VRGkldrTqh5PyKwgiAIpxBdT6FVVRW73e4WWJeQKoriJa6eInsuLFiXODYEg8GAXq9Hp9M1QGDrH+yl1+nQGc4svyHUec5nmq8mC1bjYYUqisY9MpNWq6KoSuWiQVEVAnx9K4W1bl10DFpFBFYQBMHTQq3qJnY4HF4C61pc4upar9VqsdlsbmF1LWdbWD3FzWg0NlhgjUZjvQXWYDCgWAwNOAcdhjN08+p0auW+6285u0/T/fIEikZxi6pWq9IkJppyqwVVqxDk71cZIezp1ag5yMnVX1YsWEEQLmvLtDbhUxQFm83mJbKqqnp9usqwWq3u9J7W67kSVk9xa+gwrEajEZPJVG+BNRqNqA0SWD0G45kJZedht53Fe6Dys7Id1mnFKu72WINJX9kc4OyS43y5cg464Q580yinvMdEYAVBEMGtFFzXp2eQU00i68rj6Tp2BTZ5Wq+nEtqGCLBWq21wX1ydTude6iOwOp0OR33nsXaA3kdBq1PrlPy75xJqXH/LCzNPWaenXa85ObawU0g1qGqli7hSbDWKglopsJ5tt67+r54WcbV6kr+WIAhixXo/fD3dvzabrZrIVhVYV7ssVA9sOheuYq1W2+AuQp4CW59hIHU6HQ5d/STEZrWi1WnR1TH/ba+8cVbquyYhdM2C4xRQDYpGg63QhEPR4FA0aAoCsKuq+xoZqcCuKNjC7U6L1mPwf40GlGItxSYj5tKKxiGwrptZEAShMQiu5/PIJaAukXUFM7ncyLW1u54rF7HD4TgrQU6uMuorsHq9Huop8lZFOeMgp+V/n+T1e9jrbze4vjUaDZY8PdpcFatqwmA0otcbCAwIwM/gj9HPhLGVER8fk7v93Vxhcb5oAXa7FYcNbHbnBOsauwWbv5ai8kIyM49feIENCQkhMzOzxvlbBUEQzoeo1vbpEtXaHs6uPq+eAlsX93BDLNqsrCxCQkLcFnN9cXU3Uj2sszPNr6j1GwxQtSvo/FVURTmDuqpSxmny1nY+5nw9GjTY8nzx9fMjKiSE0NgwDEZ9ZZ9Y1e2ZcP32DHAz+Rjd210vYJ7702g0RBBBdEyzCy+wzZo1Y/v27QBERkaKJSsIwgXFM6rYZaG6hNb1MPVsp3V91jTG8dm2XLOyskhPT6d9+/ZnxUXs6qZTbxextn7twBWWCqeLWF93Cbprznv1PldzngF7ni+KqiEyOIzQ0HAC2vlXGx5TcQc8eQ8sUvXT816pDZPJcOEF1s/PjyuvvJLU1FQOHjwo/25BEM47NQliTS7fqlHCnt/PpVvYRVBQEJ07d8bX17fBZWm1WvdSXwtW1dbPitaqKqpS//ynFdRcp/vckeeLr58/UcHBhMSGYawlatmzv7OnmLrO03O9pxifzmpuFG2wfn5+tGvXTv7lgiA0GpGtqV3Vs721anccz+Cmcy20Z4OGCqxWq8VWTze1qlXRatQGu7k9seQ5RdWe60tEYBjBESEEtws5ZZ6qbe2e62qyYj3FuCaB9rLSy80SRSwIguD5YK0p0MkzqtjTfewpvrUJVGMVW1ebYkPaYFWlfgJptWtQ9M4xgBtqpdpzfTEYjUSHhBIWHompraHOolqbSGo0GkpKSrCUFVNSbsFa6gxiUozO83V1kdJWdnEyaAyoxsrRm1Q9RSWFpB5LEYEVBEE4nci62mJdQS81uY7rIq6NSWw9A3fqI7CuwRnqdZ0VDdpAtdrIR3UVVQoCCAz1I9I/lOC2UXWu19p+5+XmkpuZQ1FFMRXl5c7uODoFf70OX50JHZXjF1dYnJ1yKsopsZVhdjhFuRSw2J1lFuefwGYMdIqt/KUEQRC8H76eQujpMgTcQlvbw9pTcBtz0OZZiSI+AwtW0Rvx8/dxCo/RlyKNL6g5pxfVHAO60jCiI4LQRwbh4+OHpbQAv5Dwmq3jijK0BlOt28pLitH5BJKTm01ubi4lxUUEGg0EGYw0CQyEwEBv17HHS5YnARhqbIc9XJSDRqnA4OMvAisIglCTdecS06rC6/lQrcl6vVh6QnjODFRfgc3NTEOrcQ6Kb1ecblO1MrrZNeA9GFB1GgKC/NmR+BW5GUcACGofS5cWt5NRureKlerMb8/xw88/gOahUQTEBWIpyWfFh1MJad4RgJv+8lSNxzV3+jAeSvgcv9AIr/UV5WY+mnEvV113L6HNumE359PU4IM+MrJa/WlOYwErdexeJAIrCIJwChGqySKtOppTbTTmYKeqkbP1eTHoHN8Zs8XsFDC7GbvZQrnDRrnZDlRQYbVjMxdCGZgCQziy8zfaX3MfPoFh7F//Cb/sOUzfu58FwOSavCAcTD5+1dpSjaZIrh0+jYyD2+g56J7az6vy3MwVFuwOB5YKM1abmZK8E/Qd+gBXdLqZCnM5SqkOW7n1tNeopmtWV0RgBUEQ6viQPZ3r92KyZhsqsBqNhmyHjcz8AgxGI5GRUfjqFMyFJZjMdjR6hQCtFq1Oh0mnYPIPAQ3EtulCs/h2tGzVjk9evoumTZuyeNZjXNl7AD8smsXQh9/GWnKEtSs+BiCu43XcdE8Cv69eTPKW7wBYt3IOj0z/L3v/+Inff/7Mne76O/6GxuYgKzcXtbiM9Uue4/qhU/h1xSzuGv9vykPCSNm1nT+3reTGu6ZAeb77XIoqikkpSaZQhUC/IK5Qm6GrlEhNLW5iEVhBEISzJLJV22cvVvfw2RLYVm3a06qN8/cXS5YAcPfIkaexLqGkpISkH+bRol0PNBoNual7OBIUxtR3NgJQZm5Dh2vuBuCVhztzw/DJ9LjxXnrceC9/bliDZu18/MMiSfzvHB765wpnnvJySoty0aBBr8DK9yfQ59apRLaMp7Awj6yUA0S0jOf3DYvo3Kk/alkJNo9zdokrQEFJPtk+EK2La1CdKvLXEQRBqJ8weUbg1tfNeimwY8cOMjMyKCw4fdr/vvsYC2eMROfjz+1jX3Wv7zZolPt73v6DrPzwWb56dyLm8mLKi4sAKM45wa9L/smNf32FtLQ0OvYdzUfPD+X3Hz8g0KgjwMcPgGXzHqdZq6uIvaIj5rwsug24n99/+pjyijJS9qynRdf+bvewRqPBqrFRqHVGN7umo8srLmhwfYrACoIgnAPRvVyW0tJS1v78M0MGDT3t+Ws0Gu6YOI/HX/mem+/7P/Qm38r1EOAbiKIo5GdnsmTeePrf+QR3T3yX0LBmmC1W8vPy+GzWaHrfOgWNWYNvRQUDh97Loy98i0aj4bNZo1EMejQauGbwo+zf9hNFmVkoikKHbjdy8EAS+7atoUOnAdWOSa/REWT3FtMQ/6AG3xcisIIgCEK9WbRwIcPvvhuN4ezIidlc6rRic7PZ9MMiMjOSsdorOLBxMYGBwcQ0aYGlNIuAqEj2rV+JOTebVrHXYC0tcpfRKrYnt93/Gt+8/zj2Squ2zVUDWb1kBt363odSWlxtv21COhPkF0SgDWJ9gojWxTXgLJwBWur06dOnn2lW1wwS5eXl+Pv7yx0mCIJwkVFcXIzRaPQaa/dMKCgoYPeunVSYzTRv0YKMzHQyM1KIb90Gg9EpMGVlFVRUlFNcVITNbkerGAiJaUFObiHZaSc4djwNq9WKzVpGSExrdvy5Gx+/IJTwAPYmLkOJCqV992FEXhHHobRDOEqtHDu6k2NHdxLaoh37Mjew87cfyMk5yqAxU7AaFMr0FUR0aIs+0g+DTww2JR8lzIRvQAAHt66jx71jKDVnYdZXeC0miw8RSjARpib4q8H1vq75RXlotHq0OhWN4wzjyF1jcJrNZvLz82nSpIncqYIgCBcZGRkZBAUFodfr69UPNiUlhX179nDkyBEAysvKSM88zoB+/WnVujV5WRmVtpwGRW9Ap3UQEBqKpawCpcIGgFHRoNfpUY3OeNu9xj8B0JqiCXacjMHN01i9ftdEVvlRAMKNzcnTWLGWpRNubI6PGgbAmvkz8WvdjI59bnKnPRdUHCrDz94Ug49eoogFQRCE+tG1c0e6d70SvaqSfuwIv2zYyjU9uuLIzSciLLJ6hjIboAWDt/S4+6NWdoW1lqWTVVVA63hMnuKZVX6UJhYry+Y8T2BgMFddN4n00j3n4cpUACKwgiAIQj3ZumMnAJqyHCJbdaJbj+6kHEkhLevkEIh+Shnl5eVOa1anQ1M5g46qek8dZ1JVCDr7x6gJDOTu5+ZhcZSdJ3E9iQisIAiCUC8Kju0GwFxciN1cAkBhkXcAUdWeOwH+fih6X6AUVVXw9Q0gJTMNy4l0wsxNCG7mVFltmNGdx5pdTnpyDtHxoTRvfhWOggKs/lq3tWrNLq+Wx8X5FlURWEEQBKHBRMc0r7bOL+DkHKw2m3OaN6sdtApUWOzYzSVuMW7RtktlOjNFKpAHKUfTatxXgL8fKevSCKE9i1++h5FTF3Fw80GsPg60pc72Y12EEZOx+gQEudnFaEs1dOt7Mya/EjJ06Vizy8n74zC56GhzY+tqYm4yqoRfFeW13lbowBDnPZGANbu8RmEXgRUEQRDOGapaOQGACgFBwYQ3a+neZimroLwwn82/fMyAkU+511VYbWQe2UdkyzYYtCr52c5gKc+84ByvOLZNJyKjYtCZnFHLxw4fAiAyKsYrbaYpjYCAQJJ/Xw5qCO27Xkt6+mFQQ9AWFXPwvwerHbsFKDx60EvgTb7+WLJKUYwOVH+FskwHWgWUtBJUf2c3JVuRHXxFYAVBEITzgMEvEFVn5Is3naM1aawO7nryI1bMf5HstP0UZKdyx/g5LH3vUW4Z+y4Gv0DMJYUkrf431w1/hvLCfL54cxQ6vR+BYc3Q6o3oTAYio2JYMf/vWMxOt/TND7xOQGgoS9+dSGTzjmQe3UlpYQ433vVPNFYrW9csRG/wJefYFq4bNhmruczL4j4VxYW5BIdGoOqc1qrN4sAv3DmhQWlBNoG+4VRY7egMuNOIwAqCIAjnFB+TD6n7E4lrdx3dbx4NgF7vQ9fr7+fgrl8ZMPIptIqBkoJcdx6bpZyCgjx8A4NZMf/vXD3gbppcMYD0g9s4uP0n9Hof1n87j7hOfbmy712k7tnET59PZ+TfPiQ/6yjdrr2Fa24dR8rOTezc+CnDHn6T1l360SK2Lc2vHExW6pEzt8h1RrQ6p1Wu1QHoqSgsQFV1GHz8MVRJLwIrCIIgnFNKy0ppddUQ/vdJAqnvTqT7gIeJatnGvb0wJwdT5YhLNZGfdZQmVwwg9fA+mrXq4l6feXQnFnMxh/5cC4C1tAh9ZZRyUNOeHDt8CJ/ASAoK8iguOznSU1bqEQrz887a+bkioxGBFQRBEM4n5rJiDFqVO8bPISv1CD8unMbgUbPc2xW9M3BIb/DFbi7Dx+RDSd4J93a9wZey0mL8/QOosNq8yu5986M0a9fL/bu8wuxRZkGtlqhGVXHYbOf0vGUsYkEQBOGcEhQSwfEj20jdswlHhQWd0YDNUo5PYCQpe9ZRmpmGyTeAJs1as3P9V1iLi/h9zfsA2K022lw1kN+/n42jwkLSd++g1RuxW210vf5+1i6bTcrOTe7lVJiMgRz4cwPW4iKaxbY55+ctYxELgiBchpyNsYgLs9LrlFav12HwDePQzl/JzT5Mh55DCWwSj6+vP+ERoRzcv56o5p1p0b4v2am7KMg9Ss8bxhIc4ofGJ5KYuCvRa60cObiNdj1uo1nLlhgDotEHhNO8RTdSkjdQlH+cqJZXYgrwR1G0NGnWjsLcHALCown216P6xtCyQ08K87PJy0wmqmVnCnKz6ny+5ooyQsNjnJPaelBaVISiqJh8fKvlkbGIBUEQLkPOxljEx3ZvrnN6g18gPiYfwBnAVJifh0ZV8fcPx6hXKCgtwWY24x94cjgnm8VBeXEWFgf4+we4o3MBigrysZrLvMotLSt1l1FaVkpFcQEGv0AMWhPlxVnYFb27fFf+Or+QFOYSe0WXan7fvGynSAeHhVfLI22wgiAIwjmnoriAimLvNlGHzUZh/nEKPQUrq2bRu3v0eAA+mPXiacv1LKOiuIAKd1tsWa3l10FfO3YAABbZSURBVOml4kiy+7uqKu7BM/JzMjl6eB8B/icDtXQmfxFYQbgQZGdnU1RUVKe04eHh+Pn5yUUTLmv27t13Qfdftb+sa5QqVVUI8PcjOyOdQnCLrKWsSARWEC6EuO7YsaPO6Y8dO8ZVV10lIisIjQjPUaoMuhD8AkJITztKYVExkVFNUFWdCKwgnG9clmt8fPwpgwQzMjLIyMjAYrHwxx9/iMgKQiMnOqY5xYW5pB7YR1iTaBHYxkzB99+TMWsW1qwsNKqKqXNnmr38Mroo5wDUx994g+xPP6X1559jbNu2Wn7X9prouG2b1+8T//43J/7zHyIeeYSIxx8/bTna8HBinnsO/759paLqib+/P0FBtc/PlZd3siN8fUXWZrOxc+dO8vLysNvtaLVaWrduTXR0tDvN9u3bycnJ8crn6+tLx44d8fX1rTUNgMlkonfv3l7rkpKSKC4upnfv3phMzv6NxcXFJCUl1XqcoaGhXHnllRw8eJCUlJQa0wwYMEBumsuIa2+5q07rf/vuy0Z13H4BJ61ZEdhGSv6333LsuefQNWlC9LPPYk5JIWfJEg6MGMEV332HGhBQ57LCx451i3Kt+1u50v1ZVWCrlmMvKSFrwQJSJk0ibsECfK66SirsPGCxWMjKyqqzwNrtdjZv3kxZWRkxMTH4+flx7Ngx9u7dS3l5OXFxcV7p21a+pJnNZo4cOUJSUhLXXXcdWq22Whr3i5bW+xFSXFxMcbFzXNj09HRatWoFgNFodOetqKjg8OHD+Pn50bRpU7dQexIbG4vBYJBKFy5qa1YEtpGSPmMG2rAwrli+HE3l2Jf6pk1Jf/llcpcsIfzhh+tcVuDAgTVauC5K//gDc1oapg4dKNu1i9I//qhRND3LMbVrx+FHHiFv+XIR2HqSkZHhZaVWe+nJz29Q+ampqZSWlnLFFVe4hSw6OprffvuN1NTUagLradVqtVr279/P8ePH3Xmrpqnxvk1PR6PR4OfnR0ZGhltgtVqtO29xcTGHDx/GYDDUWp4EdglVLVOX5drYLNZTIQLbCCnbuRN7WRnBd9zhFleAwMGDQVUxtGhxVveX8/nnKCYTsR9+yJ4+fcj5/PPTiqbLgraXlkqFNUBgzyUu8a4qYh06dKCsrAybzYZa2xiqlZap7QyHksvIyCA8PJywsDB2795NdnY2YWFhUtnCZYkIbCOk4vBhoPoA0mpAACEjRpxxeQf+8hev301feIGgW28FwGGxULR2LX59+qAYjfj370/R2rU4LBYvcffEXl7O8TlzAPC/9lqpsMb6olbm7O+nKN4944ODgwkODq41n9Vq5ciRI4CzbdSTNWvWeP3u2bOn29LMysrCZrMRGRlJaGgo+/bt4/jx4/US2Krtte3btyfqNM0cgiACK5x3qrbB+nQ5ORtF3jffYC8rI/TuuwEIGjqUwtWryfvmG0JGjjylUIfcdZdbqIWz9IestBytVut537eneGo0Gq644opqbtqqbbBG48mRdY4dO4ZOpyM83DmiTVhYGCdOnMBqtVZrqz0dVdtgAwMD5eYQRGCFhmOIjXVal1Xcc7bCQgp+/BFDixb49uhR5/JO1QZb8OOPABx+5JFq66sKrEuosz/5BEtaGhGPPiqVdRaJj4+nWbNmgLP9NDk5uUHlmUwmysrKsNvtXlZsXl4eZWVlREZGermIXeJ54MABFEWpsX20tjZTq9VKfn4+DoejmpWbmZlJTEzMmb0UShuscJGTnnZUZtNpjJg6dkQxmSj69VccFot7fdGvv5L+4ouUVuliU1/MR49SsmUL/tdeS/Szz7oXv169KNmyBUuVNsLAgQMJGTGCmGefxWGzkfavf0llnS0vQ3i4W1wBmjVr5rYE64vLDZyZmem1fu/evSQnJ1drf42OjiY6Opq4uDh3JHFdSU1NxeFwEBcXR9u2bd2LTqcjPT1dKli4bCguzOXIvp0E+PuJBdtYiXriCdJffpkDd99N6H33ubvpqH5+1SzLgtWrKd250/1b9fcncNCgWrcDhIwYQf6KFQCEPfAAvj17nrSgmzeneNMm8pYurbHLjm/Pnvj16UPRr79SkpTklVeoHzVZa35+fmRlZdW7zGbNmpGWlsbevXspLS3FZDJx7NgxysrKaNmyZa35mjZtSmpqKikpKTRt2hS9Xn/yrbyKWP5/e/ceHWWd33H8Pc8z1yeZWzIBQgIhIBAabkpwK7SyKtoqx7PrqkWPyjkeVtujbY8XPB639lTP0p721JXdbeW0VlZktz3WquyqrVVQjlbRhWiVSxFSriEJuTDJTCZzf2b6x5MMmcyFZJJw6X5f/yTzzPM8eSYZ+Mz39/wuZrOZKVOm0N3djcViyTlvMBikvb2dSCSSMxSnmO7uboLB4KiqZyEulWDt6WjHVz2dGVfMl5mcLmUVa9disljofOEF2jduzJpoYuQY2O6XXsp6bK2pyQrYkc8PBaz/zTcxe705AVl29dUoDgf+N98sOCZ2+pNP0nLbbXQ89xxXvPaa/MHG6cyZM9QP3hoYMt5exoqi0NTUxKFDhzh16hTpdBqz2UxDQ8N5w2ru3Lns27ePlpYWGhsbs6rfrNYWhwObzUYoFMp7Tp/PR3t7O62trcybN2/U1358sKOfBKy4VISjsbzbU/EBgv3G2O+hYB0iy9UJcYEdP348b4B4vd5MyB4/fjzvGNn6+vqcIBaiFBd6ubr/DwFbVqblbO/v7cZR5swK1iFSwQpxgRWaf7i3t7foxBPFjhVCTD7f1NzOegMD4bzhKgErxMX4R+rzsXjx4lEvVzc8XGXSBiEuHxKwQlykkJWwFEICVgghhBBFxBIJdD2FP6ZiSgVJKy4JWCGEEKU5E3KQ1I1bHYE8i1OkCKDgxqJFKY+nSGvnhqO5VVCsxnKIqqpgVih4L/NSk0wk6A/0EUio9EUG8MdUHNZKKqdW4LU5qKjwSQUrhBCidFcuaxrVftF0hFTEmJkuGo0aG+MxYukUAMFQghigpgNEwwoJ3ZhgZyi8AUypIH3B1AUPcF1PEEuk6I0M4D90DIDaGVfgntpAGVA7twG7Kf8YbwlYIYQQk8pucsDgCBdNy51UZbyDPaNpY2GLkSEeixnbTUQJhFTUdMB4vkCI5w1J1YXTqVIzZT5utxdNKyccDrFhw8Ns3vxK0WuSgBVCCHH5BzgUDfGJXItJ08o5ePAAfn9PpjnY7+/hww/ext/by6233slAf4/MRSyEEOI3y949u9j5/vbM446OVp7/0XNjOkdj40L++4v9mePvu+92opEImt3OXXd9F93kloAVQgjxm+XwN4fY/XlzpvL8/vfv5bpvf7voMe/86l/Yu2cXq1Yt44Mdu1i6dAn7DnwKwKuvvsLda9dy77qHuHfdQzywfj3/sPk5CVghhBCXv2g6wt49u9i0aSN+f0/RfcOD92jD4RAPP/wHPPbIM5kOWzvf387dd1/PmjWrWLNmFf4zbQA8/5Of8vLWrWzf/h433Hgdy5ddS3OzEdJdXV3Yhy1msfya3+fIkYNyD1YIIcTlKxwOsfuTHez+vJlIxOiw1H02CPEYWG0A2O12FIea09v3gQfu5fbv3ccNN16X2da4qIktW95C08rZtGkjr7/1rzz44GM0NMxn6dIlmXuu8xc0cOiQsfhF44IGPt29lzvuvD9zHpdLlYAVQghx+Tp25Cj7Dx7MhCvAzv94FYB4yhjW098fyTy3YcNTALzxxqvG0oyn27LOV109gw927GLfgU9pbm5m5syZACxduoRQ/7lhQppWTnX1VA63HON7d6zjZ1tX84ttm6muXsDPtv6E9ff/iQSsEEKIy9fCpUu4Ysk89u/9nHf/cyeRSD/r//TRgmNTh9x++11s2PAUN9+8it9ZuZLlVxtV7KOPPoTX62Xt3etZvHAlb2zfCsCc+isz3w9ZvHgJ+7/6iPlz7+f1199h68tb6T77KU898SwLly6RgBVCCHF5s5scLL/6OhoXLmf3JzvOG64ATqcDTSvnx8//I4889ods3/4eFRU+PvzwPT777Gs0rZyPdv2SkydPAHDlskX84OnmrHPcs3Z95vuKCh+PPb4h8zgcDknACiGEKE00HRlVmF0omlbO6ptuG9W+6ZR9MDibuOeee3j66cfZvPkVbrllDXfeuQaPx8vNv3cTixcvyQToX/5wY071PJzf30P7qTai0RN4HWWy4LoQQvwmmogF1997913cHg9z6mpw9LcRqVhELBbBZlLAasNut+ed9OHiv/ZWwLjfOuSDHbu4ZuVyNK2cjo7WzKxNxYTDIYKBDlpbT2NKBambWoO3ogoU6HijTypYIYQQpWtqaqLmyD7AyhGrzpfNzVzVOIdU52H8ezbhB3qm3U7CexUAHlMQx//8DQCR+Q9QXrcam82ogpV2YypDz8I5k3rNw4N1yPCexPmeHx6qx44cJRL3AzCnroYrF8zO2a9nZ78ErBBCiNLV1s4k/W8vYbrxO5xpb8ft8eByuQl88vdYw8bk+DP63iI1b5URonueQR/cbvtmE+qMZcT9rZzdbCLeZcwl7Gzqpe+32+gLpnB7PJmfZVadWFQLljIniYF+EnoCy+AE/pYyJzNqphg/w6FmjpmIJmz/mTaOnjqCKRXE6yjjipmzMKseOrb34d8dRF9hxrvAm3WMdYoM0xFCCFGim2+4FpvdSsxbhdqwkN53/p05NZUApCK9Wfvqehyro5yR9yRd5W5wuenoas1si51KsPT+pZxuPUpt3YjqMAWxaBy1sgyzxZLZFozG6Gj5HH/MCFfVb0GvSGBKBRlIhikzayW9xr5gioWzp3Ll/NkMn5qp54N+enYaQ4P6m0H7URk2zZp5ftaTPglYIYQQ42P7o8cBsppKTd/6c/j1DwFIL/5jkvEoTmcVyrJnCH/xDKlIr7HPYGg5m+z0NxszLFVe6yQ5uNpNDoWsIBva5tJsuGbPpfJkkuN/3QGAt8mJ+ztO43tfVUmv7fTJo/im1uRsT/Tp2Y+7FWx1w34nmlUCVgghRGlSFo1w6zGs3io6A0GC4RguzZg9yVN7NdS+nRVUNrsVtNm4b9mWc67adR76V4SMMFzgJJlIYC5hMt+enecq5/7mKO4V5VCVnPDXXnGzRnBfmHiXjrPJTnmdOd9nASGEEGLsaqqnovziRVLHj3Bw/36OnmwrfkCRxDFbLHgXeHPuZY5V+Sx79oYR4Xrtr91jOp9ZAVJ5qnbNyvxnp7Pgp9OYtT5/dSwVrBBCiJLEuzpQAKV+Hic+3ctVjXOKB9UY6IloSdfku85oEk706TibykmQfS+4M2ZcyHPHNLa121g3PcaG2eGC51NVC0k9gVmxFPxgUPA1y1tECCFEKdTOTvBWEcVEX6DP6LCURyzcj6paxn7+Eo5BAd8NzszD3gIL62xrtxFLGV83zA4z/+PsynmqLcXLdX7cqsr1X/r4+FuBUi5FCCGEKKGCdVdC0woCgQB1dbMKJko4HMVsvTgzPimpeN7t66bHsCnG13w6Ywr3n6xAVa2ZqnespIIVQghREufceUalefpo3skWhiTjEVyesd1bjSVTmFR1YiptqzVn24bZ4aym4cPX9uY9tren9J8rASuEEKIksebPsDVdw74DLdRUVWIx5595V9cTqBb7RblGk72cWCgArnPN1yObg4sz9j15rIWyMi3vkB0JWCGEEBOreTehhkV89fVXzLrp+sIVbArMY7yfqsfjqKp13JfoKndzJpBdhhaqVvNKwfxPvEybNo3es11SwQohhJh86Zn1HDt2DI/bc/4ePWO4jRnt9dN9fDddZ7sIdR2mt/MUdz/xWsnXmcwzzGa0vYiHrlu12POeRwJWCCHEhFNm1HGi5Qz1U51FK8BiQ3SivX46Ok9x9vQX9LQforfzFP29nXnPU1K33ALHjLYX8Zxpxn1gcwk9miVghRBClBaw834Le9tHeN0zC+4Ti/Zjtha+/7rtb2+7KNe+bnosU8HmM9SL+ONpgTFX4BKwQgghxm1WdUXR58PhKFbH2NaEtZe58VbV4Z25mFhfG0f37Zrw6x5tL+LxkIAVQghRkhPH/pfTJ49SW1d4BqdkPIKmFe9BXFk9h7oFK6msXUb11JnYvRV0t5/C5ZnG/t0/n/DrHlsv4mGBqWDMkWwZXXOxBKwQQoiSfH3gFC5z8Z4/oxmiU7dgJU2r1+c5zjQp1z3WanUokM1WO3oiOuqALXkmJ5PJhMlkkneYEEJchibi//C200fw+qYU3aeUITqZCrDE4yaLqloJh0c/R7Iynj+MBKwQQlzeATue/8ej8Rgu1yhWpykhaZKl9hqezIC1WtH1+Og/IJT6gxRFwWaz0dLSQk9PDwMDA+i6sQBtOp2Wd68QQlxCYWpUYCplZWX4fD6qqqpQlPEl2KqmRcVDssQ1XYcfP9FK6cw0dIzNrBDT9ckL2KE/lMlkwmazUVlZic1mI5lMkkql5J0shBCXKEVRMJvNlJeXY7PZxl3Fen1VxQMy1E8yBcFgIBNQqsU+qnuYhz/7Oe998wl6PHHJ/P5Uix1dH/31jKuCtVgsqKqKw+EglUpJ5SqEEJd4JasoCqqqoijKuCvY84mrKi6vD4fmIRWPEUtG0MN9JOMROk/sIRrOvwTckb2/yhqaYy9zXxLNxRaTaUyzOZlL/SMNNTcMfSKScBVCiMsjZPN9nQx6PE7l9JlYHNkzPe3f+U/sfufvCgfziKbh3/3uI5fE7y5tNiIzGAygx7PvxQ6/N+t0VmHTrKVXsCP/KNLhSQghLr+gnUzJeASTJXcd2N1vv5D1uLJ2WdZj57QlrHtiOx3tX1FRNR/3lJpL6ncXDvTgmdmINmwYkTK4tJ6/sw2IAdbxj4OVYBVCCJG3gtUTmM25MbPi1of5/P0tACy59g7qG5aeC+VEAlVVsHsrqPdeP0HXMbH9g1TVgtvlyvucbVivLploQgghxMRLUXAO4kWrH6CqfgVOtyenw5OeiI6r53H+QJy4E9osFmJFejfHkqlMyErACiGEmHCxaL9RkSaTeatYXY8XnEhCncQJJmLhfmKDPZX0eBxNs2PTnKMP2HI3+oj1ZQtR5G0ghBBioqkWO8l4lHQikvf5tK7nTaBYMoVp8H5mMc07t9C8c8uYKmqA7u4ubGYHDs2DqrnoPdtFT2dbZijR+bhc7lF/AJAKVgghxIQzWyyYrfa8nZzGq3nnFr78cFvm8ch5jHOuRQFTKklaMWOzWHBV1wJgTybxeDwAtB89QCwUyFNpJ9DcvtHNWCUBK4QQ4kJIxqN5m4eHgivv9ngcVbVmHh8/+CE7/vlZbrznL6hvvD4nXIe+b1q9PmffzHWkIJFO5wSe2WwGs9E8XLfwmrzXEzrbTaiva1TXPpI0EQshhJgUxZpSR9vM+l+//HHW1+HhOjJkR+47vIIdHo6BYJBEpJ/Q2W7OdrUz0NNW8OfrFlvpVby8BYQQQlxIejxc8D6rrscpt55rVl73Z29lPf/gX31U8Lwj9806byKN2QI2h4tIdytDd4ZVq5WeQA9lvvxjbe3pKJECle2QmJ7AMjgUKBYKYPN4JWCFEEJMjmQiga4nCJ3txqbZUVQV1aoBkNL1rGbgkUy2c9Xtiz9YlRWuW55ZnXd+4gc3fsSLT6/KG8RGtWxM/pBv/uRwkV7BUVP+oUahvi5U67nXEMMYA+vyeLHZnRKwQgghJkc4EgYgEu4j1BdH1+NGz2GMZlqbI/9EDcY++Ztlh4dtznNPryr5Wos1V2sWU04Fq6qWUQ3vkYAVQggx4fR4vHjv2wKTK+l6AtVyYWcINKkqejycqbDPx2x1EA5Hzxuw/wc/rfKIcFsHnQAAAABJRU5ErkJggg==;imageBorder=default;" vertex="1" parent="1">
          <mxGeometry x="10" y="10" width="472" height="574" as="geometry" />
        </mxCell>
      </root>
    </mxGraphModel>
  </diagram>
</mxfile>
